<?xml version="1.0" encoding="UTF-8" standalone="no"?>
<!DOCTYPE svg PUBLIC "-//W3C//DTD SVG 1.1//EN"
 "http://www.w3.org/Graphics/SVG/1.1/DTD/svg11.dtd">
<!-- Generated by graphviz version 12.0.0 (20240704.0754)
 -->
<!-- Title: CS_Course_Dependencies Pages: 1 -->
<svg width="1534pt" height="483pt"
 viewBox="0.00 0.00 1534.25 483.00" xmlns="http://www.w3.org/2000/svg" xmlns:xlink="http://www.w3.org/1999/xlink">
<g id="graph0" class="graph" transform="scale(1 1) rotate(0) translate(4 479)">
<title>CS_Course_Dependencies</title>
<polygon fill="white" stroke="none" points="-4,4 -4,-479 1530.25,-479 1530.25,4 -4,4"/>
<!-- 20476 -->
<g id="node1" class="node">
<title>20476</title>
<g id="a_node1"><a xlink:href="https://www.openu.ac.il/courses/20476.htm" xlink:title="20476">
<polygon fill="#fff2cc" stroke="#916f0c" points="941.88,-365.5 941.88,-401.5 1022.62,-401.5 1022.62,-365.5 941.88,-365.5"/>
<text text-anchor="start" x="949.88" y="-377.3" font-family="Arial" font-size="16.00">בדידה</text>
<polyline fill="none" stroke="#916f0c" points="996.88,-365.5 996.88,-401.5"/>
<text text-anchor="start" x="1004.88" y="-378.48" font-family="Arial" font-weight="bold" font-size="17.00">4</text>
</a>
</g>
</g>
<!-- 20407 -->
<g id="node7" class="node">
<title>20407</title>
<g id="a_node7"><a xlink:href="https://www.openu.ac.il/courses/20407.htm" xlink:title="20407">
<polygon fill="#d6ddff" stroke="#0d32b2" points="420.38,-292.5 420.38,-328.5 642.12,-328.5 642.12,-292.5 420.38,-292.5"/>
<text text-anchor="start" x="428.38" y="-304.3" font-family="Arial" font-size="16.00">מבני נתונים ומ&#39; לאלגוריתמים</text>
<polyline fill="none" stroke="#0d32b2" points="616.38,-292.5 616.38,-328.5"/>
<text text-anchor="start" x="624.38" y="-305.48" font-family="Arial" font-weight="bold" font-size="17.00">5</text>
</a>
</g>
</g>
<!-- 20476&#45;&gt;20407 -->
<g id="edge22" class="edge">
<title>20476&#45;&gt;20407</title>
<path fill="none" stroke="gray" d="M941.43,-376.07C876.98,-365.93 749.13,-345.8 653.2,-330.7"/>
<polygon fill="gray" stroke="gray" points="653.88,-327.26 643.46,-329.16 652.79,-334.18 653.88,-327.26"/>
</g>
<!-- 20466 -->
<g id="node14" class="node">
<title>20466</title>
<g id="a_node14"><a xlink:href="https://www.openu.ac.il/courses/20466.htm" xlink:title="20466">
<polygon fill="#d6ddff" stroke="#0d32b2" points="1015,-292.5 1015,-328.5 1147.5,-328.5 1147.5,-292.5 1015,-292.5"/>
<text text-anchor="start" x="1023" y="-304.3" font-family="Arial" font-size="16.00">לוגיקה למדמח</text>
<polyline fill="none" stroke="#0d32b2" points="1121.75,-292.5 1121.75,-328.5"/>
<text text-anchor="start" x="1129.75" y="-305.48" font-family="Arial" font-weight="bold" font-size="17.00">4</text>
</a>
</g>
</g>
<!-- 20476&#45;&gt;20466 -->
<g id="edge8" class="edge">
<title>20476&#45;&gt;20466</title>
<path fill="none" stroke="gray" d="M1006.47,-365.13C1018.93,-356.19 1034.32,-345.16 1047.89,-335.42"/>
<polygon fill="gray" stroke="gray" points="1049.62,-338.49 1055.71,-329.82 1045.54,-332.8 1049.62,-338.49"/>
</g>
<!-- 20474 -->
<g id="node2" class="node">
<title>20474</title>
<g id="a_node2"><a xlink:href="https://www.openu.ac.il/courses/20474.htm" xlink:title="20474">
<polygon fill="#fff2cc" stroke="#916f0c" points="1283.88,-438.5 1283.88,-474.5 1370.62,-474.5 1370.62,-438.5 1283.88,-438.5"/>
<text text-anchor="start" x="1291.88" y="-450.3" font-family="Arial" font-size="16.00">אינפי 1</text>
<polyline fill="none" stroke="#916f0c" points="1344.88,-438.5 1344.88,-474.5"/>
<text text-anchor="start" x="1352.88" y="-451.48" font-family="Arial" font-weight="bold" font-size="17.00">7</text>
</a>
</g>
</g>
<!-- 20475 -->
<g id="node3" class="node">
<title>20475</title>
<g id="a_node3"><a xlink:href="https://www.openu.ac.il/courses/20475.htm" xlink:title="20475">
<polygon fill="#fff2cc" stroke="#916f0c" points="1283.88,-365.5 1283.88,-401.5 1370.62,-401.5 1370.62,-365.5 1283.88,-365.5"/>
<text text-anchor="start" x="1291.88" y="-377.3" font-family="Arial" font-size="16.00">אינפי 2</text>
<polyline fill="none" stroke="#916f0c" points="1344.88,-365.5 1344.88,-401.5"/>
<text text-anchor="start" x="1352.88" y="-378.48" font-family="Arial" font-weight="bold" font-size="17.00">7</text>
</a>
</g>
</g>
<!-- 20474&#45;&gt;20475 -->
<g id="edge5" class="edge">
<title>20474&#45;&gt;20475</title>
<path fill="none" stroke="gray" d="M1327.25,-438.31C1327.25,-430.73 1327.25,-421.6 1327.25,-413.04"/>
<polygon fill="gray" stroke="gray" points="1330.75,-413.04 1327.25,-403.04 1323.75,-413.04 1330.75,-413.04"/>
</g>
<!-- 20425 -->
<g id="node6" class="node">
<title>20425</title>
<g id="a_node6"><a xlink:href="https://www.openu.ac.il/courses/20425.htm" xlink:title="20425">
<polygon fill="#fff2cc" stroke="#916f0c" points="1165.38,-292.5 1165.38,-328.5 1363.12,-328.5 1363.12,-292.5 1165.38,-292.5"/>
<text text-anchor="start" x="1173.38" y="-304.3" font-family="Arial" font-size="16.00">מ&#39; הסתברות&#45;סטטיסטיקה</text>
<polyline fill="none" stroke="#916f0c" points="1337.38,-292.5 1337.38,-328.5"/>
<text text-anchor="start" x="1345.38" y="-305.48" font-family="Arial" font-weight="bold" font-size="17.00">5</text>
</a>
</g>
</g>
<!-- 20475&#45;&gt;20425 -->
<g id="edge6" class="edge">
<title>20475&#45;&gt;20425</title>
<path fill="none" stroke="gray" d="M1312,-365.31C1304.49,-356.85 1295.29,-346.48 1286.98,-337.11"/>
<polygon fill="gray" stroke="gray" points="1289.62,-334.82 1280.36,-329.66 1284.38,-339.46 1289.62,-334.82"/>
</g>
<!-- 20462 -->
<g id="node26" class="node">
<title>20462</title>
<g id="a_node26"><a xlink:href="https://www.openu.ac.il/courses/20462.htm" xlink:title="20462">
<polygon fill="#f0f0f0" stroke="black" points="1235.25,-219.5 1235.25,-255.5 1333.25,-255.5 1333.25,-219.5 1235.25,-219.5"/>
<text text-anchor="start" x="1243.25" y="-231.3" font-family="Arial" font-size="16.00">נומרית 1</text>
<polyline fill="none" stroke="black" points="1307.5,-219.5 1307.5,-255.5"/>
<text text-anchor="start" x="1315.5" y="-232.47" font-family="Arial" font-weight="bold" font-size="17.00">4</text>
</a>
</g>
</g>
<!-- 20475&#45;&gt;20462 -->
<g id="edge31" class="edge">
<title>20475&#45;&gt;20462</title>
<path fill="none" stroke="gray" d="M1347.16,-365.3C1356.72,-355.71 1367.18,-342.91 1372.25,-329 1377.88,-313.55 1380.31,-306.33 1372.25,-292 1365.06,-279.21 1353.43,-269.12 1340.95,-261.32"/>
<polygon fill="gray" stroke="gray" points="1343.03,-258.47 1332.62,-256.54 1339.55,-264.55 1343.03,-258.47"/>
</g>
<!-- 20109 -->
<g id="node4" class="node">
<title>20109</title>
<g id="a_node4"><a xlink:href="https://www.openu.ac.il/courses/20109.htm" xlink:title="20109">
<polygon fill="#fff2cc" stroke="#916f0c" points="854.88,-292.5 854.88,-328.5 959.62,-328.5 959.62,-292.5 854.88,-292.5"/>
<text text-anchor="start" x="862.88" y="-304.3" font-family="Arial" font-size="16.00">לינארית 1</text>
<polyline fill="none" stroke="#916f0c" points="933.88,-292.5 933.88,-328.5"/>
<text text-anchor="start" x="941.88" y="-305.48" font-family="Arial" font-weight="bold" font-size="17.00">7</text>
</a>
</g>
</g>
<!-- 20229 -->
<g id="node5" class="node">
<title>20229</title>
<g id="a_node5"><a xlink:href="https://www.openu.ac.il/courses/20229.htm" xlink:title="20229">
<polygon fill="#fff2cc" stroke="#916f0c" points="968.88,-219.5 968.88,-255.5 1073.62,-255.5 1073.62,-219.5 968.88,-219.5"/>
<text text-anchor="start" x="976.88" y="-231.3" font-family="Arial" font-size="16.00">לינארית 2</text>
<polyline fill="none" stroke="#916f0c" points="1047.88,-219.5 1047.88,-255.5"/>
<text text-anchor="start" x="1055.88" y="-232.47" font-family="Arial" font-weight="bold" font-size="17.00">5</text>
</a>
</g>
</g>
<!-- 20109&#45;&gt;20229 -->
<g id="edge13" class="edge">
<title>20109&#45;&gt;20229</title>
<path fill="none" stroke="gray" d="M935.14,-292.13C949.77,-283.02 967.89,-271.73 983.74,-261.86"/>
<polygon fill="gray" stroke="gray" points="985.33,-264.99 991.97,-256.74 981.63,-259.05 985.33,-264.99"/>
</g>
<!-- 20417 -->
<g id="node12" class="node">
<title>20417</title>
<g id="a_node12"><a xlink:href="https://www.openu.ac.il/courses/20417.htm" xlink:title="20417">
<polygon fill="#d6ddff" stroke="#0d32b2" points="835.25,-219.5 835.25,-255.5 951.25,-255.5 951.25,-219.5 835.25,-219.5"/>
<text text-anchor="start" x="843.25" y="-231.3" font-family="Arial" font-size="16.00">אלגוריתמים</text>
<polyline fill="none" stroke="#0d32b2" points="925.5,-219.5 925.5,-255.5"/>
<text text-anchor="start" x="933.5" y="-232.47" font-family="Arial" font-weight="bold" font-size="17.00">5</text>
</a>
</g>
</g>
<!-- 20109&#45;&gt;20417 -->
<g id="edge15" class="edge">
<title>20109&#45;&gt;20417</title>
<path fill="none" stroke="gray" d="M903.86,-292.31C902.35,-284.64 900.52,-275.39 898.82,-266.74"/>
<polygon fill="gray" stroke="gray" points="902.27,-266.15 896.9,-257.01 895.4,-267.5 902.27,-266.15"/>
</g>
<!-- 20296 -->
<g id="node19" class="node">
<title>20296</title>
<g id="a_node19"><a xlink:href="https://www.openu.ac.il/courses/20296.htm" xlink:title="20296">
<polygon fill="#f0f0f0" stroke="black" points="1091.38,-219.5 1091.38,-255.5 1217.12,-255.5 1217.12,-219.5 1091.38,-219.5"/>
<text text-anchor="start" x="1099.38" y="-231.3" font-family="Arial" font-size="16.00">תורת הקודים</text>
<polyline fill="none" stroke="black" points="1191.38,-219.5 1191.38,-255.5"/>
<text text-anchor="start" x="1199.38" y="-232.47" font-family="Arial" font-weight="bold" font-size="17.00">4</text>
</a>
</g>
</g>
<!-- 20109&#45;&gt;20296 -->
<g id="edge12" class="edge">
<title>20109&#45;&gt;20296</title>
<path fill="none" stroke="gray" d="M959.93,-294.36C995.6,-284.1 1043.17,-270.43 1082.32,-259.18"/>
<polygon fill="gray" stroke="gray" points="1083.28,-262.54 1091.92,-256.42 1081.35,-255.81 1083.28,-262.54"/>
</g>
<!-- 20109&#45;&gt;20462 -->
<g id="edge32" class="edge">
<title>20109&#45;&gt;20462</title>
<path fill="none" stroke="gray" d="M960.08,-294.91C964.52,-293.86 968.95,-292.87 973.25,-292 1081.08,-270.11 1113.34,-279.82 1224.06,-256.29"/>
<polygon fill="gray" stroke="gray" points="1224.52,-259.77 1233.54,-254.23 1223.03,-252.93 1224.52,-259.77"/>
</g>
<!-- 20562 -->
<g id="node29" class="node">
<title>20562</title>
<g id="a_node29"><a xlink:href="https://www.openu.ac.il/courses/20562.htm" xlink:title="20562">
<polygon fill="#f0f0f0" stroke="black" points="585.38,-219.5 585.38,-255.5 741.12,-255.5 741.12,-219.5 585.38,-219.5"/>
<text text-anchor="start" x="593.38" y="-231.3" font-family="Arial" font-size="16.00">גרפיקה ממוחשבת</text>
<polyline fill="none" stroke="black" points="715.38,-219.5 715.38,-255.5"/>
<text text-anchor="start" x="723.38" y="-232.47" font-family="Arial" font-weight="bold" font-size="17.00">4</text>
</a>
</g>
</g>
<!-- 20109&#45;&gt;20562 -->
<g id="edge36" class="edge">
<title>20109&#45;&gt;20562</title>
<path fill="none" stroke="gray" d="M854.61,-294.18C819.26,-283.9 772.29,-270.23 733.73,-259.01"/>
<polygon fill="gray" stroke="gray" points="735.13,-255.77 724.55,-256.34 733.17,-262.49 735.13,-255.77"/>
</g>
<!-- 20944 -->
<g id="node24" class="node">
<title>20944</title>
<g id="a_node24"><a xlink:href="https://www.openu.ac.il/courses/20944.htm" xlink:title="20944">
<polygon fill="#f0f0f0" stroke="black" points="965.75,-146.5 965.75,-182.5 1144.75,-182.5 1144.75,-146.5 965.75,-146.5"/>
<text text-anchor="start" x="973.75" y="-158.3" font-family="Arial" font-size="16.00">רובוטיקה אלגוריתמית</text>
<polyline fill="none" stroke="black" points="1119,-146.5 1119,-182.5"/>
<text text-anchor="start" x="1127" y="-159.47" font-family="Arial" font-weight="bold" font-size="17.00">4</text>
</a>
</g>
</g>
<!-- 20229&#45;&gt;20944 -->
<g id="edge49" class="edge">
<title>20229&#45;&gt;20944</title>
<path fill="none" stroke="gray" d="M1029.48,-219.31C1033.28,-211.38 1037.89,-201.76 1042.15,-192.86"/>
<polygon fill="gray" stroke="gray" points="1045.28,-194.42 1046.44,-183.89 1038.97,-191.4 1045.28,-194.42"/>
</g>
<!-- 20425&#45;&gt;20417 -->
<g id="edge14" class="edge">
<title>20425&#45;&gt;20417</title>
<path fill="none" stroke="gray" d="M1164.89,-292.91C1097.09,-281.43 1012.14,-266.71 962.8,-256.43"/>
<polygon fill="gray" stroke="gray" points="963.64,-253.03 953.13,-254.37 962.18,-259.88 963.64,-253.03"/>
</g>
<!-- 20942 -->
<g id="node21" class="node">
<title>20942</title>
<g id="a_node21"><a xlink:href="https://www.openu.ac.il/courses/20942.htm" xlink:title="20942">
<polygon fill="#f0f0f0" stroke="black" points="1362.25,-73.5 1362.25,-109.5 1526.25,-109.5 1526.25,-73.5 1362.25,-73.5"/>
<text text-anchor="start" x="1370.25" y="-85.3" font-family="Arial" font-size="16.00">מ&#39; ללמידה חישובית</text>
<polyline fill="none" stroke="black" points="1500.5,-73.5 1500.5,-109.5"/>
<text text-anchor="start" x="1508.5" y="-86.47" font-family="Arial" font-weight="bold" font-size="17.00">4</text>
</a>
</g>
</g>
<!-- 20425&#45;&gt;20942 -->
<g id="edge44" class="edge">
<title>20425&#45;&gt;20942</title>
<path fill="none" stroke="gray" d="M1307.07,-292.08C1348.71,-272.5 1409.35,-236.31 1435.25,-183 1444.59,-163.78 1446.57,-139.58 1446.36,-121.05"/>
<polygon fill="gray" stroke="gray" points="1449.87,-121.18 1446.02,-111.31 1442.87,-121.42 1449.87,-121.18"/>
</g>
<!-- 20471 -->
<g id="node9" class="node">
<title>20471</title>
<g id="a_node9"><a xlink:href="https://www.openu.ac.il/courses/20471.htm" xlink:title="20471">
<polygon fill="#d6ddff" stroke="#0d32b2" points="439.62,-219.5 439.62,-255.5 566.88,-255.5 566.88,-219.5 439.62,-219.5"/>
<text text-anchor="start" x="447.62" y="-231.3" font-family="Arial" font-size="16.00">ארגון המחשב</text>
<polyline fill="none" stroke="#0d32b2" points="541.12,-219.5 541.12,-255.5"/>
<text text-anchor="start" x="549.12" y="-232.47" font-family="Arial" font-weight="bold" font-size="17.00">4</text>
</a>
</g>
</g>
<!-- 20407&#45;&gt;20471 -->
<g id="edge25" class="edge">
<title>20407&#45;&gt;20471</title>
<path fill="none" stroke="gray" d="M524.47,-292.31C521.38,-284.46 517.63,-274.97 514.16,-266.16"/>
<polygon fill="gray" stroke="gray" points="517.45,-264.96 510.52,-256.94 510.93,-267.52 517.45,-264.96"/>
</g>
<!-- 20407&#45;&gt;20417 -->
<g id="edge16" class="edge">
<title>20407&#45;&gt;20417</title>
<path fill="none" stroke="gray" d="M620.27,-292.04C682.97,-279.74 765.74,-263.51 823.63,-252.15"/>
<polygon fill="gray" stroke="gray" points="824.24,-255.6 833.38,-250.24 822.89,-248.73 824.24,-255.6"/>
</g>
<!-- 20277 -->
<g id="node22" class="node">
<title>20277</title>
<g id="a_node22"><a xlink:href="https://www.openu.ac.il/courses/20277.htm" xlink:title="20277">
<polygon fill="#f0f0f0" stroke="black" points="103.88,-219.5 103.88,-255.5 250.62,-255.5 250.62,-219.5 103.88,-219.5"/>
<text text-anchor="start" x="111.88" y="-231.3" font-family="Arial" font-size="16.00">מע&#39; בסיסי נתונים</text>
<polyline fill="none" stroke="black" points="224.88,-219.5 224.88,-255.5"/>
<text text-anchor="start" x="232.88" y="-232.47" font-family="Arial" font-weight="bold" font-size="17.00">4</text>
</a>
</g>
</g>
<!-- 20407&#45;&gt;20277 -->
<g id="edge9" class="edge">
<title>20407&#45;&gt;20277</title>
<path fill="none" stroke="gray" d="M440.51,-292.03C390.49,-282.31 326.99,-269.83 262.24,-256.6"/>
<polygon fill="gray" stroke="gray" points="262.98,-253.18 252.48,-254.6 261.57,-260.04 262.98,-253.18"/>
</g>
<!-- 20554 -->
<g id="node25" class="node">
<title>20554</title>
<g id="a_node25"><a xlink:href="https://www.openu.ac.il/courses/20554.htm" xlink:title="20554">
<polygon fill="#f0f0f0" stroke="black" points="268.5,-219.5 268.5,-255.5 422,-255.5 422,-219.5 268.5,-219.5"/>
<text text-anchor="start" x="276.5" y="-231.3" font-family="Arial" font-size="16.00">תכ&#39; מתקדם Java</text>
<polyline fill="none" stroke="black" points="396.25,-219.5 396.25,-255.5"/>
<text text-anchor="start" x="404.25" y="-232.47" font-family="Arial" font-weight="bold" font-size="17.00">4</text>
</a>
</g>
</g>
<!-- 20407&#45;&gt;20554 -->
<g id="edge33" class="edge">
<title>20407&#45;&gt;20554</title>
<path fill="none" stroke="gray" d="M485.75,-292.13C460.3,-282.42 428.37,-270.23 401.39,-259.93"/>
<polygon fill="gray" stroke="gray" points="402.93,-256.77 392.34,-256.48 400.43,-263.31 402.93,-256.77"/>
</g>
<!-- 20407&#45;&gt;20562 -->
<g id="edge38" class="edge">
<title>20407&#45;&gt;20562</title>
<path fill="none" stroke="gray" d="M563.54,-292.13C580.8,-282.85 602.26,-271.3 620.85,-261.31"/>
<polygon fill="gray" stroke="gray" points="622.35,-264.47 629.5,-256.65 619.04,-258.31 622.35,-264.47"/>
</g>
<!-- 20906 -->
<g id="node32" class="node">
<title>20906</title>
<g id="a_node32"><a xlink:href="https://www.openu.ac.il/courses/20906.htm" xlink:title="20906">
<polygon fill="#f0f0f0" stroke="black" points="0,-146.5 0,-182.5 150.5,-182.5 150.5,-146.5 0,-146.5"/>
<text text-anchor="start" x="8" y="-158.3" font-family="Arial" font-size="16.00">תכ&#39; מונחה עצמים</text>
<polyline fill="none" stroke="black" points="124.75,-146.5 124.75,-182.5"/>
<text text-anchor="start" x="132.75" y="-159.47" font-family="Arial" font-weight="bold" font-size="17.00">4</text>
</a>
</g>
</g>
<!-- 20407&#45;&gt;20906 -->
<g id="edge41" class="edge">
<title>20407&#45;&gt;20906</title>
<path fill="none" stroke="gray" d="M419.95,-310.02C306.69,-308.14 141.42,-297.96 95.25,-256 78.31,-240.6 74.02,-214.37 73.55,-194.09"/>
<polygon fill="gray" stroke="gray" points="77.05,-194.23 73.65,-184.2 70.05,-194.16 77.05,-194.23"/>
</g>
<!-- 20905 -->
<g id="node8" class="node">
<title>20905</title>
<g id="a_node8"><a xlink:href="https://www.openu.ac.il/courses/20905.htm" xlink:title="20905">
<polygon fill="#d6ddff" stroke="#0d32b2" points="500.75,-0.5 500.75,-36.5 619.75,-36.5 619.75,-0.5 500.75,-0.5"/>
<text text-anchor="start" x="508.75" y="-12.3" font-family="Arial" font-size="16.00">שפות תכנות</text>
<polyline fill="none" stroke="#0d32b2" points="594,-0.5 594,-36.5"/>
<text text-anchor="start" x="602" y="-13.48" font-family="Arial" font-weight="bold" font-size="17.00">5</text>
</a>
</g>
</g>
<!-- 20594 -->
<g id="node15" class="node">
<title>20594</title>
<g id="a_node15"><a xlink:href="https://www.openu.ac.il/courses/20594.htm" xlink:title="20594">
<polygon fill="#d6ddff" stroke="#0d32b2" points="425.88,-146.5 425.88,-182.5 536.62,-182.5 536.62,-146.5 425.88,-146.5"/>
<text text-anchor="start" x="433.88" y="-158.3" font-family="Arial" font-size="16.00">מע&#39; הפעלה</text>
<polyline fill="none" stroke="#0d32b2" points="510.88,-146.5 510.88,-182.5"/>
<text text-anchor="start" x="518.88" y="-159.47" font-family="Arial" font-weight="bold" font-size="17.00">5</text>
</a>
</g>
</g>
<!-- 20471&#45;&gt;20594 -->
<g id="edge11" class="edge">
<title>20471&#45;&gt;20594</title>
<path fill="none" stroke="gray" d="M497.92,-219.31C495.52,-211.55 492.62,-202.18 489.91,-193.45"/>
<polygon fill="gray" stroke="gray" points="493.28,-192.49 486.97,-183.97 486.59,-194.56 493.28,-192.49"/>
</g>
<!-- 20441 -->
<g id="node10" class="node">
<title>20441</title>
<g id="a_node10"><a xlink:href="https://www.openu.ac.il/courses/20441.htm" xlink:title="20441">
<polygon fill="#d6ddff" stroke="#0d32b2" points="699.12,-365.5 699.12,-401.5 811.38,-401.5 811.38,-365.5 699.12,-365.5"/>
<text text-anchor="start" x="707.12" y="-377.3" font-family="Arial" font-size="16.00">מבוא Java</text>
<polyline fill="none" stroke="#0d32b2" points="785.62,-365.5 785.62,-401.5"/>
<text text-anchor="start" x="793.62" y="-378.48" font-family="Arial" font-weight="bold" font-size="17.00">6</text>
</a>
</g>
</g>
<!-- 20441&#45;&gt;20407 -->
<g id="edge1" class="edge">
<title>20441&#45;&gt;20407</title>
<path fill="none" stroke="gray" d="M700.17,-365.04C668.98,-355.15 629.76,-342.73 596.97,-332.33"/>
<polygon fill="gray" stroke="gray" points="598.15,-329.03 587.56,-329.35 596.04,-335.71 598.15,-329.03"/>
</g>
<!-- 20465 -->
<g id="node11" class="node">
<title>20465</title>
<g id="a_node11"><a xlink:href="https://www.openu.ac.il/courses/20465.htm" xlink:title="20465">
<polygon fill="#d6ddff" stroke="#0d32b2" points="686.75,-292.5 686.75,-328.5 823.75,-328.5 823.75,-292.5 686.75,-292.5"/>
<text text-anchor="start" x="694.75" y="-304.3" font-family="Arial" font-size="16.00">מעבדה בתכנות</text>
<polyline fill="none" stroke="#0d32b2" points="798,-292.5 798,-328.5"/>
<text text-anchor="start" x="806" y="-305.48" font-family="Arial" font-weight="bold" font-size="17.00">4</text>
</a>
</g>
</g>
<!-- 20441&#45;&gt;20465 -->
<g id="edge3" class="edge">
<title>20441&#45;&gt;20465</title>
<path fill="none" stroke="gray" d="M755.25,-365.31C755.25,-357.73 755.25,-348.6 755.25,-340.04"/>
<polygon fill="gray" stroke="gray" points="758.75,-340.04 755.25,-330.04 751.75,-340.04 758.75,-340.04"/>
</g>
<!-- 20441&#45;&gt;20462 -->
<g id="edge30" class="edge">
<title>20441&#45;&gt;20462</title>
<path fill="none" stroke="gray" d="M811.59,-376.52C856.34,-369.9 919.31,-356.32 968.25,-329 988.83,-317.51 985.2,-302.62 1006.25,-292 1091.52,-248.99 1127.13,-276.22 1223.86,-256.28"/>
<polygon fill="gray" stroke="gray" points="1224.51,-259.72 1233.53,-254.16 1223.01,-252.89 1224.51,-259.72"/>
</g>
<!-- 20465&#45;&gt;20471 -->
<g id="edge2" class="edge">
<title>20465&#45;&gt;20471</title>
<path fill="none" stroke="gray" d="M693.28,-292.04C657.73,-282.03 612.93,-269.4 575.75,-258.93"/>
<polygon fill="gray" stroke="gray" points="577.01,-255.65 566.44,-256.3 575.11,-262.38 577.01,-255.65"/>
</g>
<!-- 20946 -->
<g id="node18" class="node">
<title>20946</title>
<g id="a_node18"><a xlink:href="https://www.openu.ac.il/courses/20946.htm" xlink:title="20946">
<polygon fill="#f0f0f0" stroke="black" points="697.5,-73.5 697.5,-109.5 851,-109.5 851,-73.5 697.5,-73.5"/>
<text text-anchor="start" x="705.5" y="-85.3" font-family="Arial" font-size="16.00">מ&#39; לבדיקות תוכנה</text>
<polyline fill="none" stroke="black" points="825.25,-73.5 825.25,-109.5"/>
<text text-anchor="start" x="833.25" y="-86.47" font-family="Arial" font-weight="bold" font-size="17.00">4</text>
</a>
</g>
</g>
<!-- 20465&#45;&gt;20946 -->
<g id="edge23" class="edge">
<title>20465&#45;&gt;20946</title>
<path fill="none" stroke="gray" d="M756.77,-292.11C760.03,-254.89 767.71,-167.19 771.72,-121.43"/>
<polygon fill="gray" stroke="gray" points="775.2,-121.75 772.59,-111.48 768.23,-121.14 775.2,-121.75"/>
</g>
<!-- 20465&#45;&gt;20562 -->
<g id="edge37" class="edge">
<title>20465&#45;&gt;20562</title>
<path fill="none" stroke="gray" d="M732.98,-292.31C721.43,-283.4 707.12,-272.36 694.48,-262.6"/>
<polygon fill="gray" stroke="gray" points="696.89,-260.04 686.83,-256.7 692.61,-265.58 696.89,-260.04"/>
</g>
<!-- 20364 -->
<g id="node33" class="node">
<title>20364</title>
<g id="a_node33"><a xlink:href="https://www.openu.ac.il/courses/20364.htm" xlink:title="20364">
<polygon fill="#f0f0f0" stroke="black" points="868.75,-73.5 868.75,-109.5 975.75,-109.5 975.75,-73.5 868.75,-73.5"/>
<text text-anchor="start" x="876.75" y="-85.3" font-family="Arial" font-size="16.00">קומפילציה</text>
<polyline fill="none" stroke="black" points="950,-73.5 950,-109.5"/>
<text text-anchor="start" x="958" y="-86.47" font-family="Arial" font-weight="bold" font-size="17.00">4</text>
</a>
</g>
</g>
<!-- 20465&#45;&gt;20364 -->
<g id="edge24" class="edge">
<title>20465&#45;&gt;20364</title>
<path fill="none" stroke="gray" d="M761.99,-292.29C777.62,-252.68 815.76,-157.58 826.25,-146 837.59,-133.48 852.58,-123.21 867.33,-115.15"/>
<polygon fill="gray" stroke="gray" points="868.83,-118.31 876.11,-110.61 865.62,-112.09 868.83,-118.31"/>
</g>
<!-- 20604 -->
<g id="node13" class="node">
<title>20604</title>
<g id="a_node13"><a xlink:href="https://www.openu.ac.il/courses/20604.htm" xlink:title="20604">
<polygon fill="#d6ddff" stroke="#0d32b2" points="1162.5,-146.5 1162.5,-182.5 1310,-182.5 1310,-146.5 1162.5,-146.5"/>
<text text-anchor="start" x="1170.5" y="-158.3" font-family="Arial" font-size="16.00">מודלים חישוביים</text>
<polyline fill="none" stroke="#0d32b2" points="1284.25,-146.5 1284.25,-182.5"/>
<text text-anchor="start" x="1292.25" y="-159.47" font-family="Arial" font-weight="bold" font-size="17.00">5</text>
</a>
</g>
</g>
<!-- 20417&#45;&gt;20604 -->
<g id="edge17" class="edge">
<title>20417&#45;&gt;20604</title>
<path fill="none" stroke="gray" d="M951.66,-220.98C954.56,-220.29 957.43,-219.63 960.25,-219 1042.33,-200.69 1066.31,-200.17 1150.88,-183.64"/>
<polygon fill="gray" stroke="gray" points="1151.46,-187.09 1160.59,-181.72 1150.1,-180.22 1151.46,-187.09"/>
</g>
<!-- 20595 -->
<g id="node17" class="node">
<title>20595</title>
<g id="a_node17"><a xlink:href="https://www.openu.ac.il/courses/20595.htm" xlink:title="20595">
<polygon fill="#f0f0f0" stroke="black" points="835.12,-146.5 835.12,-182.5 947.38,-182.5 947.38,-146.5 835.12,-146.5"/>
<text text-anchor="start" x="843.12" y="-158.3" font-family="Arial" font-size="16.00">כריית מידע</text>
<polyline fill="none" stroke="black" points="921.62,-146.5 921.62,-182.5"/>
<text text-anchor="start" x="929.62" y="-159.47" font-family="Arial" font-weight="bold" font-size="17.00">4</text>
</a>
</g>
</g>
<!-- 20417&#45;&gt;20595 -->
<g id="edge18" class="edge">
<title>20417&#45;&gt;20595</title>
<path fill="none" stroke="gray" d="M892.77,-219.31C892.55,-211.64 892.29,-202.39 892.05,-193.74"/>
<polygon fill="gray" stroke="gray" points="895.55,-193.94 891.77,-184.04 888.56,-194.14 895.55,-193.94"/>
</g>
<!-- 20582 -->
<g id="node23" class="node">
<title>20582</title>
<g id="a_node23"><a xlink:href="https://www.openu.ac.il/courses/20582.htm" xlink:title="20582">
<polygon fill="#f0f0f0" stroke="black" points="555.12,-146.5 555.12,-182.5 697.38,-182.5 697.38,-146.5 555.12,-146.5"/>
<text text-anchor="start" x="563.12" y="-158.3" font-family="Arial" font-size="16.00">מ&#39; לרשתות ת&#39;&#39;מ</text>
<polyline fill="none" stroke="black" points="671.62,-146.5 671.62,-182.5"/>
<text text-anchor="start" x="679.62" y="-159.47" font-family="Arial" font-weight="bold" font-size="17.00">4</text>
</a>
</g>
</g>
<!-- 20417&#45;&gt;20582 -->
<g id="edge21" class="edge">
<title>20417&#45;&gt;20582</title>
<path fill="none" stroke="gray" d="M834.99,-221.01C796.25,-210.71 744.97,-197.07 702.93,-185.89"/>
<polygon fill="gray" stroke="gray" points="703.92,-182.53 693.36,-183.35 702.12,-189.3 703.92,-182.53"/>
</g>
<!-- 20417&#45;&gt;20944 -->
<g id="edge27" class="edge">
<title>20417&#45;&gt;20944</title>
<path fill="none" stroke="gray" d="M932.88,-219.13C954.65,-209.59 981.87,-197.66 1005.11,-187.48"/>
<polygon fill="gray" stroke="gray" points="1006.33,-190.76 1014.08,-183.54 1003.52,-184.35 1006.33,-190.76"/>
</g>
<!-- 20604&#45;&gt;20946 -->
<g id="edge26" class="edge">
<title>20604&#45;&gt;20946</title>
<path fill="none" stroke="gray" d="M1162.11,-147.37C1159.46,-146.89 1156.83,-146.43 1154.25,-146 1027.97,-124.84 992.13,-130.79 862.27,-110.24"/>
<polygon fill="gray" stroke="gray" points="863.01,-106.82 852.58,-108.69 861.9,-113.73 863.01,-106.82"/>
</g>
<!-- 20551 -->
<g id="node20" class="node">
<title>20551</title>
<g id="a_node20"><a xlink:href="https://www.openu.ac.il/courses/20551.htm" xlink:title="20551">
<polygon fill="#f0f0f0" stroke="black" points="1164,-73.5 1164,-109.5 1326.5,-109.5 1326.5,-73.5 1164,-73.5"/>
<text text-anchor="start" x="1172" y="-85.3" font-family="Arial" font-size="16.00">מ&#39; לבינה מלאכותית</text>
<polyline fill="none" stroke="black" points="1300.75,-73.5 1300.75,-109.5"/>
<text text-anchor="start" x="1308.75" y="-86.47" font-family="Arial" font-weight="bold" font-size="17.00">4</text>
</a>
</g>
</g>
<!-- 20604&#45;&gt;20551 -->
<g id="edge20" class="edge">
<title>20604&#45;&gt;20551</title>
<path fill="none" stroke="gray" d="M1238.43,-146.31C1239.4,-138.64 1240.57,-129.39 1241.67,-120.74"/>
<polygon fill="gray" stroke="gray" points="1245.12,-121.39 1242.9,-111.03 1238.17,-120.51 1245.12,-121.39"/>
</g>
<!-- 20604&#45;&gt;20942 -->
<g id="edge10" class="edge">
<title>20604&#45;&gt;20942</title>
<path fill="none" stroke="gray" d="M1287.4,-146.04C1316.11,-136.24 1352.14,-123.94 1382.43,-113.6"/>
<polygon fill="gray" stroke="gray" points="1383.53,-116.92 1391.87,-110.38 1381.27,-110.3 1383.53,-116.92"/>
</g>
<!-- 20580 -->
<g id="node30" class="node">
<title>20580</title>
<g id="a_node30"><a xlink:href="https://www.openu.ac.il/courses/20580.htm" xlink:title="20580">
<polygon fill="#f0f0f0" stroke="black" points="998.88,-73.5 998.88,-109.5 1145.62,-109.5 1145.62,-73.5 998.88,-73.5"/>
<text text-anchor="start" x="1006.88" y="-85.3" font-family="Arial" font-size="16.00">מ&#39; לקריפטוגרפיה</text>
<polyline fill="none" stroke="black" points="1119.88,-73.5 1119.88,-109.5"/>
<text text-anchor="start" x="1127.88" y="-86.47" font-family="Arial" font-weight="bold" font-size="17.00">4</text>
</a>
</g>
</g>
<!-- 20604&#45;&gt;20580 -->
<g id="edge39" class="edge">
<title>20604&#45;&gt;20580</title>
<path fill="none" stroke="gray" d="M1196.13,-146.13C1174.09,-136.59 1146.54,-124.66 1123.01,-114.48"/>
<polygon fill="gray" stroke="gray" points="1124.48,-111.3 1113.91,-110.54 1121.7,-117.72 1124.48,-111.3"/>
</g>
<!-- 20604&#45;&gt;20364 -->
<g id="edge42" class="edge">
<title>20604&#45;&gt;20364</title>
<path fill="none" stroke="gray" d="M1162.14,-147.53C1095.97,-133.25 1006.97,-113.97 990.25,-110 989.24,-109.76 988.22,-109.52 987.19,-109.27"/>
<polygon fill="gray" stroke="gray" points="988.04,-105.87 977.5,-106.9 986.38,-112.67 988.04,-105.87"/>
</g>
<!-- 20466&#45;&gt;20604 -->
<g id="edge7" class="edge">
<title>20466&#45;&gt;20604</title>
<path fill="none" stroke="gray" d="M1147.88,-293.82C1150.7,-293.19 1153.5,-292.59 1156.25,-292 1238.6,-274.43 1288.67,-320.95 1342.25,-256 1352.72,-243.32 1350.87,-233 1342.25,-219 1334.12,-205.79 1321.61,-195.73 1308.01,-188.1"/>
<polygon fill="gray" stroke="gray" points="1309.79,-185.08 1299.3,-183.65 1306.61,-191.31 1309.79,-185.08"/>
</g>
<!-- 20940 -->
<g id="node16" class="node">
<title>20940</title>
<g id="a_node16"><a xlink:href="https://www.openu.ac.il/courses/20940.htm" xlink:title="20940">
<polygon fill="#f0f0f0" stroke="black" points="536.75,-73.5 536.75,-109.5 679.75,-109.5 679.75,-73.5 536.75,-73.5"/>
<text text-anchor="start" x="544.75" y="-85.3" font-family="Arial" font-size="16.00">מ&#39; לאבטחת ה&#39;&#39;ה</text>
<polyline fill="none" stroke="black" points="654,-73.5 654,-109.5"/>
<text text-anchor="start" x="662" y="-86.47" font-family="Arial" font-weight="bold" font-size="17.00">4</text>
</a>
</g>
</g>
<!-- 20594&#45;&gt;20940 -->
<g id="edge4" class="edge">
<title>20594&#45;&gt;20940</title>
<path fill="none" stroke="gray" d="M512.32,-146.13C528.92,-136.85 549.57,-125.3 567.46,-115.31"/>
<polygon fill="gray" stroke="gray" points="568.72,-118.61 575.74,-110.67 565.31,-112.5 568.72,-118.61"/>
</g>
<!-- 20937 -->
<g id="node28" class="node">
<title>20937</title>
<g id="a_node28"><a xlink:href="https://www.openu.ac.il/courses/20937.htm" xlink:title="20937">
<polygon fill="#f0f0f0" stroke="black" points="377.88,-73.5 377.88,-109.5 518.62,-109.5 518.62,-73.5 377.88,-73.5"/>
<text text-anchor="start" x="385.88" y="-85.3" font-family="Arial" font-size="16.00">תכ&#39; מע&#39; דפנסיבי</text>
<polyline fill="none" stroke="black" points="492.88,-73.5 492.88,-109.5"/>
<text text-anchor="start" x="500.88" y="-86.47" font-family="Arial" font-weight="bold" font-size="17.00">4</text>
</a>
</g>
</g>
<!-- 20594&#45;&gt;20937 -->
<g id="edge34" class="edge">
<title>20594&#45;&gt;20937</title>
<path fill="none" stroke="gray" d="M473.26,-146.31C469.57,-138.38 465.1,-128.76 460.97,-119.86"/>
<polygon fill="gray" stroke="gray" points="464.19,-118.49 456.8,-110.9 457.84,-121.44 464.19,-118.49"/>
</g>
<!-- 20574 -->
<g id="node34" class="node">
<title>20574</title>
<g id="a_node34"><a xlink:href="https://www.openu.ac.il/courses/20574.htm" xlink:title="20574">
<polygon fill="#f0f0f0" stroke="black" points="188.75,-73.5 188.75,-109.5 295.75,-109.5 295.75,-73.5 188.75,-73.5"/>
<text text-anchor="start" x="196.75" y="-85.3" font-family="Arial" font-size="16.00">מע&#39; נתונים</text>
<polyline fill="none" stroke="black" points="270,-73.5 270,-109.5"/>
<text text-anchor="start" x="278" y="-86.47" font-family="Arial" font-weight="bold" font-size="17.00">4</text>
</a>
</g>
</g>
<!-- 20594&#45;&gt;20574 -->
<g id="edge29" class="edge">
<title>20594&#45;&gt;20574</title>
<path fill="none" stroke="gray" d="M425.52,-146.94C389.99,-136.39 343.82,-122.67 306.72,-111.65"/>
<polygon fill="gray" stroke="gray" points="308.05,-108.4 297.46,-108.9 306.05,-115.11 308.05,-108.4"/>
</g>
<!-- 20436 -->
<g id="node31" class="node">
<title>20436</title>
<g id="a_node31"><a xlink:href="https://www.openu.ac.il/courses/20436.htm" xlink:title="20436">
<polygon fill="#f0f0f0" stroke="black" points="205.88,-146.5 205.88,-182.5 370.62,-182.5 370.62,-146.5 205.88,-146.5"/>
<text text-anchor="start" x="213.88" y="-158.3" font-family="Arial" font-size="16.00">עק&#39; פיתוח מע&#39; מידע</text>
<polyline fill="none" stroke="black" points="344.88,-146.5 344.88,-182.5"/>
<text text-anchor="start" x="352.88" y="-159.47" font-family="Arial" font-weight="bold" font-size="17.00">4</text>
</a>
</g>
</g>
<!-- 20277&#45;&gt;20436 -->
<g id="edge28" class="edge">
<title>20277&#45;&gt;20436</title>
<path fill="none" stroke="gray" d="M204.4,-219.13C218.65,-210.02 236.3,-198.73 251.72,-188.86"/>
<polygon fill="gray" stroke="gray" points="253.18,-192.09 259.72,-183.75 249.41,-186.19 253.18,-192.09"/>
</g>
<!-- 20277&#45;&gt;20574 -->
<g id="edge43" class="edge">
<title>20277&#45;&gt;20574</title>
<path fill="none" stroke="gray" d="M178.62,-219.01C180.65,-200.15 185.57,-169.66 197.25,-146 202.14,-136.09 209.25,-126.46 216.37,-118.17"/>
<polygon fill="gray" stroke="gray" points="218.87,-120.62 222.99,-110.86 213.68,-115.92 218.87,-120.62"/>
</g>
<!-- 20582&#45;&gt;20940 -->
<g id="edge19" class="edge">
<title>20582&#45;&gt;20940</title>
<path fill="none" stroke="gray" d="M621.89,-146.31C619.92,-138.55 617.55,-129.18 615.34,-120.45"/>
<polygon fill="gray" stroke="gray" points="618.79,-119.83 612.94,-111 612,-121.55 618.79,-119.83"/>
</g>
<!-- 20582&#45;&gt;20937 -->
<g id="edge35" class="edge">
<title>20582&#45;&gt;20937</title>
<path fill="none" stroke="gray" d="M582.71,-146.13C558.46,-136.46 528.07,-124.34 502.31,-114.06"/>
<polygon fill="gray" stroke="gray" points="503.95,-110.95 493.37,-110.5 501.36,-117.45 503.95,-110.95"/>
</g>
<!-- 20554&#45;&gt;20937 -->
<g id="edge40" class="edge">
<title>20554&#45;&gt;20937</title>
<path fill="none" stroke="gray" d="M357.67,-219.13C375.46,-194.26 408.33,-148.31 429.2,-119.13"/>
<polygon fill="gray" stroke="gray" points="431.93,-121.33 434.9,-111.16 426.24,-117.26 431.93,-121.33"/>
</g>
<!-- 20462&#45;&gt;20944 -->
<g id="edge46" class="edge">
<title>20462&#45;&gt;20944</title>
<path fill="none" stroke="gray" d="M1234.84,-221.18C1201.95,-210.98 1158.34,-197.46 1122.33,-186.3"/>
<polygon fill="gray" stroke="gray" points="1123.45,-182.98 1112.86,-183.36 1121.37,-189.67 1123.45,-182.98"/>
</g>
<!-- 20900 -->
<g id="node27" class="node">
<title>20900</title>
<g id="a_node27"><a xlink:href="https://www.openu.ac.il/courses/20900.htm" xlink:title="20900">
<polygon fill="#f0f0f0" stroke="black" points="1328.25,-146.5 1328.25,-182.5 1426.25,-182.5 1426.25,-146.5 1328.25,-146.5"/>
<text text-anchor="start" x="1336.25" y="-158.3" font-family="Arial" font-size="16.00">נומרית 2</text>
<polyline fill="none" stroke="black" points="1400.5,-146.5 1400.5,-182.5"/>
<text text-anchor="start" x="1408.5" y="-159.47" font-family="Arial" font-weight="bold" font-size="17.00">4</text>
</a>
</g>
</g>
<!-- 20462&#45;&gt;20900 -->
<g id="edge45" class="edge">
<title>20462&#45;&gt;20900</title>
<path fill="none" stroke="gray" d="M1306.76,-219.31C1318.44,-210.4 1332.9,-199.36 1345.68,-189.6"/>
<polygon fill="gray" stroke="gray" points="1347.59,-192.54 1353.42,-183.69 1343.35,-186.98 1347.59,-192.54"/>
</g>
<!-- 20906&#45;&gt;20905 -->
<g id="edge47" class="edge">
<title>20906&#45;&gt;20905</title>
<path fill="none" stroke="gray" d="M89.57,-146.18C108.11,-125.07 142.55,-90.09 180.25,-73 233.91,-48.67 394.82,-32.42 489.16,-24.7"/>
<polygon fill="gray" stroke="gray" points="489.41,-28.19 499.1,-23.9 488.85,-21.22 489.41,-28.19"/>
</g>
<!-- 20364&#45;&gt;20905 -->
<g id="edge48" class="edge">
<title>20364&#45;&gt;20905</title>
<path fill="none" stroke="gray" d="M868.56,-75C865.76,-74.3 862.98,-73.63 860.25,-73 782.46,-55.13 692.17,-39.74 631.13,-30.12"/>
<polygon fill="gray" stroke="gray" points="632,-26.71 621.58,-28.62 630.92,-33.63 632,-26.71"/>
</g>
</g>
</svg>
