<?xml version="1.0" encoding="UTF-8" standalone="no"?>
<!DOCTYPE svg PUBLIC "-//W3C//DTD SVG 1.1//EN"
 "http://www.w3.org/Graphics/SVG/1.1/DTD/svg11.dtd">
<!-- Generated by graphviz version 12.0.0 (20240704.0754)
 -->
<!-- Title: CoursesDiagram Pages: 1 -->
<svg width="1114pt" height="491pt"
 viewBox="0.00 0.00 1113.88 491.00" xmlns="http://www.w3.org/2000/svg" xmlns:xlink="http://www.w3.org/1999/xlink">
<g id="graph0" class="graph" transform="scale(1 1) rotate(0) translate(4 487)">
<title>CoursesDiagram</title>
<polygon fill="white" stroke="none" points="-4,4 -4,-487 1109.88,-487 1109.88,4 -4,4"/>
<!-- 20476 -->
<g id="node1" class="node">
<title>20476</title>
<g id="a_node1"><a xlink:href="https://www.openu.ac.il/courses/20476.htm" xlink:title="בדידה">
<polygon fill="#fff2cc" stroke="#916f0c" points="801.5,-411 747.5,-411 747.5,-375 801.5,-375 801.5,-411"/>
<text text-anchor="middle" x="774.5" y="-387.95" font-family="Arial" font-size="14.00">בדידה</text>
</a>
</g>
</g>
<!-- 20407 -->
<g id="node7" class="node">
<title>20407</title>
<g id="a_node7"><a xlink:href="https://www.openu.ac.il/courses/20407.htm" xlink:title="מבני נתונים ומ&#39; לאלגוריתמים">
<polygon fill="#d6ddff" stroke="#0d32b2" points="471,-339 302,-339 302,-303 471,-303 471,-339"/>
<text text-anchor="middle" x="386.5" y="-315.95" font-family="Arial" font-size="14.00">מבני נתונים ומ&#39; לאלגוריתמים</text>
</a>
</g>
</g>
<!-- 20476&#45;&gt;20407 -->
<g id="edge22" class="edge">
<title>20476&#45;&gt;20407</title>
<path fill="none" stroke="gray" d="M747.22,-387.08C693.1,-377.31 569.85,-355.08 482.52,-339.32"/>
<polygon fill="gray" stroke="gray" points="483.21,-335.89 472.75,-337.56 481.97,-342.78 483.21,-335.89"/>
</g>
<!-- 20466 -->
<g id="node14" class="node">
<title>20466</title>
<g id="a_node14"><a xlink:href="https://www.openu.ac.il/courses/20466.htm" xlink:title="לוגיקה למדמח">
<polygon fill="#d6ddff" stroke="#0d32b2" points="914.12,-339 820.88,-339 820.88,-303 914.12,-303 914.12,-339"/>
<text text-anchor="middle" x="867.5" y="-315.95" font-family="Arial" font-size="14.00">לוגיקה למדמח</text>
</a>
</g>
</g>
<!-- 20476&#45;&gt;20466 -->
<g id="edge8" class="edge">
<title>20476&#45;&gt;20466</title>
<path fill="none" stroke="gray" d="M797.49,-374.7C808.89,-366.11 822.85,-355.61 835.3,-346.24"/>
<polygon fill="gray" stroke="gray" points="837.36,-349.07 843.24,-340.26 833.15,-343.47 837.36,-349.07"/>
</g>
<!-- 20474 -->
<g id="node2" class="node">
<title>20474</title>
<g id="a_node2"><a xlink:href="https://www.openu.ac.il/courses/20474.htm" xlink:title="אינפי 1">
<polygon fill="#fff2cc" stroke="#916f0c" points="1089,-483 1034,-483 1034,-447 1089,-447 1089,-483"/>
<text text-anchor="middle" x="1061.5" y="-459.95" font-family="Arial" font-size="14.00">אינפי 1</text>
</a>
</g>
</g>
<!-- 20475 -->
<g id="node3" class="node">
<title>20475</title>
<g id="a_node3"><a xlink:href="https://www.openu.ac.il/courses/20475.htm" xlink:title="אינפי 2">
<polygon fill="#fff2cc" stroke="#916f0c" points="1089,-411 1034,-411 1034,-375 1089,-375 1089,-411"/>
<text text-anchor="middle" x="1061.5" y="-387.95" font-family="Arial" font-size="14.00">אינפי 2</text>
</a>
</g>
</g>
<!-- 20474&#45;&gt;20475 -->
<g id="edge5" class="edge">
<title>20474&#45;&gt;20475</title>
<path fill="none" stroke="gray" d="M1061.5,-446.7C1061.5,-439.41 1061.5,-430.73 1061.5,-422.54"/>
<polygon fill="gray" stroke="gray" points="1065,-422.62 1061.5,-412.62 1058,-422.62 1065,-422.62"/>
</g>
<!-- 20425 -->
<g id="node6" class="node">
<title>20425</title>
<g id="a_node6"><a xlink:href="https://www.openu.ac.il/courses/20425.htm" xlink:title="מ&#39; הסתברות&#45;סטטיסטיקה ">
<polygon fill="#fff2cc" stroke="#916f0c" points="1086.88,-339 932.12,-339 932.12,-303 1086.88,-303 1086.88,-339"/>
<text text-anchor="middle" x="1009.5" y="-315.95" font-family="Arial" font-size="14.00">מ&#39; הסתברות&#45;סטטיסטיקה </text>
</a>
</g>
</g>
<!-- 20475&#45;&gt;20425 -->
<g id="edge6" class="edge">
<title>20475&#45;&gt;20425</title>
<path fill="none" stroke="gray" d="M1048.65,-374.7C1042.73,-366.73 1035.57,-357.1 1029.01,-348.26"/>
<polygon fill="gray" stroke="gray" points="1031.88,-346.26 1023.11,-340.32 1026.26,-350.43 1031.88,-346.26"/>
</g>
<!-- 20462 -->
<g id="node26" class="node">
<title>20462</title>
<g id="a_node26"><a xlink:href="https://www.openu.ac.il/courses/20462.htm" xlink:title="נומרית 1">
<polygon fill="#f0f0f0" stroke="black" points="997.5,-264.5 933.5,-264.5 933.5,-228.5 997.5,-228.5 997.5,-264.5"/>
<text text-anchor="middle" x="965.5" y="-241.45" font-family="Arial" font-size="14.00">נומרית 1</text>
</a>
</g>
</g>
<!-- 20475&#45;&gt;20462 -->
<g id="edge31" class="edge">
<title>20475&#45;&gt;20462</title>
<path fill="none" stroke="gray" d="M1077.31,-374.55C1092.29,-355.8 1110.45,-325.64 1095.5,-303 1076.37,-274.04 1038.7,-260.14 1008.81,-253.5"/>
<polygon fill="gray" stroke="gray" points="1009.77,-250.12 999.28,-251.59 1008.4,-256.98 1009.77,-250.12"/>
</g>
<!-- 20109 -->
<g id="node4" class="node">
<title>20109</title>
<g id="a_node4"><a xlink:href="https://www.openu.ac.il/courses/20109.htm" xlink:title="לינארית 1">
<polygon fill="#fff2cc" stroke="#916f0c" points="764.88,-339 694.12,-339 694.12,-303 764.88,-303 764.88,-339"/>
<text text-anchor="middle" x="729.5" y="-315.95" font-family="Arial" font-size="14.00">לינארית 1</text>
</a>
</g>
</g>
<!-- 20229 -->
<g id="node5" class="node">
<title>20229</title>
<g id="a_node5"><a xlink:href="https://www.openu.ac.il/courses/20229.htm" xlink:title="לינארית 2">
<polygon fill="#fff2cc" stroke="#916f0c" points="811.88,-264.5 741.12,-264.5 741.12,-228.5 811.88,-228.5 811.88,-264.5"/>
<text text-anchor="middle" x="776.5" y="-241.45" font-family="Arial" font-size="14.00">לינארית 2</text>
</a>
</g>
</g>
<!-- 20109&#45;&gt;20229 -->
<g id="edge13" class="edge">
<title>20109&#45;&gt;20229</title>
<path fill="none" stroke="gray" d="M740.64,-302.82C746.2,-294.24 753.05,-283.67 759.27,-274.08"/>
<polygon fill="gray" stroke="gray" points="762.12,-276.12 764.62,-265.83 756.24,-272.32 762.12,-276.12"/>
</g>
<!-- 20417 -->
<g id="node12" class="node">
<title>20417</title>
<g id="a_node12"><a xlink:href="https://www.openu.ac.il/courses/20417.htm" xlink:title="אלגוריתמים">
<polygon fill="#d6ddff" stroke="#0d32b2" points="723,-264.5 644,-264.5 644,-228.5 723,-228.5 723,-264.5"/>
<text text-anchor="middle" x="683.5" y="-241.45" font-family="Arial" font-size="14.00">אלגוריתמים</text>
</a>
</g>
</g>
<!-- 20109&#45;&gt;20417 -->
<g id="edge15" class="edge">
<title>20109&#45;&gt;20417</title>
<path fill="none" stroke="gray" d="M718.6,-302.82C713.16,-294.24 706.45,-283.67 700.36,-274.08"/>
<polygon fill="gray" stroke="gray" points="703.45,-272.4 695.13,-265.84 697.54,-276.16 703.45,-272.4"/>
</g>
<!-- 20296 -->
<g id="node19" class="node">
<title>20296</title>
<g id="a_node19"><a xlink:href="https://www.openu.ac.il/courses/20296.htm" xlink:title="תורת הקודים">
<polygon fill="#f0f0f0" stroke="black" points="915.38,-264.5 829.62,-264.5 829.62,-228.5 915.38,-228.5 915.38,-264.5"/>
<text text-anchor="middle" x="872.5" y="-241.45" font-family="Arial" font-size="14.00">תורת הקודים</text>
</a>
</g>
</g>
<!-- 20109&#45;&gt;20296 -->
<g id="edge12" class="edge">
<title>20109&#45;&gt;20296</title>
<path fill="none" stroke="gray" d="M763.75,-302.63C782.98,-292.89 807.19,-280.61 827.88,-270.12"/>
<polygon fill="gray" stroke="gray" points="829.35,-273.3 836.68,-265.66 826.18,-267.06 829.35,-273.3"/>
</g>
<!-- 20109&#45;&gt;20462 -->
<g id="edge32" class="edge">
<title>20109&#45;&gt;20462</title>
<path fill="none" stroke="gray" d="M765.24,-307.18C769.68,-305.71 774.18,-304.28 778.5,-303 839.33,-284.99 859.51,-288.98 922.58,-267.35"/>
<polygon fill="gray" stroke="gray" points="923.38,-270.77 931.65,-264.15 921.06,-264.17 923.38,-270.77"/>
</g>
<!-- 20562 -->
<g id="node29" class="node">
<title>20562</title>
<g id="a_node29"><a xlink:href="https://www.openu.ac.il/courses/20562.htm" xlink:title="גרפיקה ממוחשבת">
<polygon fill="#f0f0f0" stroke="black" points="549.25,-264.5 435.75,-264.5 435.75,-228.5 549.25,-228.5 549.25,-264.5"/>
<text text-anchor="middle" x="492.5" y="-241.45" font-family="Arial" font-size="14.00">גרפיקה ממוחשבת</text>
</a>
</g>
</g>
<!-- 20109&#45;&gt;20562 -->
<g id="edge36" class="edge">
<title>20109&#45;&gt;20562</title>
<path fill="none" stroke="gray" d="M693.76,-309.07C658.48,-298.27 603.63,-281.5 560.1,-268.18"/>
<polygon fill="gray" stroke="gray" points="561.33,-264.9 550.75,-265.32 559.29,-271.59 561.33,-264.9"/>
</g>
<!-- 20944 -->
<g id="node24" class="node">
<title>20944</title>
<g id="a_node24"><a xlink:href="https://www.openu.ac.il/courses/20944.htm" xlink:title="רובוטיקה\nאלגוריתמית">
<polygon fill="#f0f0f0" stroke="black" points="817.38,-190 737.62,-190 737.62,-149 817.38,-149 817.38,-190"/>
<text text-anchor="middle" x="777.5" y="-172.7" font-family="Arial" font-size="14.00">רובוטיקה</text>
<text text-anchor="middle" x="777.5" y="-156.2" font-family="Arial" font-size="14.00">אלגוריתמית</text>
</a>
</g>
</g>
<!-- 20229&#45;&gt;20944 -->
<g id="edge49" class="edge">
<title>20229&#45;&gt;20944</title>
<path fill="none" stroke="gray" d="M776.73,-228.1C776.84,-220.28 776.96,-210.8 777.08,-201.81"/>
<polygon fill="gray" stroke="gray" points="780.58,-202.01 777.21,-191.96 773.58,-201.92 780.58,-202.01"/>
</g>
<!-- 20425&#45;&gt;20417 -->
<g id="edge14" class="edge">
<title>20425&#45;&gt;20417</title>
<path fill="none" stroke="gray" d="M931.69,-304.59C928.93,-304.05 926.19,-303.52 923.5,-303 842.16,-287.3 817.47,-290.75 734.38,-267.27"/>
<polygon fill="gray" stroke="gray" points="735.42,-263.92 724.85,-264.52 733.49,-270.65 735.42,-263.92"/>
</g>
<!-- 20942 -->
<g id="node21" class="node">
<title>20942</title>
<g id="a_node21"><a xlink:href="https://www.openu.ac.il/courses/20942.htm" xlink:title="מ&#39; ללמידה חישובית">
<polygon fill="#f0f0f0" stroke="black" points="1105.88,-110.5 987.12,-110.5 987.12,-74.5 1105.88,-74.5 1105.88,-110.5"/>
<text text-anchor="middle" x="1046.5" y="-87.45" font-family="Arial" font-size="14.00">מ&#39; ללמידה חישובית</text>
</a>
</g>
</g>
<!-- 20425&#45;&gt;20942 -->
<g id="edge44" class="edge">
<title>20425&#45;&gt;20942</title>
<path fill="none" stroke="gray" d="M1014.59,-302.94C1017.53,-292.62 1021.1,-279.14 1023.5,-267 1033.51,-216.34 1040.36,-156.47 1043.84,-121.95"/>
<polygon fill="gray" stroke="gray" points="1047.29,-122.66 1044.79,-112.36 1040.32,-121.97 1047.29,-122.66"/>
</g>
<!-- 20471 -->
<g id="node9" class="node">
<title>20471</title>
<g id="a_node9"><a xlink:href="https://www.openu.ac.il/courses/20471.htm" xlink:title="ארגון המחשב">
<polygon fill="#d6ddff" stroke="#0d32b2" points="417.25,-264.5 327.75,-264.5 327.75,-228.5 417.25,-228.5 417.25,-264.5"/>
<text text-anchor="middle" x="372.5" y="-241.45" font-family="Arial" font-size="14.00">ארגון המחשב</text>
</a>
</g>
</g>
<!-- 20407&#45;&gt;20471 -->
<g id="edge25" class="edge">
<title>20407&#45;&gt;20471</title>
<path fill="none" stroke="gray" d="M383.18,-302.82C381.61,-294.69 379.7,-284.78 377.93,-275.6"/>
<polygon fill="gray" stroke="gray" points="381.41,-275.2 376.08,-266.04 374.54,-276.53 381.41,-275.2"/>
</g>
<!-- 20407&#45;&gt;20417 -->
<g id="edge16" class="edge">
<title>20407&#45;&gt;20417</title>
<path fill="none" stroke="gray" d="M458.02,-302.54C511.89,-289.39 584.44,-271.68 632.52,-259.94"/>
<polygon fill="gray" stroke="gray" points="633.24,-263.37 642.13,-257.6 631.58,-256.57 633.24,-263.37"/>
</g>
<!-- 20277 -->
<g id="node22" class="node">
<title>20277</title>
<g id="a_node22"><a xlink:href="https://www.openu.ac.il/courses/20277.htm" xlink:title="מע&#39; בסיסי נתונים">
<polygon fill="#f0f0f0" stroke="black" points="209.5,-264.5 103.5,-264.5 103.5,-228.5 209.5,-228.5 209.5,-264.5"/>
<text text-anchor="middle" x="156.5" y="-241.45" font-family="Arial" font-size="14.00">מע&#39; בסיסי נתונים</text>
</a>
</g>
</g>
<!-- 20407&#45;&gt;20277 -->
<g id="edge9" class="edge">
<title>20407&#45;&gt;20277</title>
<path fill="none" stroke="gray" d="M331.12,-302.54C297.89,-292.07 255.49,-278.7 220.79,-267.77"/>
<polygon fill="gray" stroke="gray" points="221.85,-264.43 211.26,-264.76 219.75,-271.11 221.85,-264.43"/>
</g>
<!-- 20554 -->
<g id="node25" class="node">
<title>20554</title>
<g id="a_node25"><a xlink:href="https://www.openu.ac.il/courses/20554.htm" xlink:title="תכ&#39; מתקדם \n Java">
<polygon fill="#f0f0f0" stroke="black" points="309.88,-267 227.12,-267 227.12,-226 309.88,-226 309.88,-267"/>
<text text-anchor="middle" x="268.5" y="-249.7" font-family="Arial" font-size="14.00">תכ&#39; מתקדם </text>
<text text-anchor="middle" x="268.5" y="-233.2" font-family="Arial" font-size="14.00"> Java</text>
</a>
</g>
</g>
<!-- 20407&#45;&gt;20554 -->
<g id="edge33" class="edge">
<title>20407&#45;&gt;20554</title>
<path fill="none" stroke="gray" d="M358.24,-302.63C343.89,-293.82 326.19,-282.95 310.31,-273.19"/>
<polygon fill="gray" stroke="gray" points="312.34,-270.33 301.99,-268.08 308.68,-276.29 312.34,-270.33"/>
</g>
<!-- 20407&#45;&gt;20562 -->
<g id="edge38" class="edge">
<title>20407&#45;&gt;20562</title>
<path fill="none" stroke="gray" d="M411.89,-302.63C425.56,-293.29 442.62,-281.62 457.52,-271.42"/>
<polygon fill="gray" stroke="gray" points="459.42,-274.36 465.7,-265.83 455.47,-268.59 459.42,-274.36"/>
</g>
<!-- 20906 -->
<g id="node32" class="node">
<title>20906</title>
<g id="a_node32"><a xlink:href="https://www.openu.ac.il/courses/20906.htm" xlink:title="תכ&#39; מונחה עצמים">
<polygon fill="#f0f0f0" stroke="black" points="109,-187.5 0,-187.5 0,-151.5 109,-151.5 109,-187.5"/>
<text text-anchor="middle" x="54.5" y="-164.45" font-family="Arial" font-size="14.00">תכ&#39; מונחה עצמים</text>
</a>
</g>
</g>
<!-- 20407&#45;&gt;20906 -->
<g id="edge41" class="edge">
<title>20407&#45;&gt;20906</title>
<path fill="none" stroke="gray" d="M301.6,-313.57C227.04,-306.35 125.73,-292.19 94.5,-267 73.68,-250.21 63.57,-220.73 58.74,-198.76"/>
<polygon fill="gray" stroke="gray" points="62.24,-198.4 56.91,-189.25 55.37,-199.73 62.24,-198.4"/>
</g>
<!-- 20905 -->
<g id="node8" class="node">
<title>20905</title>
<g id="a_node8"><a xlink:href="https://www.openu.ac.il/courses/20905.htm" xlink:title="שפות תכנות">
<polygon fill="#d6ddff" stroke="#0d32b2" points="455.5,-36 373.5,-36 373.5,0 455.5,0 455.5,-36"/>
<text text-anchor="middle" x="414.5" y="-12.95" font-family="Arial" font-size="14.00">שפות תכנות</text>
</a>
</g>
</g>
<!-- 20594 -->
<g id="node15" class="node">
<title>20594</title>
<g id="a_node15"><a xlink:href="https://www.openu.ac.il/courses/20594.htm" xlink:title="מע&#39; הפעלה">
<polygon fill="#d6ddff" stroke="#0d32b2" points="419.88,-187.5 343.12,-187.5 343.12,-151.5 419.88,-151.5 419.88,-187.5"/>
<text text-anchor="middle" x="381.5" y="-164.45" font-family="Arial" font-size="14.00">מע&#39; הפעלה</text>
</a>
</g>
</g>
<!-- 20471&#45;&gt;20594 -->
<g id="edge11" class="edge">
<title>20471&#45;&gt;20594</title>
<path fill="none" stroke="gray" d="M374.59,-228.1C375.62,-219.49 376.9,-208.87 378.07,-199.1"/>
<polygon fill="gray" stroke="gray" points="381.53,-199.65 379.24,-189.3 374.58,-198.82 381.53,-199.65"/>
</g>
<!-- 20441 -->
<g id="node10" class="node">
<title>20441</title>
<g id="a_node10"><a xlink:href="https://www.openu.ac.il/courses/20441.htm" xlink:title="מבוא Java">
<polygon fill="#d6ddff" stroke="#0d32b2" points="589.5,-411 513.5,-411 513.5,-375 589.5,-375 589.5,-411"/>
<text text-anchor="middle" x="551.5" y="-387.95" font-family="Arial" font-size="14.00">מבוא Java</text>
</a>
</g>
</g>
<!-- 20441&#45;&gt;20407 -->
<g id="edge1" class="edge">
<title>20441&#45;&gt;20407</title>
<path fill="none" stroke="gray" d="M513.23,-375.76C490.92,-366.3 462.49,-354.24 438.21,-343.94"/>
<polygon fill="gray" stroke="gray" points="439.7,-340.77 429.13,-340.09 436.97,-347.21 439.7,-340.77"/>
</g>
<!-- 20465 -->
<g id="node11" class="node">
<title>20465</title>
<g id="a_node11"><a xlink:href="https://www.openu.ac.il/courses/20465.htm" xlink:title="מעבדה בתכנות">
<polygon fill="#d6ddff" stroke="#0d32b2" points="601.12,-339 501.88,-339 501.88,-303 601.12,-303 601.12,-339"/>
<text text-anchor="middle" x="551.5" y="-315.95" font-family="Arial" font-size="14.00">מעבדה בתכנות</text>
</a>
</g>
</g>
<!-- 20441&#45;&gt;20465 -->
<g id="edge3" class="edge">
<title>20441&#45;&gt;20465</title>
<path fill="none" stroke="gray" d="M551.5,-374.7C551.5,-367.41 551.5,-358.73 551.5,-350.54"/>
<polygon fill="gray" stroke="gray" points="555,-350.62 551.5,-340.62 548,-350.62 555,-350.62"/>
</g>
<!-- 20441&#45;&gt;20462 -->
<g id="edge30" class="edge">
<title>20441&#45;&gt;20462</title>
<path fill="none" stroke="gray" d="M589.77,-388.94C635.81,-383.93 714.27,-371.08 773.5,-339 793.96,-327.92 791.47,-314.83 811.5,-303 853.96,-277.93 872.97,-285.21 922.35,-267.48"/>
<polygon fill="gray" stroke="gray" points="923.48,-270.8 931.59,-263.98 921,-264.25 923.48,-270.8"/>
</g>
<!-- 20465&#45;&gt;20471 -->
<g id="edge2" class="edge">
<title>20465&#45;&gt;20471</title>
<path fill="none" stroke="gray" d="M508.63,-302.63C483.9,-292.62 452.59,-279.94 426.23,-269.26"/>
<polygon fill="gray" stroke="gray" points="427.63,-266.05 417.05,-265.54 425,-272.54 427.63,-266.05"/>
</g>
<!-- 20946 -->
<g id="node18" class="node">
<title>20946</title>
<g id="a_node18"><a xlink:href="https://www.openu.ac.il/courses/20946.htm" xlink:title="מ&#39; לבדיקות\nתוכנה">
<polygon fill="#f0f0f0" stroke="black" points="625.12,-113 549.88,-113 549.88,-72 625.12,-72 625.12,-113"/>
<text text-anchor="middle" x="587.5" y="-95.7" font-family="Arial" font-size="14.00">מ&#39; לבדיקות</text>
<text text-anchor="middle" x="587.5" y="-79.2" font-family="Arial" font-size="14.00">תוכנה</text>
</a>
</g>
</g>
<!-- 20465&#45;&gt;20946 -->
<g id="edge23" class="edge">
<title>20465&#45;&gt;20946</title>
<path fill="none" stroke="gray" d="M554.27,-302.6C560.34,-264.4 574.9,-172.76 582.58,-124.48"/>
<polygon fill="gray" stroke="gray" points="586.02,-125.11 584.13,-114.69 579.11,-124.01 586.02,-125.11"/>
</g>
<!-- 20465&#45;&gt;20562 -->
<g id="edge37" class="edge">
<title>20465&#45;&gt;20562</title>
<path fill="none" stroke="gray" d="M537.52,-302.82C530.39,-294.06 521.57,-283.23 513.64,-273.47"/>
<polygon fill="gray" stroke="gray" points="516.36,-271.28 507.34,-265.73 510.93,-275.7 516.36,-271.28"/>
</g>
<!-- 20364 -->
<g id="node33" class="node">
<title>20364</title>
<g id="a_node33"><a xlink:href="https://www.openu.ac.il/courses/20364.htm" xlink:title="קומפילציה">
<polygon fill="#f0f0f0" stroke="black" points="713.5,-110.5 643.5,-110.5 643.5,-74.5 713.5,-74.5 713.5,-110.5"/>
<text text-anchor="middle" x="678.5" y="-87.45" font-family="Arial" font-size="14.00">קומפילציה</text>
</a>
</g>
</g>
<!-- 20465&#45;&gt;20364 -->
<g id="edge24" class="edge">
<title>20465&#45;&gt;20364</title>
<path fill="none" stroke="gray" d="M559.7,-302.57C578.85,-261.91 625.61,-163.14 634.5,-149 640.81,-138.96 648.62,-128.6 655.89,-119.59"/>
<polygon fill="gray" stroke="gray" points="658.55,-121.87 662.23,-111.93 653.16,-117.4 658.55,-121.87"/>
</g>
<!-- 20604 -->
<g id="node13" class="node">
<title>20604</title>
<g id="a_node13"><a xlink:href="https://www.openu.ac.il/courses/20604.htm" xlink:title="מודלים חישוביים">
<polygon fill="#d6ddff" stroke="#0d32b2" points="937.62,-187.5 835.38,-187.5 835.38,-151.5 937.62,-151.5 937.62,-187.5"/>
<text text-anchor="middle" x="886.5" y="-164.45" font-family="Arial" font-size="14.00">מודלים חישוביים</text>
</a>
</g>
</g>
<!-- 20417&#45;&gt;20604 -->
<g id="edge17" class="edge">
<title>20417&#45;&gt;20604</title>
<path fill="none" stroke="gray" d="M723.3,-229.53C726.41,-228.33 729.5,-227.14 732.5,-226 763.25,-214.34 797.67,-201.89 826.15,-191.73"/>
<polygon fill="gray" stroke="gray" points="827.08,-195.12 835.33,-188.47 824.74,-188.52 827.08,-195.12"/>
</g>
<!-- 20595 -->
<g id="node17" class="node">
<title>20595</title>
<g id="a_node17"><a xlink:href="https://www.openu.ac.il/courses/20595.htm" xlink:title="כריית מידע">
<polygon fill="#f0f0f0" stroke="black" points="719.12,-187.5 643.88,-187.5 643.88,-151.5 719.12,-151.5 719.12,-187.5"/>
<text text-anchor="middle" x="681.5" y="-164.45" font-family="Arial" font-size="14.00">כריית מידע</text>
</a>
</g>
</g>
<!-- 20417&#45;&gt;20595 -->
<g id="edge18" class="edge">
<title>20417&#45;&gt;20595</title>
<path fill="none" stroke="gray" d="M683.04,-228.1C682.81,-219.49 682.52,-208.87 682.26,-199.1"/>
<polygon fill="gray" stroke="gray" points="685.77,-199.22 682,-189.31 678.77,-199.4 685.77,-199.22"/>
</g>
<!-- 20582 -->
<g id="node23" class="node">
<title>20582</title>
<g id="a_node23"><a xlink:href="https://www.openu.ac.il/courses/20582.htm" xlink:title="מ&#39; לרשתות ת&#39;&#39;מ">
<polygon fill="#f0f0f0" stroke="black" points="541,-187.5 438,-187.5 438,-151.5 541,-151.5 541,-187.5"/>
<text text-anchor="middle" x="489.5" y="-164.45" font-family="Arial" font-size="14.00">מ&#39; לרשתות ת&#39;&#39;מ</text>
</a>
</g>
</g>
<!-- 20417&#45;&gt;20582 -->
<g id="edge21" class="edge">
<title>20417&#45;&gt;20582</title>
<path fill="none" stroke="gray" d="M643.77,-230.14C615.29,-219.13 576.54,-204.15 545,-191.96"/>
<polygon fill="gray" stroke="gray" points="546.61,-188.83 536.02,-188.48 544.08,-195.35 546.61,-188.83"/>
</g>
<!-- 20417&#45;&gt;20944 -->
<g id="edge27" class="edge">
<title>20417&#45;&gt;20944</title>
<path fill="none" stroke="gray" d="M705.3,-228.1C716.65,-219.05 730.78,-207.78 743.52,-197.61"/>
<polygon fill="gray" stroke="gray" points="745.68,-200.37 751.31,-191.39 741.31,-194.9 745.68,-200.37"/>
</g>
<!-- 20604&#45;&gt;20946 -->
<g id="edge26" class="edge">
<title>20604&#45;&gt;20946</title>
<path fill="none" stroke="gray" d="M834.91,-151.27C832.08,-150.47 829.26,-149.7 826.5,-149 745.82,-128.42 719.84,-136.98 636.5,-113.26"/>
<polygon fill="gray" stroke="gray" points="637.51,-109.91 626.93,-110.46 635.55,-116.63 637.51,-109.91"/>
</g>
<!-- 20551 -->
<g id="node20" class="node">
<title>20551</title>
<g id="a_node20"><a xlink:href="https://www.openu.ac.il/courses/20551.htm" xlink:title="מ&#39; לבינה\nמלאכותית">
<polygon fill="#f0f0f0" stroke="black" points="937.5,-113 867.5,-113 867.5,-72 937.5,-72 937.5,-113"/>
<text text-anchor="middle" x="902.5" y="-95.7" font-family="Arial" font-size="14.00">מ&#39; לבינה</text>
<text text-anchor="middle" x="902.5" y="-79.2" font-family="Arial" font-size="14.00">מלאכותית</text>
</a>
</g>
</g>
<!-- 20604&#45;&gt;20551 -->
<g id="edge20" class="edge">
<title>20604&#45;&gt;20551</title>
<path fill="none" stroke="gray" d="M890.21,-151.1C891.9,-143.19 893.95,-133.59 895.89,-124.51"/>
<polygon fill="gray" stroke="gray" points="899.26,-125.44 897.93,-114.93 892.42,-123.98 899.26,-125.44"/>
</g>
<!-- 20604&#45;&gt;20942 -->
<g id="edge10" class="edge">
<title>20604&#45;&gt;20942</title>
<path fill="none" stroke="gray" d="M923.61,-151.1C946.05,-140.59 974.87,-127.08 998.97,-115.78"/>
<polygon fill="gray" stroke="gray" points="1000.38,-118.99 1007.94,-111.57 997.4,-112.65 1000.38,-118.99"/>
</g>
<!-- 20580 -->
<g id="node30" class="node">
<title>20580</title>
<g id="a_node30"><a xlink:href="https://www.openu.ac.il/courses/20580.htm" xlink:title="מ&#39; לקריפטוגרפיה">
<polygon fill="#f0f0f0" stroke="black" points="849.88,-110.5 743.12,-110.5 743.12,-74.5 849.88,-74.5 849.88,-110.5"/>
<text text-anchor="middle" x="796.5" y="-87.45" font-family="Arial" font-size="14.00">מ&#39; לקריפטוגרפיה</text>
</a>
</g>
</g>
<!-- 20604&#45;&gt;20580 -->
<g id="edge39" class="edge">
<title>20604&#45;&gt;20580</title>
<path fill="none" stroke="gray" d="M865.63,-151.1C853.81,-141.26 838.85,-128.79 825.87,-117.97"/>
<polygon fill="gray" stroke="gray" points="828.35,-115.48 818.42,-111.77 823.87,-120.86 828.35,-115.48"/>
</g>
<!-- 20604&#45;&gt;20364 -->
<g id="edge42" class="edge">
<title>20604&#45;&gt;20364</title>
<path fill="none" stroke="gray" d="M838,-151.01C803.66,-138.63 757.91,-122.13 724.21,-109.98"/>
<polygon fill="gray" stroke="gray" points="725.74,-106.81 715.15,-106.71 723.37,-113.4 725.74,-106.81"/>
</g>
<!-- 20466&#45;&gt;20604 -->
<g id="edge7" class="edge">
<title>20466&#45;&gt;20604</title>
<path fill="none" stroke="gray" d="M914.55,-304.99C952.66,-292.36 1000.91,-275.11 1006.5,-267 1016.84,-251.99 1016.31,-241.35 1006.5,-226 999.33,-214.78 974.01,-202.33 948.47,-192.07"/>
<polygon fill="gray" stroke="gray" points="949.94,-188.89 939.36,-188.52 947.4,-195.41 949.94,-188.89"/>
</g>
<!-- 20940 -->
<g id="node16" class="node">
<title>20940</title>
<g id="a_node16"><a xlink:href="https://www.openu.ac.il/courses/20940.htm" xlink:title="מ&#39; לאבטחת ה&#39;&#39;ה">
<polygon fill="#f0f0f0" stroke="black" points="532.12,-110.5 426.88,-110.5 426.88,-74.5 532.12,-74.5 532.12,-110.5"/>
<text text-anchor="middle" x="479.5" y="-87.45" font-family="Arial" font-size="14.00">מ&#39; לאבטחת ה&#39;&#39;ה</text>
</a>
</g>
</g>
<!-- 20594&#45;&gt;20940 -->
<g id="edge4" class="edge">
<title>20594&#45;&gt;20940</title>
<path fill="none" stroke="gray" d="M404.23,-151.1C417.22,-141.17 433.7,-128.55 447.93,-117.66"/>
<polygon fill="gray" stroke="gray" points="449.88,-120.58 455.69,-111.72 445.62,-115.02 449.88,-120.58"/>
</g>
<!-- 20937 -->
<g id="node28" class="node">
<title>20937</title>
<g id="a_node28"><a xlink:href="https://www.openu.ac.il/courses/20937.htm" xlink:title="תכ&#39; מע&#39; דפנסיבי">
<polygon fill="#f0f0f0" stroke="black" points="409,-110.5 306,-110.5 306,-74.5 409,-74.5 409,-110.5"/>
<text text-anchor="middle" x="357.5" y="-87.45" font-family="Arial" font-size="14.00">תכ&#39; מע&#39; דפנסיבי</text>
</a>
</g>
</g>
<!-- 20594&#45;&gt;20937 -->
<g id="edge34" class="edge">
<title>20594&#45;&gt;20937</title>
<path fill="none" stroke="gray" d="M375.93,-151.1C373.12,-142.3 369.63,-131.4 366.45,-121.46"/>
<polygon fill="gray" stroke="gray" points="369.88,-120.7 363.5,-112.24 363.21,-122.83 369.88,-120.7"/>
</g>
<!-- 20574 -->
<g id="node34" class="node">
<title>20574</title>
<g id="a_node34"><a xlink:href="https://www.openu.ac.il/courses/20574.htm" xlink:title="מע&#39; נתונים">
<polygon fill="#f0f0f0" stroke="black" points="230.62,-110.5 158.38,-110.5 158.38,-74.5 230.62,-74.5 230.62,-110.5"/>
<text text-anchor="middle" x="194.5" y="-87.45" font-family="Arial" font-size="14.00">מע&#39; נתונים</text>
</a>
</g>
</g>
<!-- 20594&#45;&gt;20574 -->
<g id="edge29" class="edge">
<title>20594&#45;&gt;20574</title>
<path fill="none" stroke="gray" d="M342.75,-152.96C313.37,-141.18 272.86,-124.93 241.61,-112.39"/>
<polygon fill="gray" stroke="gray" points="242.96,-109.17 232.38,-108.69 240.36,-115.66 242.96,-109.17"/>
</g>
<!-- 20436 -->
<g id="node31" class="node">
<title>20436</title>
<g id="a_node31"><a xlink:href="https://www.openu.ac.il/courses/20436.htm" xlink:title="עק&#39; פיתוח מע&#39; מידע">
<polygon fill="#f0f0f0" stroke="black" points="287,-187.5 166,-187.5 166,-151.5 287,-151.5 287,-187.5"/>
<text text-anchor="middle" x="226.5" y="-164.45" font-family="Arial" font-size="14.00">עק&#39; פיתוח מע&#39; מידע</text>
</a>
</g>
</g>
<!-- 20277&#45;&gt;20436 -->
<g id="edge28" class="edge">
<title>20277&#45;&gt;20436</title>
<path fill="none" stroke="gray" d="M172.74,-228.1C181.66,-218.54 192.89,-206.51 202.78,-195.91"/>
<polygon fill="gray" stroke="gray" points="205.06,-198.61 209.32,-188.91 199.94,-193.83 205.06,-198.61"/>
</g>
<!-- 20277&#45;&gt;20574 -->
<g id="edge43" class="edge">
<title>20277&#45;&gt;20574</title>
<path fill="none" stroke="gray" d="M153.79,-228.31C151.34,-208.66 149.25,-175.74 157.5,-149 160.67,-138.71 166.43,-128.57 172.46,-119.83"/>
<polygon fill="gray" stroke="gray" points="175.24,-121.96 178.38,-111.84 169.61,-117.8 175.24,-121.96"/>
</g>
<!-- 20582&#45;&gt;20940 -->
<g id="edge19" class="edge">
<title>20582&#45;&gt;20940</title>
<path fill="none" stroke="gray" d="M487.18,-151.1C486.03,-142.49 484.62,-131.87 483.31,-122.1"/>
<polygon fill="gray" stroke="gray" points="486.8,-121.75 482.01,-112.3 479.86,-122.68 486.8,-121.75"/>
</g>
<!-- 20582&#45;&gt;20937 -->
<g id="edge35" class="edge">
<title>20582&#45;&gt;20937</title>
<path fill="none" stroke="gray" d="M458.88,-151.1C440.73,-140.79 417.49,-127.59 397.85,-116.43"/>
<polygon fill="gray" stroke="gray" points="399.69,-113.45 389.27,-111.55 396.23,-119.53 399.69,-113.45"/>
</g>
<!-- 20554&#45;&gt;20937 -->
<g id="edge40" class="edge">
<title>20554&#45;&gt;20937</title>
<path fill="none" stroke="gray" d="M280.14,-225.63C295.9,-198.71 324.09,-150.55 341.74,-120.41"/>
<polygon fill="gray" stroke="gray" points="344.71,-122.27 346.74,-111.87 338.67,-118.73 344.71,-122.27"/>
</g>
<!-- 20462&#45;&gt;20944 -->
<g id="edge46" class="edge">
<title>20462&#45;&gt;20944</title>
<path fill="none" stroke="gray" d="M933.4,-229.89C930.41,-228.54 927.41,-227.22 924.5,-226 884.82,-209.32 871.72,-206.87 828.51,-190.7"/>
<polygon fill="gray" stroke="gray" points="829.85,-187.46 819.26,-187.19 827.37,-194.01 829.85,-187.46"/>
</g>
<!-- 20900 -->
<g id="node27" class="node">
<title>20900</title>
<g id="a_node27"><a xlink:href="https://www.openu.ac.il/courses/20900.htm" xlink:title="נומרית 2">
<polygon fill="#f0f0f0" stroke="black" points="1019.5,-187.5 955.5,-187.5 955.5,-151.5 1019.5,-151.5 1019.5,-187.5"/>
<text text-anchor="middle" x="987.5" y="-164.45" font-family="Arial" font-size="14.00">נומרית 2</text>
</a>
</g>
</g>
<!-- 20462&#45;&gt;20900 -->
<g id="edge45" class="edge">
<title>20462&#45;&gt;20900</title>
<path fill="none" stroke="gray" d="M970.6,-228.1C973.16,-219.4 976.31,-208.63 979.21,-198.78"/>
<polygon fill="gray" stroke="gray" points="982.54,-199.83 982,-189.25 975.83,-197.86 982.54,-199.83"/>
</g>
<!-- 20906&#45;&gt;20905 -->
<g id="edge47" class="edge">
<title>20906&#45;&gt;20905</title>
<path fill="none" stroke="gray" d="M66.42,-151.12C82.56,-129.04 113.51,-91.44 149.5,-72 216.94,-35.57 306.24,-24.05 362.02,-20.49"/>
<polygon fill="gray" stroke="gray" points="362.1,-23.99 371.88,-19.93 361.7,-17 362.1,-23.99"/>
</g>
<!-- 20364&#45;&gt;20905 -->
<g id="edge48" class="edge">
<title>20364&#45;&gt;20905</title>
<path fill="none" stroke="gray" d="M643.18,-75.19C640.27,-74.05 637.35,-72.97 634.5,-72 578.37,-52.97 511.99,-37.97 466.93,-28.85"/>
<polygon fill="gray" stroke="gray" points="467.65,-25.42 457.16,-26.9 466.28,-32.29 467.65,-25.42"/>
</g>
</g>
</svg>
