<?xml version="1.0" encoding="UTF-8" standalone="no"?>
<!DOCTYPE svg PUBLIC "-//W3C//DTD SVG 1.1//EN"
 "http://www.w3.org/Graphics/SVG/1.1/DTD/svg11.dtd">
<!-- Generated by graphviz version 12.0.0 (20240704.0754)
 -->
<!-- Title: CS_Course_Dependencies Pages: 1 -->
<svg width="1875pt" height="483pt"
 viewBox="0.00 0.00 1875.25 483.00" xmlns="http://www.w3.org/2000/svg" xmlns:xlink="http://www.w3.org/1999/xlink">
<g id="graph0" class="graph" transform="scale(1 1) rotate(0) translate(4 479)">
<title>CS_Course_Dependencies</title>
<polygon fill="white" stroke="none" points="-4,4 -4,-479 1871.25,-479 1871.25,4 -4,4"/>
<!-- 20476 -->
<g id="node1" class="node">
<title>20476</title>
<g id="a_node1"><a xlink:href="https://www.openu.ac.il/courses/20476.htm" xlink:title="20476">
<polygon fill="#fff2cc" stroke="#916f0c" points="698.88,-365.5 698.88,-401.5 779.62,-401.5 779.62,-365.5 698.88,-365.5"/>
<text text-anchor="start" x="706.88" y="-377.3" font-family="Arial" font-size="16.00">בדידה</text>
<polyline fill="none" stroke="#916f0c" points="753.88,-365.5 753.88,-401.5"/>
<text text-anchor="start" x="761.88" y="-378.48" font-family="Arial" font-weight="bold" font-size="17.00">4</text>
</a>
</g>
</g>
<!-- 20407 -->
<g id="node7" class="node">
<title>20407</title>
<g id="a_node7"><a xlink:href="https://www.openu.ac.il/courses/20407.htm" xlink:title="20407">
<polygon fill="#d6ddff" stroke="#0d32b2" points="530.38,-292.5 530.38,-328.5 752.12,-328.5 752.12,-292.5 530.38,-292.5"/>
<text text-anchor="start" x="538.38" y="-304.3" font-family="Arial" font-size="16.00">מבני נתונים ומ&#39; לאלגוריתמים</text>
<polyline fill="none" stroke="#0d32b2" points="726.38,-292.5 726.38,-328.5"/>
<text text-anchor="start" x="734.38" y="-305.48" font-family="Arial" font-weight="bold" font-size="17.00">5</text>
</a>
</g>
</g>
<!-- 20476&#45;&gt;20407 -->
<g id="edge23" class="edge">
<title>20476&#45;&gt;20407</title>
<path fill="none" stroke="gray" d="M715.28,-365.13C702.94,-356.19 687.7,-345.16 674.27,-335.42"/>
<polygon fill="gray" stroke="gray" points="676.69,-332.86 666.54,-329.82 672.59,-338.52 676.69,-332.86"/>
</g>
<!-- 20466 -->
<g id="node14" class="node">
<title>20466</title>
<g id="a_node14"><a xlink:href="https://www.openu.ac.il/courses/20466.htm" xlink:title="20466">
<polygon fill="#d6ddff" stroke="#0d32b2" points="770,-292.5 770,-328.5 902.5,-328.5 902.5,-292.5 770,-292.5"/>
<text text-anchor="start" x="778" y="-304.3" font-family="Arial" font-size="16.00">לוגיקה למדמח</text>
<polyline fill="none" stroke="#0d32b2" points="876.75,-292.5 876.75,-328.5"/>
<text text-anchor="start" x="884.75" y="-305.48" font-family="Arial" font-weight="bold" font-size="17.00">4</text>
</a>
</g>
</g>
<!-- 20476&#45;&gt;20466 -->
<g id="edge8" class="edge">
<title>20476&#45;&gt;20466</title>
<path fill="none" stroke="gray" d="M762.73,-365.31C775.03,-356.31 790.29,-345.14 803.71,-335.32"/>
<polygon fill="gray" stroke="gray" points="805.43,-338.4 811.43,-329.67 801.29,-332.75 805.43,-338.4"/>
</g>
<!-- 20474 -->
<g id="node2" class="node">
<title>20474</title>
<g id="a_node2"><a xlink:href="https://www.openu.ac.il/courses/20474.htm" xlink:title="20474">
<polygon fill="#fff2cc" stroke="#916f0c" points="1539.88,-438.5 1539.88,-474.5 1626.62,-474.5 1626.62,-438.5 1539.88,-438.5"/>
<text text-anchor="start" x="1547.88" y="-450.3" font-family="Arial" font-size="16.00">אינפי 1</text>
<polyline fill="none" stroke="#916f0c" points="1600.88,-438.5 1600.88,-474.5"/>
<text text-anchor="start" x="1608.88" y="-451.48" font-family="Arial" font-weight="bold" font-size="17.00">7</text>
</a>
</g>
</g>
<!-- 20475 -->
<g id="node3" class="node">
<title>20475</title>
<g id="a_node3"><a xlink:href="https://www.openu.ac.il/courses/20475.htm" xlink:title="20475">
<polygon fill="#fff2cc" stroke="#916f0c" points="1539.88,-365.5 1539.88,-401.5 1626.62,-401.5 1626.62,-365.5 1539.88,-365.5"/>
<text text-anchor="start" x="1547.88" y="-377.3" font-family="Arial" font-size="16.00">אינפי 2</text>
<polyline fill="none" stroke="#916f0c" points="1600.88,-365.5 1600.88,-401.5"/>
<text text-anchor="start" x="1608.88" y="-378.48" font-family="Arial" font-weight="bold" font-size="17.00">7</text>
</a>
</g>
</g>
<!-- 20474&#45;&gt;20475 -->
<g id="edge5" class="edge">
<title>20474&#45;&gt;20475</title>
<path fill="none" stroke="gray" d="M1583.25,-438.31C1583.25,-430.73 1583.25,-421.6 1583.25,-413.04"/>
<polygon fill="gray" stroke="gray" points="1586.75,-413.04 1583.25,-403.04 1579.75,-413.04 1586.75,-413.04"/>
</g>
<!-- 20425 -->
<g id="node6" class="node">
<title>20425</title>
<g id="a_node6"><a xlink:href="https://www.openu.ac.il/courses/20425.htm" xlink:title="20425">
<polygon fill="#fff2cc" stroke="#916f0c" points="1287.38,-292.5 1287.38,-328.5 1485.12,-328.5 1485.12,-292.5 1287.38,-292.5"/>
<text text-anchor="start" x="1295.38" y="-304.3" font-family="Arial" font-size="16.00">מ&#39; הסתברות&#45;סטטיסטיקה</text>
<polyline fill="none" stroke="#916f0c" points="1459.38,-292.5 1459.38,-328.5"/>
<text text-anchor="start" x="1467.38" y="-305.48" font-family="Arial" font-weight="bold" font-size="17.00">5</text>
</a>
</g>
</g>
<!-- 20475&#45;&gt;20425 -->
<g id="edge6" class="edge">
<title>20475&#45;&gt;20425</title>
<path fill="none" stroke="gray" d="M1539.53,-366.74C1511.75,-356.73 1475.44,-343.64 1445.13,-332.72"/>
<polygon fill="gray" stroke="gray" points="1446.7,-329.57 1436.11,-329.47 1444.33,-336.15 1446.7,-329.57"/>
</g>
<!-- 20462 -->
<g id="node26" class="node">
<title>20462</title>
<g id="a_node26"><a xlink:href="https://www.openu.ac.il/courses/20462.htm" xlink:title="20462">
<polygon fill="#f0f0f0" stroke="black" points="1769.25,-219.5 1769.25,-255.5 1867.25,-255.5 1867.25,-219.5 1769.25,-219.5"/>
<text text-anchor="start" x="1777.25" y="-231.3" font-family="Arial" font-size="16.00">נומרית 1</text>
<polyline fill="none" stroke="black" points="1841.5,-219.5 1841.5,-255.5"/>
<text text-anchor="start" x="1849.5" y="-232.47" font-family="Arial" font-weight="bold" font-size="17.00">4</text>
</a>
</g>
</g>
<!-- 20475&#45;&gt;20462 -->
<g id="edge32" class="edge">
<title>20475&#45;&gt;20462</title>
<path fill="none" stroke="gray" d="M1626.9,-370.3C1655.1,-361.3 1691.86,-347.44 1721.25,-329 1749.8,-311.09 1777.41,-284.08 1795.82,-264.23"/>
<polygon fill="gray" stroke="gray" points="1798.2,-266.81 1802.34,-257.06 1793.03,-262.1 1798.2,-266.81"/>
</g>
<!-- 20109 -->
<g id="node4" class="node">
<title>20109</title>
<g id="a_node4"><a xlink:href="https://www.openu.ac.il/courses/20109.htm" xlink:title="20109">
<polygon fill="#fff2cc" stroke="#916f0c" points="1502.88,-292.5 1502.88,-328.5 1607.62,-328.5 1607.62,-292.5 1502.88,-292.5"/>
<text text-anchor="start" x="1510.88" y="-304.3" font-family="Arial" font-size="16.00">לינארית 1</text>
<polyline fill="none" stroke="#916f0c" points="1581.88,-292.5 1581.88,-328.5"/>
<text text-anchor="start" x="1589.88" y="-305.48" font-family="Arial" font-weight="bold" font-size="17.00">7</text>
</a>
</g>
</g>
<!-- 20229 -->
<g id="node5" class="node">
<title>20229</title>
<g id="a_node5"><a xlink:href="https://www.openu.ac.il/courses/20229.htm" xlink:title="20229">
<polygon fill="#fff2cc" stroke="#916f0c" points="1502.88,-219.5 1502.88,-255.5 1607.62,-255.5 1607.62,-219.5 1502.88,-219.5"/>
<text text-anchor="start" x="1510.88" y="-231.3" font-family="Arial" font-size="16.00">לינארית 2</text>
<polyline fill="none" stroke="#916f0c" points="1581.88,-219.5 1581.88,-255.5"/>
<text text-anchor="start" x="1589.88" y="-232.47" font-family="Arial" font-weight="bold" font-size="17.00">5</text>
</a>
</g>
</g>
<!-- 20109&#45;&gt;20229 -->
<g id="edge14" class="edge">
<title>20109&#45;&gt;20229</title>
<path fill="none" stroke="gray" d="M1555.25,-292.31C1555.25,-284.73 1555.25,-275.6 1555.25,-267.04"/>
<polygon fill="gray" stroke="gray" points="1558.75,-267.04 1555.25,-257.04 1551.75,-267.04 1558.75,-267.04"/>
</g>
<!-- 20417 -->
<g id="node12" class="node">
<title>20417</title>
<g id="a_node12"><a xlink:href="https://www.openu.ac.il/courses/20417.htm" xlink:title="20417">
<polygon fill="#d6ddff" stroke="#0d32b2" points="1187.25,-219.5 1187.25,-255.5 1303.25,-255.5 1303.25,-219.5 1187.25,-219.5"/>
<text text-anchor="start" x="1195.25" y="-231.3" font-family="Arial" font-size="16.00">אלגוריתמים</text>
<polyline fill="none" stroke="#0d32b2" points="1277.5,-219.5 1277.5,-255.5"/>
<text text-anchor="start" x="1285.5" y="-232.47" font-family="Arial" font-weight="bold" font-size="17.00">5</text>
</a>
</g>
</g>
<!-- 20109&#45;&gt;20417 -->
<g id="edge16" class="edge">
<title>20109&#45;&gt;20417</title>
<path fill="none" stroke="gray" d="M1502.42,-294.05C1499.66,-293.34 1496.93,-292.65 1494.25,-292 1417.55,-273.45 1394.58,-274.31 1314.77,-256.49"/>
<polygon fill="gray" stroke="gray" points="1315.67,-253.11 1305.14,-254.31 1314.12,-259.94 1315.67,-253.11"/>
</g>
<!-- 20296 -->
<g id="node19" class="node">
<title>20296</title>
<g id="a_node19"><a xlink:href="https://www.openu.ac.il/courses/20296.htm" xlink:title="20296">
<polygon fill="#f0f0f0" stroke="black" points="1625.38,-219.5 1625.38,-255.5 1751.12,-255.5 1751.12,-219.5 1625.38,-219.5"/>
<text text-anchor="start" x="1633.38" y="-231.3" font-family="Arial" font-size="16.00">תורת הקודים</text>
<polyline fill="none" stroke="black" points="1725.38,-219.5 1725.38,-255.5"/>
<text text-anchor="start" x="1733.38" y="-232.47" font-family="Arial" font-weight="bold" font-size="17.00">4</text>
</a>
</g>
</g>
<!-- 20109&#45;&gt;20296 -->
<g id="edge13" class="edge">
<title>20109&#45;&gt;20296</title>
<path fill="none" stroke="gray" d="M1587.79,-292.13C1605.18,-282.85 1626.8,-271.3 1645.53,-261.31"/>
<polygon fill="gray" stroke="gray" points="1647.08,-264.45 1654.25,-256.65 1643.78,-258.27 1647.08,-264.45"/>
</g>
<!-- 20942 -->
<g id="node21" class="node">
<title>20942</title>
<g id="a_node21"><a xlink:href="https://www.openu.ac.il/courses/20942.htm" xlink:title="20942">
<polygon fill="#f0f0f0" stroke="black" points="1321.25,-219.5 1321.25,-255.5 1485.25,-255.5 1485.25,-219.5 1321.25,-219.5"/>
<text text-anchor="start" x="1329.25" y="-231.3" font-family="Arial" font-size="16.00">מ&#39; ללמידה חישובית</text>
<polyline fill="none" stroke="black" points="1459.5,-219.5 1459.5,-255.5"/>
<text text-anchor="start" x="1467.5" y="-232.47" font-family="Arial" font-weight="bold" font-size="17.00">4</text>
</a>
</g>
</g>
<!-- 20109&#45;&gt;20942 -->
<g id="edge10" class="edge">
<title>20109&#45;&gt;20942</title>
<path fill="none" stroke="gray" d="M1518.07,-292.13C1497.82,-282.68 1472.56,-270.88 1450.89,-260.75"/>
<polygon fill="gray" stroke="gray" points="1452.49,-257.64 1441.95,-256.58 1449.53,-263.98 1452.49,-257.64"/>
</g>
<!-- 20109&#45;&gt;20462 -->
<g id="edge33" class="edge">
<title>20109&#45;&gt;20462</title>
<path fill="none" stroke="gray" d="M1608.06,-296.3C1647.04,-286.43 1701.63,-272.32 1758.01,-256.58"/>
<polygon fill="gray" stroke="gray" points="1758.79,-260 1767.47,-253.93 1756.9,-253.26 1758.79,-260"/>
</g>
<!-- 20562 -->
<g id="node29" class="node">
<title>20562</title>
<g id="a_node29"><a xlink:href="https://www.openu.ac.il/courses/20562.htm" xlink:title="20562">
<polygon fill="#f0f0f0" stroke="black" points="1013.38,-219.5 1013.38,-255.5 1169.12,-255.5 1169.12,-219.5 1013.38,-219.5"/>
<text text-anchor="start" x="1021.38" y="-231.3" font-family="Arial" font-size="16.00">גרפיקה ממוחשבת</text>
<polyline fill="none" stroke="black" points="1143.38,-219.5 1143.38,-255.5"/>
<text text-anchor="start" x="1151.38" y="-232.47" font-family="Arial" font-weight="bold" font-size="17.00">4</text>
</a>
</g>
</g>
<!-- 20109&#45;&gt;20562 -->
<g id="edge37" class="edge">
<title>20109&#45;&gt;20562</title>
<path fill="none" stroke="gray" d="M1502.48,-293.78C1499.71,-293.14 1496.95,-292.54 1494.25,-292 1359.13,-265.12 1319.87,-277.3 1180.54,-256.27"/>
<polygon fill="gray" stroke="gray" points="1181.36,-252.85 1170.94,-254.79 1180.29,-259.77 1181.36,-252.85"/>
</g>
<!-- 20944 -->
<g id="node24" class="node">
<title>20944</title>
<g id="a_node24"><a xlink:href="https://www.openu.ac.il/courses/20944.htm" xlink:title="20944">
<polygon fill="#f0f0f0" stroke="black" points="1465.75,-146.5 1465.75,-182.5 1644.75,-182.5 1644.75,-146.5 1465.75,-146.5"/>
<text text-anchor="start" x="1473.75" y="-158.3" font-family="Arial" font-size="16.00">רובוטיקה אלגוריתמית</text>
<polyline fill="none" stroke="black" points="1619,-146.5 1619,-182.5"/>
<text text-anchor="start" x="1627" y="-159.47" font-family="Arial" font-weight="bold" font-size="17.00">4</text>
</a>
</g>
</g>
<!-- 20229&#45;&gt;20944 -->
<g id="edge50" class="edge">
<title>20229&#45;&gt;20944</title>
<path fill="none" stroke="gray" d="M1555.25,-219.31C1555.25,-211.73 1555.25,-202.6 1555.25,-194.04"/>
<polygon fill="gray" stroke="gray" points="1558.75,-194.04 1555.25,-184.04 1551.75,-194.04 1558.75,-194.04"/>
</g>
<!-- 20425&#45;&gt;20417 -->
<g id="edge15" class="edge">
<title>20425&#45;&gt;20417</title>
<path fill="none" stroke="gray" d="M1351.76,-292.13C1333.15,-282.76 1309.97,-271.09 1289.99,-261.03"/>
<polygon fill="gray" stroke="gray" points="1291.73,-257.99 1281.23,-256.62 1288.58,-264.24 1291.73,-257.99"/>
</g>
<!-- 20425&#45;&gt;20942 -->
<g id="edge45" class="edge">
<title>20425&#45;&gt;20942</title>
<path fill="none" stroke="gray" d="M1390.37,-292.31C1392.22,-284.55 1394.47,-275.18 1396.56,-266.45"/>
<polygon fill="gray" stroke="gray" points="1399.9,-267.54 1398.82,-257 1393.09,-265.91 1399.9,-267.54"/>
</g>
<!-- 20471 -->
<g id="node9" class="node">
<title>20471</title>
<g id="a_node9"><a xlink:href="https://www.openu.ac.il/courses/20471.htm" xlink:title="20471">
<polygon fill="#d6ddff" stroke="#0d32b2" points="577.62,-219.5 577.62,-255.5 704.88,-255.5 704.88,-219.5 577.62,-219.5"/>
<text text-anchor="start" x="585.62" y="-231.3" font-family="Arial" font-size="16.00">ארגון המחשב</text>
<polyline fill="none" stroke="#0d32b2" points="679.12,-219.5 679.12,-255.5"/>
<text text-anchor="start" x="687.12" y="-232.47" font-family="Arial" font-weight="bold" font-size="17.00">4</text>
</a>
</g>
</g>
<!-- 20407&#45;&gt;20471 -->
<g id="edge26" class="edge">
<title>20407&#45;&gt;20471</title>
<path fill="none" stroke="gray" d="M641.25,-292.31C641.25,-284.73 641.25,-275.6 641.25,-267.04"/>
<polygon fill="gray" stroke="gray" points="644.75,-267.04 641.25,-257.04 637.75,-267.04 644.75,-267.04"/>
</g>
<!-- 20407&#45;&gt;20417 -->
<g id="edge17" class="edge">
<title>20407&#45;&gt;20417</title>
<path fill="none" stroke="gray" d="M752.36,-293.06C755.36,-292.69 758.32,-292.34 761.25,-292 942.42,-270.99 992.97,-286.97 1175.82,-256.25"/>
<polygon fill="gray" stroke="gray" points="1176.15,-259.75 1185.42,-254.61 1174.97,-252.85 1176.15,-259.75"/>
</g>
<!-- 20277 -->
<g id="node22" class="node">
<title>20277</title>
<g id="a_node22"><a xlink:href="https://www.openu.ac.il/courses/20277.htm" xlink:title="20277">
<polygon fill="#f0f0f0" stroke="black" points="136.88,-219.5 136.88,-255.5 283.62,-255.5 283.62,-219.5 136.88,-219.5"/>
<text text-anchor="start" x="144.88" y="-231.3" font-family="Arial" font-size="16.00">מע&#39; בסיסי נתונים</text>
<polyline fill="none" stroke="black" points="257.88,-219.5 257.88,-255.5"/>
<text text-anchor="start" x="265.88" y="-232.47" font-family="Arial" font-weight="bold" font-size="17.00">4</text>
</a>
</g>
</g>
<!-- 20407&#45;&gt;20277 -->
<g id="edge9" class="edge">
<title>20407&#45;&gt;20277</title>
<path fill="none" stroke="gray" d="M535.26,-292.04C461.36,-279.87 364.06,-263.84 295.24,-252.5"/>
<polygon fill="gray" stroke="gray" points="295.95,-249.07 285.52,-250.9 294.81,-255.98 295.95,-249.07"/>
</g>
<!-- 20554 -->
<g id="node25" class="node">
<title>20554</title>
<g id="a_node25"><a xlink:href="https://www.openu.ac.il/courses/20554.htm" xlink:title="20554">
<polygon fill="#f0f0f0" stroke="black" points="310.5,-146.5 310.5,-182.5 464,-182.5 464,-146.5 310.5,-146.5"/>
<text text-anchor="start" x="318.5" y="-158.3" font-family="Arial" font-size="16.00">תכ&#39; מתקדם Java</text>
<polyline fill="none" stroke="black" points="438.25,-146.5 438.25,-182.5"/>
<text text-anchor="start" x="446.25" y="-159.47" font-family="Arial" font-weight="bold" font-size="17.00">4</text>
</a>
</g>
</g>
<!-- 20407&#45;&gt;20554 -->
<g id="edge34" class="edge">
<title>20407&#45;&gt;20554</title>
<path fill="none" stroke="gray" d="M610.61,-292.13C564.94,-266.24 478.93,-217.47 428,-188.6"/>
<polygon fill="gray" stroke="gray" points="429.74,-185.56 419.31,-183.68 426.29,-191.65 429.74,-185.56"/>
</g>
<!-- 20407&#45;&gt;20562 -->
<g id="edge39" class="edge">
<title>20407&#45;&gt;20562</title>
<path fill="none" stroke="gray" d="M751.91,-292.04C828.86,-279.9 930.1,-263.93 1001.92,-252.59"/>
<polygon fill="gray" stroke="gray" points="1002.36,-256.07 1011.69,-251.05 1001.27,-249.15 1002.36,-256.07"/>
</g>
<!-- 20906 -->
<g id="node32" class="node">
<title>20906</title>
<g id="a_node32"><a xlink:href="https://www.openu.ac.il/courses/20906.htm" xlink:title="20906">
<polygon fill="#f0f0f0" stroke="black" points="0,-73.5 0,-109.5 150.5,-109.5 150.5,-73.5 0,-73.5"/>
<text text-anchor="start" x="8" y="-85.3" font-family="Arial" font-size="16.00">תכ&#39; מונחה עצמים</text>
<polyline fill="none" stroke="black" points="124.75,-73.5 124.75,-109.5"/>
<text text-anchor="start" x="132.75" y="-86.47" font-family="Arial" font-weight="bold" font-size="17.00">4</text>
</a>
</g>
</g>
<!-- 20407&#45;&gt;20906 -->
<g id="edge42" class="edge">
<title>20407&#45;&gt;20906</title>
<path fill="none" stroke="gray" d="M530.03,-304.29C388.55,-296.69 158.78,-280.72 128.25,-256 87.55,-223.04 77.74,-158.43 75.6,-121.05"/>
<polygon fill="gray" stroke="gray" points="79.12,-121.31 75.21,-111.46 72.12,-121.6 79.12,-121.31"/>
</g>
<!-- 20905 -->
<g id="node8" class="node">
<title>20905</title>
<g id="a_node8"><a xlink:href="https://www.openu.ac.il/courses/20905.htm" xlink:title="20905">
<polygon fill="#d6ddff" stroke="#0d32b2" points="569.75,-0.5 569.75,-36.5 688.75,-36.5 688.75,-0.5 569.75,-0.5"/>
<text text-anchor="start" x="577.75" y="-12.3" font-family="Arial" font-size="16.00">שפות תכנות</text>
<polyline fill="none" stroke="#0d32b2" points="663,-0.5 663,-36.5"/>
<text text-anchor="start" x="671" y="-13.48" font-family="Arial" font-weight="bold" font-size="17.00">5</text>
</a>
</g>
</g>
<!-- 20594 -->
<g id="node15" class="node">
<title>20594</title>
<g id="a_node15"><a xlink:href="https://www.openu.ac.il/courses/20594.htm" xlink:title="20594">
<polygon fill="#d6ddff" stroke="#0d32b2" points="481.88,-146.5 481.88,-182.5 592.62,-182.5 592.62,-146.5 481.88,-146.5"/>
<text text-anchor="start" x="489.88" y="-158.3" font-family="Arial" font-size="16.00">מע&#39; הפעלה</text>
<polyline fill="none" stroke="#0d32b2" points="566.88,-146.5 566.88,-182.5"/>
<text text-anchor="start" x="574.88" y="-159.47" font-family="Arial" font-weight="bold" font-size="17.00">4</text>
</a>
</g>
</g>
<!-- 20471&#45;&gt;20594 -->
<g id="edge12" class="edge">
<title>20471&#45;&gt;20594</title>
<path fill="none" stroke="gray" d="M615.81,-219.13C602.71,-210.19 586.55,-199.16 572.29,-189.42"/>
<polygon fill="gray" stroke="gray" points="574.27,-186.54 564.04,-183.79 570.32,-192.32 574.27,-186.54"/>
</g>
<!-- 20441 -->
<g id="node10" class="node">
<title>20441</title>
<g id="a_node10"><a xlink:href="https://www.openu.ac.il/courses/20441.htm" xlink:title="20441">
<polygon fill="#d6ddff" stroke="#0d32b2" points="1027.12,-365.5 1027.12,-401.5 1139.38,-401.5 1139.38,-365.5 1027.12,-365.5"/>
<text text-anchor="start" x="1035.12" y="-377.3" font-family="Arial" font-size="16.00">מבוא Java</text>
<polyline fill="none" stroke="#0d32b2" points="1113.62,-365.5 1113.62,-401.5"/>
<text text-anchor="start" x="1121.62" y="-378.48" font-family="Arial" font-weight="bold" font-size="17.00">6</text>
</a>
</g>
</g>
<!-- 20441&#45;&gt;20407 -->
<g id="edge1" class="edge">
<title>20441&#45;&gt;20407</title>
<path fill="none" stroke="gray" d="M1026.82,-373.44C960.16,-362.73 847.4,-344.61 760.99,-330.73"/>
<polygon fill="gray" stroke="gray" points="761.71,-327.31 751.28,-329.18 760.6,-334.22 761.71,-327.31"/>
</g>
<!-- 20465 -->
<g id="node11" class="node">
<title>20465</title>
<g id="a_node11"><a xlink:href="https://www.openu.ac.il/courses/20465.htm" xlink:title="20465">
<polygon fill="#d6ddff" stroke="#0d32b2" points="920.75,-292.5 920.75,-328.5 1057.75,-328.5 1057.75,-292.5 920.75,-292.5"/>
<text text-anchor="start" x="928.75" y="-304.3" font-family="Arial" font-size="16.00">מעבדה בתכנות</text>
<polyline fill="none" stroke="#0d32b2" points="1032,-292.5 1032,-328.5"/>
<text text-anchor="start" x="1040" y="-305.48" font-family="Arial" font-weight="bold" font-size="17.00">4</text>
</a>
</g>
</g>
<!-- 20441&#45;&gt;20465 -->
<g id="edge3" class="edge">
<title>20441&#45;&gt;20465</title>
<path fill="none" stroke="gray" d="M1060.5,-365.31C1048.69,-356.4 1034.07,-345.36 1021.16,-335.6"/>
<polygon fill="gray" stroke="gray" points="1023.42,-332.92 1013.33,-329.69 1019.2,-338.51 1023.42,-332.92"/>
</g>
<!-- 20441&#45;&gt;20942 -->
<g id="edge11" class="edge">
<title>20441&#45;&gt;20942</title>
<path fill="none" stroke="gray" d="M1119.76,-365.16C1158.83,-346.69 1222.69,-316.78 1278.25,-292 1302.17,-281.34 1328.83,-269.87 1351.36,-260.29"/>
<polygon fill="gray" stroke="gray" points="1352.5,-263.62 1360.34,-256.49 1349.77,-257.17 1352.5,-263.62"/>
</g>
<!-- 20441&#45;&gt;20462 -->
<g id="edge31" class="edge">
<title>20441&#45;&gt;20462</title>
<path fill="none" stroke="gray" d="M1139.55,-382.72C1237.94,-381.83 1446.87,-374.17 1616.25,-329 1674.88,-313.37 1738.02,-282.59 1777.82,-261.3"/>
<polygon fill="gray" stroke="gray" points="1779.45,-264.4 1786.57,-256.56 1776.11,-258.24 1779.45,-264.4"/>
</g>
<!-- 20465&#45;&gt;20471 -->
<g id="edge2" class="edge">
<title>20465&#45;&gt;20471</title>
<path fill="none" stroke="gray" d="M920.37,-293.95C917.29,-293.28 914.24,-292.63 911.25,-292 845.56,-278.12 770.64,-263.36 716.42,-252.87"/>
<polygon fill="gray" stroke="gray" points="717.14,-249.44 706.66,-250.98 715.81,-256.32 717.14,-249.44"/>
</g>
<!-- 20946 -->
<g id="node18" class="node">
<title>20946</title>
<g id="a_node18"><a xlink:href="https://www.openu.ac.il/courses/20946.htm" xlink:title="20946">
<polygon fill="#f0f0f0" stroke="black" points="968.5,-73.5 968.5,-109.5 1122,-109.5 1122,-73.5 968.5,-73.5"/>
<text text-anchor="start" x="976.5" y="-85.3" font-family="Arial" font-size="16.00">מ&#39; לבדיקות תוכנה</text>
<polyline fill="none" stroke="black" points="1096.25,-73.5 1096.25,-109.5"/>
<text text-anchor="start" x="1104.25" y="-86.47" font-family="Arial" font-weight="bold" font-size="17.00">4</text>
</a>
</g>
</g>
<!-- 20465&#45;&gt;20946 -->
<g id="edge24" class="edge">
<title>20465&#45;&gt;20946</title>
<path fill="none" stroke="gray" d="M981.35,-292.14C968.43,-260.98 946.56,-194.32 971.25,-146 977.39,-133.98 987.64,-124.04 998.57,-116.12"/>
<polygon fill="gray" stroke="gray" points="1000.21,-119.24 1006.59,-110.78 996.33,-113.41 1000.21,-119.24"/>
</g>
<!-- 20465&#45;&gt;20562 -->
<g id="edge38" class="edge">
<title>20465&#45;&gt;20562</title>
<path fill="none" stroke="gray" d="M1014.2,-292.13C1027.04,-283.19 1042.9,-272.16 1056.88,-262.42"/>
<polygon fill="gray" stroke="gray" points="1058.75,-265.39 1064.96,-256.8 1054.75,-259.64 1058.75,-265.39"/>
</g>
<!-- 20364 -->
<g id="node33" class="node">
<title>20364</title>
<g id="a_node33"><a xlink:href="https://www.openu.ac.il/courses/20364.htm" xlink:title="20364">
<polygon fill="#f0f0f0" stroke="black" points="1139.75,-73.5 1139.75,-109.5 1246.75,-109.5 1246.75,-73.5 1139.75,-73.5"/>
<text text-anchor="start" x="1147.75" y="-85.3" font-family="Arial" font-size="16.00">קומפילציה</text>
<polyline fill="none" stroke="black" points="1221,-73.5 1221,-109.5"/>
<text text-anchor="start" x="1229" y="-86.47" font-family="Arial" font-weight="bold" font-size="17.00">4</text>
</a>
</g>
</g>
<!-- 20465&#45;&gt;20364 -->
<g id="edge25" class="edge">
<title>20465&#45;&gt;20364</title>
<path fill="none" stroke="gray" d="M988.2,-292.05C987.87,-272.68 989.93,-241.22 1004.25,-219 1035.97,-169.79 1094.35,-135.15 1137.87,-114.71"/>
<polygon fill="gray" stroke="gray" points="1139.28,-117.91 1146.93,-110.57 1136.38,-111.54 1139.28,-117.91"/>
</g>
<!-- 20604 -->
<g id="node13" class="node">
<title>20604</title>
<g id="a_node13"><a xlink:href="https://www.openu.ac.il/courses/20604.htm" xlink:title="20604">
<polygon fill="#d6ddff" stroke="#0d32b2" points="771.5,-146.5 771.5,-182.5 919,-182.5 919,-146.5 771.5,-146.5"/>
<text text-anchor="start" x="779.5" y="-158.3" font-family="Arial" font-size="16.00">מודלים חישוביים</text>
<polyline fill="none" stroke="#0d32b2" points="893.25,-146.5 893.25,-182.5"/>
<text text-anchor="start" x="901.25" y="-159.47" font-family="Arial" font-weight="bold" font-size="17.00">5</text>
</a>
</g>
</g>
<!-- 20417&#45;&gt;20604 -->
<g id="edge18" class="edge">
<title>20417&#45;&gt;20604</title>
<path fill="none" stroke="gray" d="M1186.86,-220.9C1183.96,-220.23 1181.07,-219.59 1178.25,-219 1094.53,-201.38 997.89,-186.45 930.36,-176.87"/>
<polygon fill="gray" stroke="gray" points="931.25,-173.46 920.86,-175.53 930.28,-180.39 931.25,-173.46"/>
</g>
<!-- 20595 -->
<g id="node17" class="node">
<title>20595</title>
<g id="a_node17"><a xlink:href="https://www.openu.ac.il/courses/20595.htm" xlink:title="20595">
<polygon fill="#f0f0f0" stroke="black" points="1189.12,-146.5 1189.12,-182.5 1301.38,-182.5 1301.38,-146.5 1189.12,-146.5"/>
<text text-anchor="start" x="1197.12" y="-158.3" font-family="Arial" font-size="16.00">כריית מידע</text>
<polyline fill="none" stroke="black" points="1275.62,-146.5 1275.62,-182.5"/>
<text text-anchor="start" x="1283.62" y="-159.47" font-family="Arial" font-weight="bold" font-size="17.00">4</text>
</a>
</g>
</g>
<!-- 20417&#45;&gt;20595 -->
<g id="edge19" class="edge">
<title>20417&#45;&gt;20595</title>
<path fill="none" stroke="gray" d="M1245.25,-219.31C1245.25,-211.73 1245.25,-202.6 1245.25,-194.04"/>
<polygon fill="gray" stroke="gray" points="1248.75,-194.04 1245.25,-184.04 1241.75,-194.04 1248.75,-194.04"/>
</g>
<!-- 20582 -->
<g id="node23" class="node">
<title>20582</title>
<g id="a_node23"><a xlink:href="https://www.openu.ac.il/courses/20582.htm" xlink:title="20582">
<polygon fill="#f0f0f0" stroke="black" points="611.12,-146.5 611.12,-182.5 753.38,-182.5 753.38,-146.5 611.12,-146.5"/>
<text text-anchor="start" x="619.12" y="-158.3" font-family="Arial" font-size="16.00">מ&#39; לרשתות ת&#39;&#39;מ</text>
<polyline fill="none" stroke="black" points="727.62,-146.5 727.62,-182.5"/>
<text text-anchor="start" x="735.62" y="-159.47" font-family="Arial" font-weight="bold" font-size="17.00">4</text>
</a>
</g>
</g>
<!-- 20417&#45;&gt;20582 -->
<g id="edge22" class="edge">
<title>20417&#45;&gt;20582</title>
<path fill="none" stroke="gray" d="M1186.91,-220.64C1183.99,-220.04 1181.09,-219.49 1178.25,-219 999.03,-188.07 947.76,-209.97 765.06,-183.3"/>
<polygon fill="gray" stroke="gray" points="765.6,-179.84 755.19,-181.83 764.56,-186.77 765.6,-179.84"/>
</g>
<!-- 20417&#45;&gt;20944 -->
<g id="edge28" class="edge">
<title>20417&#45;&gt;20944</title>
<path fill="none" stroke="gray" d="M1303.68,-221.1C1306.58,-220.38 1309.44,-219.67 1312.25,-219 1361.13,-207.24 1415.79,-195.11 1460.88,-185.39"/>
<polygon fill="gray" stroke="gray" points="1461.6,-188.81 1470.64,-183.29 1460.13,-181.97 1461.6,-188.81"/>
</g>
<!-- 20604&#45;&gt;20946 -->
<g id="edge27" class="edge">
<title>20604&#45;&gt;20946</title>
<path fill="none" stroke="gray" d="M894.43,-146.04C921.92,-136.28 956.38,-124.05 985.42,-113.74"/>
<polygon fill="gray" stroke="gray" points="986.58,-117.04 994.83,-110.4 984.24,-110.45 986.58,-117.04"/>
</g>
<!-- 20551 -->
<g id="node20" class="node">
<title>20551</title>
<g id="a_node20"><a xlink:href="https://www.openu.ac.il/courses/20551.htm" xlink:title="20551">
<polygon fill="#f0f0f0" stroke="black" points="788,-73.5 788,-109.5 950.5,-109.5 950.5,-73.5 788,-73.5"/>
<text text-anchor="start" x="796" y="-85.3" font-family="Arial" font-size="16.00">מ&#39; לבינה מלאכותית</text>
<polyline fill="none" stroke="black" points="924.75,-73.5 924.75,-109.5"/>
<text text-anchor="start" x="932.75" y="-86.47" font-family="Arial" font-weight="bold" font-size="17.00">4</text>
</a>
</g>
</g>
<!-- 20604&#45;&gt;20551 -->
<g id="edge21" class="edge">
<title>20604&#45;&gt;20551</title>
<path fill="none" stroke="gray" d="M851.06,-146.31C853.71,-138.46 856.92,-128.97 859.9,-120.16"/>
<polygon fill="gray" stroke="gray" points="863.12,-121.56 863.01,-110.96 856.49,-119.32 863.12,-121.56"/>
</g>
<!-- 20580 -->
<g id="node30" class="node">
<title>20580</title>
<g id="a_node30"><a xlink:href="https://www.openu.ac.il/courses/20580.htm" xlink:title="20580">
<polygon fill="#f0f0f0" stroke="black" points="622.88,-73.5 622.88,-109.5 769.62,-109.5 769.62,-73.5 622.88,-73.5"/>
<text text-anchor="start" x="630.88" y="-85.3" font-family="Arial" font-size="16.00">מ&#39; לקריפטוגרפיה</text>
<polyline fill="none" stroke="black" points="743.88,-73.5 743.88,-109.5"/>
<text text-anchor="start" x="751.88" y="-86.47" font-family="Arial" font-weight="bold" font-size="17.00">4</text>
</a>
</g>
</g>
<!-- 20604&#45;&gt;20580 -->
<g id="edge40" class="edge">
<title>20604&#45;&gt;20580</title>
<path fill="none" stroke="gray" d="M808.8,-146.13C788.96,-136.68 764.19,-124.88 742.95,-114.75"/>
<polygon fill="gray" stroke="gray" points="744.74,-111.73 734.21,-110.59 741.73,-118.05 744.74,-111.73"/>
</g>
<!-- 20604&#45;&gt;20364 -->
<g id="edge43" class="edge">
<title>20604&#45;&gt;20364</title>
<path fill="none" stroke="gray" d="M919.41,-151.52C974.76,-142.14 1052.45,-128.06 1128.8,-110.48"/>
<polygon fill="gray" stroke="gray" points="1129.14,-113.99 1138.08,-108.32 1127.55,-107.18 1129.14,-113.99"/>
</g>
<!-- 20466&#45;&gt;20604 -->
<g id="edge7" class="edge">
<title>20466&#45;&gt;20604</title>
<path fill="none" stroke="gray" d="M837.34,-292.13C838.86,-267.8 841.64,-223.3 843.47,-194.06"/>
<polygon fill="gray" stroke="gray" points="846.94,-194.64 844.07,-184.44 839.95,-194.2 846.94,-194.64"/>
</g>
<!-- 20940 -->
<g id="node16" class="node">
<title>20940</title>
<g id="a_node16"><a xlink:href="https://www.openu.ac.il/courses/20940.htm" xlink:title="20940">
<polygon fill="#f0f0f0" stroke="black" points="461.75,-73.5 461.75,-109.5 604.75,-109.5 604.75,-73.5 461.75,-73.5"/>
<text text-anchor="start" x="469.75" y="-85.3" font-family="Arial" font-size="16.00">מ&#39; לאבטחת ה&#39;&#39;ה</text>
<polyline fill="none" stroke="black" points="579,-73.5 579,-109.5"/>
<text text-anchor="start" x="587" y="-86.47" font-family="Arial" font-weight="bold" font-size="17.00">4</text>
</a>
</g>
</g>
<!-- 20594&#45;&gt;20940 -->
<g id="edge4" class="edge">
<title>20594&#45;&gt;20940</title>
<path fill="none" stroke="gray" d="M536.28,-146.31C535.85,-138.64 535.33,-129.39 534.84,-120.74"/>
<polygon fill="gray" stroke="gray" points="538.35,-120.83 534.29,-111.04 531.36,-121.22 538.35,-120.83"/>
</g>
<!-- 20937 -->
<g id="node28" class="node">
<title>20937</title>
<g id="a_node28"><a xlink:href="https://www.openu.ac.il/courses/20937.htm" xlink:title="20937">
<polygon fill="#f0f0f0" stroke="black" points="302.88,-73.5 302.88,-109.5 443.62,-109.5 443.62,-73.5 302.88,-73.5"/>
<text text-anchor="start" x="310.88" y="-85.3" font-family="Arial" font-size="16.00">תכ&#39; מע&#39; דפנסיבי</text>
<polyline fill="none" stroke="black" points="417.88,-73.5 417.88,-109.5"/>
<text text-anchor="start" x="425.88" y="-86.47" font-family="Arial" font-weight="bold" font-size="17.00">4</text>
</a>
</g>
</g>
<!-- 20594&#45;&gt;20937 -->
<g id="edge35" class="edge">
<title>20594&#45;&gt;20937</title>
<path fill="none" stroke="gray" d="M497.13,-146.13C475.09,-136.59 447.54,-124.66 424.01,-114.48"/>
<polygon fill="gray" stroke="gray" points="425.48,-111.3 414.91,-110.54 422.7,-117.72 425.48,-111.3"/>
</g>
<!-- 20574 -->
<g id="node34" class="node">
<title>20574</title>
<g id="a_node34"><a xlink:href="https://www.openu.ac.il/courses/20574.htm" xlink:title="20574">
<polygon fill="#f0f0f0" stroke="black" points="174.75,-73.5 174.75,-109.5 281.75,-109.5 281.75,-73.5 174.75,-73.5"/>
<text text-anchor="start" x="182.75" y="-85.3" font-family="Arial" font-size="16.00">מע&#39; נתונים</text>
<polyline fill="none" stroke="black" points="256,-73.5 256,-109.5"/>
<text text-anchor="start" x="264" y="-86.47" font-family="Arial" font-weight="bold" font-size="17.00">4</text>
</a>
</g>
</g>
<!-- 20594&#45;&gt;20574 -->
<g id="edge30" class="edge">
<title>20594&#45;&gt;20574</title>
<path fill="none" stroke="gray" d="M481.46,-148C478.69,-147.31 475.94,-146.64 473.25,-146 394.29,-127.29 373.28,-128.41 294.25,-110 293.88,-109.91 293.51,-109.83 293.14,-109.74"/>
<polygon fill="gray" stroke="gray" points="294.22,-106.4 283.68,-107.45 292.58,-113.21 294.22,-106.4"/>
</g>
<!-- 20436 -->
<g id="node31" class="node">
<title>20436</title>
<g id="a_node31"><a xlink:href="https://www.openu.ac.il/courses/20436.htm" xlink:title="20436">
<polygon fill="#f0f0f0" stroke="black" points="127.88,-146.5 127.88,-182.5 292.62,-182.5 292.62,-146.5 127.88,-146.5"/>
<text text-anchor="start" x="135.88" y="-158.3" font-family="Arial" font-size="16.00">עק&#39; פיתוח מע&#39; מידע</text>
<polyline fill="none" stroke="black" points="266.88,-146.5 266.88,-182.5"/>
<text text-anchor="start" x="274.88" y="-159.47" font-family="Arial" font-weight="bold" font-size="17.00">4</text>
</a>
</g>
</g>
<!-- 20277&#45;&gt;20436 -->
<g id="edge29" class="edge">
<title>20277&#45;&gt;20436</title>
<path fill="none" stroke="gray" d="M210.25,-219.31C210.25,-211.73 210.25,-202.6 210.25,-194.04"/>
<polygon fill="gray" stroke="gray" points="213.75,-194.04 210.25,-184.04 206.75,-194.04 213.75,-194.04"/>
</g>
<!-- 20277&#45;&gt;20574 -->
<g id="edge44" class="edge">
<title>20277&#45;&gt;20574</title>
<path fill="none" stroke="gray" d="M160.68,-219.08C144.55,-210.78 128.44,-199.07 119.25,-183 111.08,-168.73 110.55,-159.96 119.25,-146 129.5,-129.55 146.45,-118.01 163.97,-109.98"/>
<polygon fill="gray" stroke="gray" points="165.03,-113.33 172.9,-106.24 162.32,-106.88 165.03,-113.33"/>
</g>
<!-- 20582&#45;&gt;20940 -->
<g id="edge20" class="edge">
<title>20582&#45;&gt;20940</title>
<path fill="none" stroke="gray" d="M645.8,-146.13C625.96,-136.68 601.19,-124.88 579.95,-114.75"/>
<polygon fill="gray" stroke="gray" points="581.74,-111.73 571.21,-110.59 578.73,-118.05 581.74,-111.73"/>
</g>
<!-- 20582&#45;&gt;20937 -->
<g id="edge36" class="edge">
<title>20582&#45;&gt;20937</title>
<path fill="none" stroke="gray" d="M610.97,-147.12C564.42,-136.43 503.51,-122.43 455,-111.28"/>
<polygon fill="gray" stroke="gray" points="455.91,-107.9 445.38,-109.07 454.34,-114.72 455.91,-107.9"/>
</g>
<!-- 20554&#45;&gt;20937 -->
<g id="edge41" class="edge">
<title>20554&#45;&gt;20937</title>
<path fill="none" stroke="gray" d="M383.86,-146.31C382.35,-138.64 380.52,-129.39 378.82,-120.74"/>
<polygon fill="gray" stroke="gray" points="382.27,-120.15 376.9,-111.01 375.4,-121.5 382.27,-120.15"/>
</g>
<!-- 20462&#45;&gt;20944 -->
<g id="edge47" class="edge">
<title>20462&#45;&gt;20944</title>
<path fill="none" stroke="gray" d="M1768.93,-221.48C1765.99,-220.63 1763.09,-219.8 1760.25,-219 1719.32,-207.49 1673.56,-195.47 1635.67,-185.74"/>
<polygon fill="gray" stroke="gray" points="1636.72,-182.39 1626.16,-183.3 1634.98,-189.18 1636.72,-182.39"/>
</g>
<!-- 20900 -->
<g id="node27" class="node">
<title>20900</title>
<g id="a_node27"><a xlink:href="https://www.openu.ac.il/courses/20900.htm" xlink:title="20900">
<polygon fill="#f0f0f0" stroke="black" points="1769.25,-146.5 1769.25,-182.5 1867.25,-182.5 1867.25,-146.5 1769.25,-146.5"/>
<text text-anchor="start" x="1777.25" y="-158.3" font-family="Arial" font-size="16.00">נומרית 2</text>
<polyline fill="none" stroke="black" points="1841.5,-146.5 1841.5,-182.5"/>
<text text-anchor="start" x="1849.5" y="-159.47" font-family="Arial" font-weight="bold" font-size="17.00">4</text>
</a>
</g>
</g>
<!-- 20462&#45;&gt;20900 -->
<g id="edge46" class="edge">
<title>20462&#45;&gt;20900</title>
<path fill="none" stroke="gray" d="M1818.25,-219.31C1818.25,-211.73 1818.25,-202.6 1818.25,-194.04"/>
<polygon fill="gray" stroke="gray" points="1821.75,-194.04 1818.25,-184.04 1814.75,-194.04 1821.75,-194.04"/>
</g>
<!-- 20906&#45;&gt;20905 -->
<g id="edge48" class="edge">
<title>20906&#45;&gt;20905</title>
<path fill="none" stroke="gray" d="M150.65,-75.55C155.92,-74.64 161.16,-73.78 166.25,-73 304.5,-51.75 467.14,-34.81 558.21,-26.04"/>
<polygon fill="gray" stroke="gray" points="558.36,-29.54 567.98,-25.1 557.7,-22.57 558.36,-29.54"/>
</g>
<!-- 20364&#45;&gt;20905 -->
<g id="edge49" class="edge">
<title>20364&#45;&gt;20905</title>
<path fill="none" stroke="gray" d="M1139.28,-74.69C1136.57,-74.08 1133.89,-73.51 1131.25,-73 979.35,-43.69 798.26,-29.36 700.45,-23.29"/>
<polygon fill="gray" stroke="gray" points="700.94,-19.82 690.75,-22.7 700.52,-26.8 700.94,-19.82"/>
</g>
</g>
</svg>
