<?xml version="1.0" encoding="UTF-8" standalone="no"?>
<!DOCTYPE svg PUBLIC "-//W3C//DTD SVG 1.1//EN"
 "http://www.w3.org/Graphics/SVG/1.1/DTD/svg11.dtd">
<!-- Generated by graphviz version 12.0.0 (20240704.0754)
 -->
<!-- Title: CS_Course_Dependencies Pages: 1 -->
<svg width="1534pt" height="508pt"
 viewBox="0.00 0.00 1534.25 507.50" xmlns="http://www.w3.org/2000/svg" xmlns:xlink="http://www.w3.org/1999/xlink">
<g id="graph0" class="graph" transform="scale(1 1) rotate(0) translate(4 503.5)">
<title>CS_Course_Dependencies</title>
<g id="a_graph0"><a xlink:href="https://github.com/adielbm/CS-Course-Dependencies" xlink:title=" ">
<polygon fill="white" stroke="none" points="-4,4 -4,-503.5 1530.25,-503.5 1530.25,4 -4,4"/>
<text text-anchor="middle" x="763.12" y="-7.2" font-family="Arial" font-size="14.00">CS Course Dependencies</text>
</a>
</g>
<!-- 20476 -->
<g id="node1" class="node">
<title>20476</title>
<g id="a_node1"><a xlink:href="https://www.openu.ac.il/courses/20476.htm" xlink:title="20476">
<polygon fill="#fff2cc" stroke="#916f0c" points="941.88,-390 941.88,-426 1022.62,-426 1022.62,-390 941.88,-390"/>
<text text-anchor="start" x="949.88" y="-401.8" font-family="Arial" font-size="16.00">בדידה</text>
<polyline fill="none" stroke="#916f0c" points="996.88,-390 996.88,-426"/>
<text text-anchor="start" x="1004.88" y="-402.98" font-family="Arial" font-weight="bold" font-size="17.00">4</text>
</a>
</g>
</g>
<!-- 20407 -->
<g id="node7" class="node">
<title>20407</title>
<g id="a_node7"><a xlink:href="https://www.openu.ac.il/courses/20407.htm" xlink:title="20407">
<polygon fill="#d6ddff" stroke="#0d32b2" points="420.38,-317 420.38,-353 642.12,-353 642.12,-317 420.38,-317"/>
<text text-anchor="start" x="428.38" y="-328.8" font-family="Arial" font-size="16.00">מבני נתונים ומ&#39; לאלגוריתמים</text>
<polyline fill="none" stroke="#0d32b2" points="616.38,-317 616.38,-353"/>
<text text-anchor="start" x="624.38" y="-329.98" font-family="Arial" font-weight="bold" font-size="17.00">5</text>
</a>
</g>
</g>
<!-- 20476&#45;&gt;20407 -->
<g id="edge22" class="edge">
<title>20476&#45;&gt;20407</title>
<path fill="none" stroke="gray" d="M941.43,-400.57C876.98,-390.43 749.13,-370.3 653.2,-355.2"/>
<polygon fill="gray" stroke="gray" points="653.88,-351.76 643.46,-353.66 652.79,-358.68 653.88,-351.76"/>
</g>
<!-- 20466 -->
<g id="node14" class="node">
<title>20466</title>
<g id="a_node14"><a xlink:href="https://www.openu.ac.il/courses/20466.htm" xlink:title="20466">
<polygon fill="#d6ddff" stroke="#0d32b2" points="1015,-317 1015,-353 1147.5,-353 1147.5,-317 1015,-317"/>
<text text-anchor="start" x="1023" y="-328.8" font-family="Arial" font-size="16.00">לוגיקה למדמח</text>
<polyline fill="none" stroke="#0d32b2" points="1121.75,-317 1121.75,-353"/>
<text text-anchor="start" x="1129.75" y="-329.98" font-family="Arial" font-weight="bold" font-size="17.00">4</text>
</a>
</g>
</g>
<!-- 20476&#45;&gt;20466 -->
<g id="edge8" class="edge">
<title>20476&#45;&gt;20466</title>
<path fill="none" stroke="gray" d="M1006.47,-389.63C1018.93,-380.69 1034.32,-369.66 1047.89,-359.92"/>
<polygon fill="gray" stroke="gray" points="1049.62,-362.99 1055.71,-354.32 1045.54,-357.3 1049.62,-362.99"/>
</g>
<!-- 20474 -->
<g id="node2" class="node">
<title>20474</title>
<g id="a_node2"><a xlink:href="https://www.openu.ac.il/courses/20474.htm" xlink:title="20474">
<polygon fill="#fff2cc" stroke="#916f0c" points="1283.88,-463 1283.88,-499 1370.62,-499 1370.62,-463 1283.88,-463"/>
<text text-anchor="start" x="1291.88" y="-474.8" font-family="Arial" font-size="16.00">אינפי 1</text>
<polyline fill="none" stroke="#916f0c" points="1344.88,-463 1344.88,-499"/>
<text text-anchor="start" x="1352.88" y="-475.98" font-family="Arial" font-weight="bold" font-size="17.00">7</text>
</a>
</g>
</g>
<!-- 20475 -->
<g id="node3" class="node">
<title>20475</title>
<g id="a_node3"><a xlink:href="https://www.openu.ac.il/courses/20475.htm" xlink:title="20475">
<polygon fill="#fff2cc" stroke="#916f0c" points="1283.88,-390 1283.88,-426 1370.62,-426 1370.62,-390 1283.88,-390"/>
<text text-anchor="start" x="1291.88" y="-401.8" font-family="Arial" font-size="16.00">אינפי 2</text>
<polyline fill="none" stroke="#916f0c" points="1344.88,-390 1344.88,-426"/>
<text text-anchor="start" x="1352.88" y="-402.98" font-family="Arial" font-weight="bold" font-size="17.00">7</text>
</a>
</g>
</g>
<!-- 20474&#45;&gt;20475 -->
<g id="edge5" class="edge">
<title>20474&#45;&gt;20475</title>
<path fill="none" stroke="gray" d="M1327.25,-462.81C1327.25,-455.23 1327.25,-446.1 1327.25,-437.54"/>
<polygon fill="gray" stroke="gray" points="1330.75,-437.54 1327.25,-427.54 1323.75,-437.54 1330.75,-437.54"/>
</g>
<!-- 20425 -->
<g id="node6" class="node">
<title>20425</title>
<g id="a_node6"><a xlink:href="https://www.openu.ac.il/courses/20425.htm" xlink:title="20425">
<polygon fill="#fff2cc" stroke="#916f0c" points="1165.38,-317 1165.38,-353 1363.12,-353 1363.12,-317 1165.38,-317"/>
<text text-anchor="start" x="1173.38" y="-328.8" font-family="Arial" font-size="16.00">מ&#39; הסתברות&#45;סטטיסטיקה</text>
<polyline fill="none" stroke="#916f0c" points="1337.38,-317 1337.38,-353"/>
<text text-anchor="start" x="1345.38" y="-329.98" font-family="Arial" font-weight="bold" font-size="17.00">5</text>
</a>
</g>
</g>
<!-- 20475&#45;&gt;20425 -->
<g id="edge6" class="edge">
<title>20475&#45;&gt;20425</title>
<path fill="none" stroke="gray" d="M1312,-389.81C1304.49,-381.35 1295.29,-370.98 1286.98,-361.61"/>
<polygon fill="gray" stroke="gray" points="1289.62,-359.32 1280.36,-354.16 1284.38,-363.96 1289.62,-359.32"/>
</g>
<!-- 20462 -->
<g id="node26" class="node">
<title>20462</title>
<g id="a_node26"><a xlink:href="https://www.openu.ac.il/courses/20462.htm" xlink:title="20462">
<polygon fill="#f0f0f0" stroke="black" points="1235.25,-244 1235.25,-280 1333.25,-280 1333.25,-244 1235.25,-244"/>
<text text-anchor="start" x="1243.25" y="-255.8" font-family="Arial" font-size="16.00">נומרית 1</text>
<polyline fill="none" stroke="black" points="1307.5,-244 1307.5,-280"/>
<text text-anchor="start" x="1315.5" y="-256.98" font-family="Arial" font-weight="bold" font-size="17.00">4</text>
</a>
</g>
</g>
<!-- 20475&#45;&gt;20462 -->
<g id="edge31" class="edge">
<title>20475&#45;&gt;20462</title>
<path fill="none" stroke="gray" d="M1347.16,-389.8C1356.72,-380.21 1367.18,-367.41 1372.25,-353.5 1377.88,-338.05 1380.31,-330.83 1372.25,-316.5 1365.06,-303.71 1353.43,-293.62 1340.95,-285.82"/>
<polygon fill="gray" stroke="gray" points="1343.03,-282.97 1332.62,-281.04 1339.55,-289.05 1343.03,-282.97"/>
</g>
<!-- 20109 -->
<g id="node4" class="node">
<title>20109</title>
<g id="a_node4"><a xlink:href="https://www.openu.ac.il/courses/20109.htm" xlink:title="20109">
<polygon fill="#fff2cc" stroke="#916f0c" points="854.88,-317 854.88,-353 959.62,-353 959.62,-317 854.88,-317"/>
<text text-anchor="start" x="862.88" y="-328.8" font-family="Arial" font-size="16.00">לינארית 1</text>
<polyline fill="none" stroke="#916f0c" points="933.88,-317 933.88,-353"/>
<text text-anchor="start" x="941.88" y="-329.98" font-family="Arial" font-weight="bold" font-size="17.00">7</text>
</a>
</g>
</g>
<!-- 20229 -->
<g id="node5" class="node">
<title>20229</title>
<g id="a_node5"><a xlink:href="https://www.openu.ac.il/courses/20229.htm" xlink:title="20229">
<polygon fill="#fff2cc" stroke="#916f0c" points="968.88,-244 968.88,-280 1073.62,-280 1073.62,-244 968.88,-244"/>
<text text-anchor="start" x="976.88" y="-255.8" font-family="Arial" font-size="16.00">לינארית 2</text>
<polyline fill="none" stroke="#916f0c" points="1047.88,-244 1047.88,-280"/>
<text text-anchor="start" x="1055.88" y="-256.98" font-family="Arial" font-weight="bold" font-size="17.00">5</text>
</a>
</g>
</g>
<!-- 20109&#45;&gt;20229 -->
<g id="edge13" class="edge">
<title>20109&#45;&gt;20229</title>
<path fill="none" stroke="gray" d="M935.14,-316.63C949.77,-307.52 967.89,-296.23 983.74,-286.36"/>
<polygon fill="gray" stroke="gray" points="985.33,-289.49 991.97,-281.24 981.63,-283.55 985.33,-289.49"/>
</g>
<!-- 20417 -->
<g id="node12" class="node">
<title>20417</title>
<g id="a_node12"><a xlink:href="https://www.openu.ac.il/courses/20417.htm" xlink:title="20417">
<polygon fill="#d6ddff" stroke="#0d32b2" points="835.25,-244 835.25,-280 951.25,-280 951.25,-244 835.25,-244"/>
<text text-anchor="start" x="843.25" y="-255.8" font-family="Arial" font-size="16.00">אלגוריתמים</text>
<polyline fill="none" stroke="#0d32b2" points="925.5,-244 925.5,-280"/>
<text text-anchor="start" x="933.5" y="-256.98" font-family="Arial" font-weight="bold" font-size="17.00">5</text>
</a>
</g>
</g>
<!-- 20109&#45;&gt;20417 -->
<g id="edge15" class="edge">
<title>20109&#45;&gt;20417</title>
<path fill="none" stroke="gray" d="M903.86,-316.81C902.35,-309.14 900.52,-299.89 898.82,-291.24"/>
<polygon fill="gray" stroke="gray" points="902.27,-290.65 896.9,-281.51 895.4,-292 902.27,-290.65"/>
</g>
<!-- 20296 -->
<g id="node19" class="node">
<title>20296</title>
<g id="a_node19"><a xlink:href="https://www.openu.ac.il/courses/20296.htm" xlink:title="20296">
<polygon fill="#f0f0f0" stroke="black" points="1091.38,-244 1091.38,-280 1217.12,-280 1217.12,-244 1091.38,-244"/>
<text text-anchor="start" x="1099.38" y="-255.8" font-family="Arial" font-size="16.00">תורת הקודים</text>
<polyline fill="none" stroke="black" points="1191.38,-244 1191.38,-280"/>
<text text-anchor="start" x="1199.38" y="-256.98" font-family="Arial" font-weight="bold" font-size="17.00">4</text>
</a>
</g>
</g>
<!-- 20109&#45;&gt;20296 -->
<g id="edge12" class="edge">
<title>20109&#45;&gt;20296</title>
<path fill="none" stroke="gray" d="M959.93,-318.86C995.6,-308.6 1043.17,-294.93 1082.32,-283.68"/>
<polygon fill="gray" stroke="gray" points="1083.28,-287.04 1091.92,-280.92 1081.35,-280.31 1083.28,-287.04"/>
</g>
<!-- 20109&#45;&gt;20462 -->
<g id="edge32" class="edge">
<title>20109&#45;&gt;20462</title>
<path fill="none" stroke="gray" d="M960.08,-319.41C964.52,-318.36 968.95,-317.37 973.25,-316.5 1081.08,-294.61 1113.34,-304.32 1224.06,-280.79"/>
<polygon fill="gray" stroke="gray" points="1224.52,-284.27 1233.54,-278.73 1223.03,-277.43 1224.52,-284.27"/>
</g>
<!-- 20562 -->
<g id="node29" class="node">
<title>20562</title>
<g id="a_node29"><a xlink:href="https://www.openu.ac.il/courses/20562.htm" xlink:title="20562">
<polygon fill="#f0f0f0" stroke="black" points="585.38,-244 585.38,-280 741.12,-280 741.12,-244 585.38,-244"/>
<text text-anchor="start" x="593.38" y="-255.8" font-family="Arial" font-size="16.00">גרפיקה ממוחשבת</text>
<polyline fill="none" stroke="black" points="715.38,-244 715.38,-280"/>
<text text-anchor="start" x="723.38" y="-256.98" font-family="Arial" font-weight="bold" font-size="17.00">4</text>
</a>
</g>
</g>
<!-- 20109&#45;&gt;20562 -->
<g id="edge36" class="edge">
<title>20109&#45;&gt;20562</title>
<path fill="none" stroke="gray" d="M854.61,-318.68C819.26,-308.4 772.29,-294.73 733.73,-283.51"/>
<polygon fill="gray" stroke="gray" points="735.13,-280.27 724.55,-280.84 733.17,-286.99 735.13,-280.27"/>
</g>
<!-- 20944 -->
<g id="node24" class="node">
<title>20944</title>
<g id="a_node24"><a xlink:href="https://www.openu.ac.il/courses/20944.htm" xlink:title="20944">
<polygon fill="#f0f0f0" stroke="black" points="965.75,-171 965.75,-207 1144.75,-207 1144.75,-171 965.75,-171"/>
<text text-anchor="start" x="973.75" y="-182.8" font-family="Arial" font-size="16.00">רובוטיקה אלגוריתמית</text>
<polyline fill="none" stroke="black" points="1119,-171 1119,-207"/>
<text text-anchor="start" x="1127" y="-183.97" font-family="Arial" font-weight="bold" font-size="17.00">4</text>
</a>
</g>
</g>
<!-- 20229&#45;&gt;20944 -->
<g id="edge49" class="edge">
<title>20229&#45;&gt;20944</title>
<path fill="none" stroke="gray" d="M1029.48,-243.81C1033.28,-235.88 1037.89,-226.26 1042.15,-217.36"/>
<polygon fill="gray" stroke="gray" points="1045.28,-218.92 1046.44,-208.39 1038.97,-215.9 1045.28,-218.92"/>
</g>
<!-- 20425&#45;&gt;20417 -->
<g id="edge14" class="edge">
<title>20425&#45;&gt;20417</title>
<path fill="none" stroke="gray" d="M1164.89,-317.41C1097.09,-305.93 1012.14,-291.21 962.8,-280.93"/>
<polygon fill="gray" stroke="gray" points="963.64,-277.53 953.13,-278.87 962.18,-284.38 963.64,-277.53"/>
</g>
<!-- 20942 -->
<g id="node21" class="node">
<title>20942</title>
<g id="a_node21"><a xlink:href="https://www.openu.ac.il/courses/20942.htm" xlink:title="20942">
<polygon fill="#f0f0f0" stroke="black" points="1362.25,-98 1362.25,-134 1526.25,-134 1526.25,-98 1362.25,-98"/>
<text text-anchor="start" x="1370.25" y="-109.8" font-family="Arial" font-size="16.00">מ&#39; ללמידה חישובית</text>
<polyline fill="none" stroke="black" points="1500.5,-98 1500.5,-134"/>
<text text-anchor="start" x="1508.5" y="-110.97" font-family="Arial" font-weight="bold" font-size="17.00">4</text>
</a>
</g>
</g>
<!-- 20425&#45;&gt;20942 -->
<g id="edge44" class="edge">
<title>20425&#45;&gt;20942</title>
<path fill="none" stroke="gray" d="M1307.07,-316.58C1348.71,-297 1409.35,-260.81 1435.25,-207.5 1444.59,-188.28 1446.57,-164.08 1446.36,-145.55"/>
<polygon fill="gray" stroke="gray" points="1449.87,-145.68 1446.02,-135.81 1442.87,-145.92 1449.87,-145.68"/>
</g>
<!-- 20471 -->
<g id="node9" class="node">
<title>20471</title>
<g id="a_node9"><a xlink:href="https://www.openu.ac.il/courses/20471.htm" xlink:title="20471">
<polygon fill="#d6ddff" stroke="#0d32b2" points="439.62,-244 439.62,-280 566.88,-280 566.88,-244 439.62,-244"/>
<text text-anchor="start" x="447.62" y="-255.8" font-family="Arial" font-size="16.00">ארגון המחשב</text>
<polyline fill="none" stroke="#0d32b2" points="541.12,-244 541.12,-280"/>
<text text-anchor="start" x="549.12" y="-256.98" font-family="Arial" font-weight="bold" font-size="17.00">4</text>
</a>
</g>
</g>
<!-- 20407&#45;&gt;20471 -->
<g id="edge25" class="edge">
<title>20407&#45;&gt;20471</title>
<path fill="none" stroke="gray" d="M524.47,-316.81C521.38,-308.96 517.63,-299.47 514.16,-290.66"/>
<polygon fill="gray" stroke="gray" points="517.45,-289.46 510.52,-281.44 510.93,-292.02 517.45,-289.46"/>
</g>
<!-- 20407&#45;&gt;20417 -->
<g id="edge16" class="edge">
<title>20407&#45;&gt;20417</title>
<path fill="none" stroke="gray" d="M620.27,-316.54C682.97,-304.24 765.74,-288.01 823.63,-276.65"/>
<polygon fill="gray" stroke="gray" points="824.24,-280.1 833.38,-274.74 822.89,-273.23 824.24,-280.1"/>
</g>
<!-- 20277 -->
<g id="node22" class="node">
<title>20277</title>
<g id="a_node22"><a xlink:href="https://www.openu.ac.il/courses/20277.htm" xlink:title="20277">
<polygon fill="#f0f0f0" stroke="black" points="103.88,-244 103.88,-280 250.62,-280 250.62,-244 103.88,-244"/>
<text text-anchor="start" x="111.88" y="-255.8" font-family="Arial" font-size="16.00">מע&#39; בסיסי נתונים</text>
<polyline fill="none" stroke="black" points="224.88,-244 224.88,-280"/>
<text text-anchor="start" x="232.88" y="-256.98" font-family="Arial" font-weight="bold" font-size="17.00">4</text>
</a>
</g>
</g>
<!-- 20407&#45;&gt;20277 -->
<g id="edge9" class="edge">
<title>20407&#45;&gt;20277</title>
<path fill="none" stroke="gray" d="M440.51,-316.53C390.49,-306.81 326.99,-294.33 262.24,-281.1"/>
<polygon fill="gray" stroke="gray" points="262.98,-277.68 252.48,-279.1 261.57,-284.54 262.98,-277.68"/>
</g>
<!-- 20554 -->
<g id="node25" class="node">
<title>20554</title>
<g id="a_node25"><a xlink:href="https://www.openu.ac.il/courses/20554.htm" xlink:title="20554">
<polygon fill="#f0f0f0" stroke="black" points="268.5,-244 268.5,-280 422,-280 422,-244 268.5,-244"/>
<text text-anchor="start" x="276.5" y="-255.8" font-family="Arial" font-size="16.00">תכ&#39; מתקדם Java</text>
<polyline fill="none" stroke="black" points="396.25,-244 396.25,-280"/>
<text text-anchor="start" x="404.25" y="-256.98" font-family="Arial" font-weight="bold" font-size="17.00">4</text>
</a>
</g>
</g>
<!-- 20407&#45;&gt;20554 -->
<g id="edge33" class="edge">
<title>20407&#45;&gt;20554</title>
<path fill="none" stroke="gray" d="M485.75,-316.63C460.3,-306.92 428.37,-294.73 401.39,-284.43"/>
<polygon fill="gray" stroke="gray" points="402.93,-281.27 392.34,-280.98 400.43,-287.81 402.93,-281.27"/>
</g>
<!-- 20407&#45;&gt;20562 -->
<g id="edge38" class="edge">
<title>20407&#45;&gt;20562</title>
<path fill="none" stroke="gray" d="M563.54,-316.63C580.8,-307.35 602.26,-295.8 620.85,-285.81"/>
<polygon fill="gray" stroke="gray" points="622.35,-288.97 629.5,-281.15 619.04,-282.81 622.35,-288.97"/>
</g>
<!-- 20906 -->
<g id="node32" class="node">
<title>20906</title>
<g id="a_node32"><a xlink:href="https://www.openu.ac.il/courses/20906.htm" xlink:title="20906">
<polygon fill="#f0f0f0" stroke="black" points="0,-171 0,-207 150.5,-207 150.5,-171 0,-171"/>
<text text-anchor="start" x="8" y="-182.8" font-family="Arial" font-size="16.00">תכ&#39; מונחה עצמים</text>
<polyline fill="none" stroke="black" points="124.75,-171 124.75,-207"/>
<text text-anchor="start" x="132.75" y="-183.97" font-family="Arial" font-weight="bold" font-size="17.00">4</text>
</a>
</g>
</g>
<!-- 20407&#45;&gt;20906 -->
<g id="edge41" class="edge">
<title>20407&#45;&gt;20906</title>
<path fill="none" stroke="gray" d="M419.95,-334.52C306.69,-332.64 141.42,-322.46 95.25,-280.5 78.31,-265.1 74.02,-238.87 73.55,-218.59"/>
<polygon fill="gray" stroke="gray" points="77.05,-218.73 73.65,-208.7 70.05,-218.66 77.05,-218.73"/>
</g>
<!-- 20905 -->
<g id="node8" class="node">
<title>20905</title>
<g id="a_node8"><a xlink:href="https://www.openu.ac.il/courses/20905.htm" xlink:title="20905">
<polygon fill="#d6ddff" stroke="#0d32b2" points="500.75,-25 500.75,-61 619.75,-61 619.75,-25 500.75,-25"/>
<text text-anchor="start" x="508.75" y="-36.8" font-family="Arial" font-size="16.00">שפות תכנות</text>
<polyline fill="none" stroke="#0d32b2" points="594,-25 594,-61"/>
<text text-anchor="start" x="602" y="-37.98" font-family="Arial" font-weight="bold" font-size="17.00">5</text>
</a>
</g>
</g>
<!-- 20594 -->
<g id="node15" class="node">
<title>20594</title>
<g id="a_node15"><a xlink:href="https://www.openu.ac.il/courses/20594.htm" xlink:title="20594">
<polygon fill="#d6ddff" stroke="#0d32b2" points="425.88,-171 425.88,-207 536.62,-207 536.62,-171 425.88,-171"/>
<text text-anchor="start" x="433.88" y="-182.8" font-family="Arial" font-size="16.00">מע&#39; הפעלה</text>
<polyline fill="none" stroke="#0d32b2" points="510.88,-171 510.88,-207"/>
<text text-anchor="start" x="518.88" y="-183.97" font-family="Arial" font-weight="bold" font-size="17.00">5</text>
</a>
</g>
</g>
<!-- 20471&#45;&gt;20594 -->
<g id="edge11" class="edge">
<title>20471&#45;&gt;20594</title>
<path fill="none" stroke="gray" d="M497.92,-243.81C495.52,-236.05 492.62,-226.68 489.91,-217.95"/>
<polygon fill="gray" stroke="gray" points="493.28,-216.99 486.97,-208.47 486.59,-219.06 493.28,-216.99"/>
</g>
<!-- 20441 -->
<g id="node10" class="node">
<title>20441</title>
<g id="a_node10"><a xlink:href="https://www.openu.ac.il/courses/20441.htm" xlink:title="20441">
<polygon fill="#d6ddff" stroke="#0d32b2" points="699.12,-390 699.12,-426 811.38,-426 811.38,-390 699.12,-390"/>
<text text-anchor="start" x="707.12" y="-401.8" font-family="Arial" font-size="16.00">מבוא Java</text>
<polyline fill="none" stroke="#0d32b2" points="785.62,-390 785.62,-426"/>
<text text-anchor="start" x="793.62" y="-402.98" font-family="Arial" font-weight="bold" font-size="17.00">6</text>
</a>
</g>
</g>
<!-- 20441&#45;&gt;20407 -->
<g id="edge1" class="edge">
<title>20441&#45;&gt;20407</title>
<path fill="none" stroke="gray" d="M700.17,-389.54C668.98,-379.65 629.76,-367.23 596.97,-356.83"/>
<polygon fill="gray" stroke="gray" points="598.15,-353.53 587.56,-353.85 596.04,-360.21 598.15,-353.53"/>
</g>
<!-- 20465 -->
<g id="node11" class="node">
<title>20465</title>
<g id="a_node11"><a xlink:href="https://www.openu.ac.il/courses/20465.htm" xlink:title="20465">
<polygon fill="#d6ddff" stroke="#0d32b2" points="686.75,-317 686.75,-353 823.75,-353 823.75,-317 686.75,-317"/>
<text text-anchor="start" x="694.75" y="-328.8" font-family="Arial" font-size="16.00">מעבדה בתכנות</text>
<polyline fill="none" stroke="#0d32b2" points="798,-317 798,-353"/>
<text text-anchor="start" x="806" y="-329.98" font-family="Arial" font-weight="bold" font-size="17.00">4</text>
</a>
</g>
</g>
<!-- 20441&#45;&gt;20465 -->
<g id="edge3" class="edge">
<title>20441&#45;&gt;20465</title>
<path fill="none" stroke="gray" d="M755.25,-389.81C755.25,-382.23 755.25,-373.1 755.25,-364.54"/>
<polygon fill="gray" stroke="gray" points="758.75,-364.54 755.25,-354.54 751.75,-364.54 758.75,-364.54"/>
</g>
<!-- 20441&#45;&gt;20462 -->
<g id="edge30" class="edge">
<title>20441&#45;&gt;20462</title>
<path fill="none" stroke="gray" d="M811.59,-401.02C856.34,-394.4 919.31,-380.82 968.25,-353.5 988.83,-342.01 985.2,-327.12 1006.25,-316.5 1091.52,-273.49 1127.13,-300.72 1223.86,-280.78"/>
<polygon fill="gray" stroke="gray" points="1224.51,-284.22 1233.53,-278.66 1223.01,-277.39 1224.51,-284.22"/>
</g>
<!-- 20465&#45;&gt;20471 -->
<g id="edge2" class="edge">
<title>20465&#45;&gt;20471</title>
<path fill="none" stroke="gray" d="M693.28,-316.54C657.73,-306.53 612.93,-293.9 575.75,-283.43"/>
<polygon fill="gray" stroke="gray" points="577.01,-280.15 566.44,-280.8 575.11,-286.88 577.01,-280.15"/>
</g>
<!-- 20946 -->
<g id="node18" class="node">
<title>20946</title>
<g id="a_node18"><a xlink:href="https://www.openu.ac.il/courses/20946.htm" xlink:title="20946">
<polygon fill="#f0f0f0" stroke="black" points="697.5,-98 697.5,-134 851,-134 851,-98 697.5,-98"/>
<text text-anchor="start" x="705.5" y="-109.8" font-family="Arial" font-size="16.00">מ&#39; לבדיקות תוכנה</text>
<polyline fill="none" stroke="black" points="825.25,-98 825.25,-134"/>
<text text-anchor="start" x="833.25" y="-110.97" font-family="Arial" font-weight="bold" font-size="17.00">4</text>
</a>
</g>
</g>
<!-- 20465&#45;&gt;20946 -->
<g id="edge23" class="edge">
<title>20465&#45;&gt;20946</title>
<path fill="none" stroke="gray" d="M756.77,-316.61C760.03,-279.39 767.71,-191.69 771.72,-145.93"/>
<polygon fill="gray" stroke="gray" points="775.2,-146.25 772.59,-135.98 768.23,-145.64 775.2,-146.25"/>
</g>
<!-- 20465&#45;&gt;20562 -->
<g id="edge37" class="edge">
<title>20465&#45;&gt;20562</title>
<path fill="none" stroke="gray" d="M732.98,-316.81C721.43,-307.9 707.12,-296.86 694.48,-287.1"/>
<polygon fill="gray" stroke="gray" points="696.89,-284.54 686.83,-281.2 692.61,-290.08 696.89,-284.54"/>
</g>
<!-- 20364 -->
<g id="node33" class="node">
<title>20364</title>
<g id="a_node33"><a xlink:href="https://www.openu.ac.il/courses/20364.htm" xlink:title="20364">
<polygon fill="#f0f0f0" stroke="black" points="868.75,-98 868.75,-134 975.75,-134 975.75,-98 868.75,-98"/>
<text text-anchor="start" x="876.75" y="-109.8" font-family="Arial" font-size="16.00">קומפילציה</text>
<polyline fill="none" stroke="black" points="950,-98 950,-134"/>
<text text-anchor="start" x="958" y="-110.97" font-family="Arial" font-weight="bold" font-size="17.00">4</text>
</a>
</g>
</g>
<!-- 20465&#45;&gt;20364 -->
<g id="edge24" class="edge">
<title>20465&#45;&gt;20364</title>
<path fill="none" stroke="gray" d="M761.99,-316.79C777.62,-277.18 815.76,-182.08 826.25,-170.5 837.59,-157.98 852.58,-147.71 867.33,-139.65"/>
<polygon fill="gray" stroke="gray" points="868.83,-142.81 876.11,-135.11 865.62,-136.59 868.83,-142.81"/>
</g>
<!-- 20604 -->
<g id="node13" class="node">
<title>20604</title>
<g id="a_node13"><a xlink:href="https://www.openu.ac.il/courses/20604.htm" xlink:title="20604">
<polygon fill="#d6ddff" stroke="#0d32b2" points="1162.5,-171 1162.5,-207 1310,-207 1310,-171 1162.5,-171"/>
<text text-anchor="start" x="1170.5" y="-182.8" font-family="Arial" font-size="16.00">מודלים חישוביים</text>
<polyline fill="none" stroke="#0d32b2" points="1284.25,-171 1284.25,-207"/>
<text text-anchor="start" x="1292.25" y="-183.97" font-family="Arial" font-weight="bold" font-size="17.00">5</text>
</a>
</g>
</g>
<!-- 20417&#45;&gt;20604 -->
<g id="edge17" class="edge">
<title>20417&#45;&gt;20604</title>
<path fill="none" stroke="gray" d="M951.66,-245.48C954.56,-244.79 957.43,-244.13 960.25,-243.5 1042.33,-225.19 1066.31,-224.67 1150.88,-208.14"/>
<polygon fill="gray" stroke="gray" points="1151.46,-211.59 1160.59,-206.22 1150.1,-204.72 1151.46,-211.59"/>
</g>
<!-- 20595 -->
<g id="node17" class="node">
<title>20595</title>
<g id="a_node17"><a xlink:href="https://www.openu.ac.il/courses/20595.htm" xlink:title="20595">
<polygon fill="#f0f0f0" stroke="black" points="835.12,-171 835.12,-207 947.38,-207 947.38,-171 835.12,-171"/>
<text text-anchor="start" x="843.12" y="-182.8" font-family="Arial" font-size="16.00">כריית מידע</text>
<polyline fill="none" stroke="black" points="921.62,-171 921.62,-207"/>
<text text-anchor="start" x="929.62" y="-183.97" font-family="Arial" font-weight="bold" font-size="17.00">4</text>
</a>
</g>
</g>
<!-- 20417&#45;&gt;20595 -->
<g id="edge18" class="edge">
<title>20417&#45;&gt;20595</title>
<path fill="none" stroke="gray" d="M892.77,-243.81C892.55,-236.14 892.29,-226.89 892.05,-218.24"/>
<polygon fill="gray" stroke="gray" points="895.55,-218.44 891.77,-208.54 888.56,-218.64 895.55,-218.44"/>
</g>
<!-- 20582 -->
<g id="node23" class="node">
<title>20582</title>
<g id="a_node23"><a xlink:href="https://www.openu.ac.il/courses/20582.htm" xlink:title="20582">
<polygon fill="#f0f0f0" stroke="black" points="555.12,-171 555.12,-207 697.38,-207 697.38,-171 555.12,-171"/>
<text text-anchor="start" x="563.12" y="-182.8" font-family="Arial" font-size="16.00">מ&#39; לרשתות ת&#39;&#39;מ</text>
<polyline fill="none" stroke="black" points="671.62,-171 671.62,-207"/>
<text text-anchor="start" x="679.62" y="-183.97" font-family="Arial" font-weight="bold" font-size="17.00">4</text>
</a>
</g>
</g>
<!-- 20417&#45;&gt;20582 -->
<g id="edge21" class="edge">
<title>20417&#45;&gt;20582</title>
<path fill="none" stroke="gray" d="M834.99,-245.51C796.25,-235.21 744.97,-221.57 702.93,-210.39"/>
<polygon fill="gray" stroke="gray" points="703.92,-207.03 693.36,-207.85 702.12,-213.8 703.92,-207.03"/>
</g>
<!-- 20417&#45;&gt;20944 -->
<g id="edge27" class="edge">
<title>20417&#45;&gt;20944</title>
<path fill="none" stroke="gray" d="M932.88,-243.63C954.65,-234.09 981.87,-222.16 1005.11,-211.98"/>
<polygon fill="gray" stroke="gray" points="1006.33,-215.26 1014.08,-208.04 1003.52,-208.85 1006.33,-215.26"/>
</g>
<!-- 20604&#45;&gt;20946 -->
<g id="edge26" class="edge">
<title>20604&#45;&gt;20946</title>
<path fill="none" stroke="gray" d="M1162.11,-171.87C1159.46,-171.39 1156.83,-170.93 1154.25,-170.5 1027.97,-149.34 992.13,-155.29 862.27,-134.74"/>
<polygon fill="gray" stroke="gray" points="863.01,-131.32 852.58,-133.19 861.9,-138.23 863.01,-131.32"/>
</g>
<!-- 20551 -->
<g id="node20" class="node">
<title>20551</title>
<g id="a_node20"><a xlink:href="https://www.openu.ac.il/courses/20551.htm" xlink:title="20551">
<polygon fill="#f0f0f0" stroke="black" points="1164,-98 1164,-134 1326.5,-134 1326.5,-98 1164,-98"/>
<text text-anchor="start" x="1172" y="-109.8" font-family="Arial" font-size="16.00">מ&#39; לבינה מלאכותית</text>
<polyline fill="none" stroke="black" points="1300.75,-98 1300.75,-134"/>
<text text-anchor="start" x="1308.75" y="-110.97" font-family="Arial" font-weight="bold" font-size="17.00">4</text>
</a>
</g>
</g>
<!-- 20604&#45;&gt;20551 -->
<g id="edge20" class="edge">
<title>20604&#45;&gt;20551</title>
<path fill="none" stroke="gray" d="M1238.43,-170.81C1239.4,-163.14 1240.57,-153.89 1241.67,-145.24"/>
<polygon fill="gray" stroke="gray" points="1245.12,-145.89 1242.9,-135.53 1238.17,-145.01 1245.12,-145.89"/>
</g>
<!-- 20604&#45;&gt;20942 -->
<g id="edge10" class="edge">
<title>20604&#45;&gt;20942</title>
<path fill="none" stroke="gray" d="M1287.4,-170.54C1316.11,-160.74 1352.14,-148.44 1382.43,-138.1"/>
<polygon fill="gray" stroke="gray" points="1383.53,-141.42 1391.87,-134.88 1381.27,-134.8 1383.53,-141.42"/>
</g>
<!-- 20580 -->
<g id="node30" class="node">
<title>20580</title>
<g id="a_node30"><a xlink:href="https://www.openu.ac.il/courses/20580.htm" xlink:title="20580">
<polygon fill="#f0f0f0" stroke="black" points="998.88,-98 998.88,-134 1145.62,-134 1145.62,-98 998.88,-98"/>
<text text-anchor="start" x="1006.88" y="-109.8" font-family="Arial" font-size="16.00">מ&#39; לקריפטוגרפיה</text>
<polyline fill="none" stroke="black" points="1119.88,-98 1119.88,-134"/>
<text text-anchor="start" x="1127.88" y="-110.97" font-family="Arial" font-weight="bold" font-size="17.00">4</text>
</a>
</g>
</g>
<!-- 20604&#45;&gt;20580 -->
<g id="edge39" class="edge">
<title>20604&#45;&gt;20580</title>
<path fill="none" stroke="gray" d="M1196.13,-170.63C1174.09,-161.09 1146.54,-149.16 1123.01,-138.98"/>
<polygon fill="gray" stroke="gray" points="1124.48,-135.8 1113.91,-135.04 1121.7,-142.22 1124.48,-135.8"/>
</g>
<!-- 20604&#45;&gt;20364 -->
<g id="edge42" class="edge">
<title>20604&#45;&gt;20364</title>
<path fill="none" stroke="gray" d="M1162.14,-172.03C1095.97,-157.75 1006.97,-138.47 990.25,-134.5 989.24,-134.26 988.22,-134.02 987.19,-133.77"/>
<polygon fill="gray" stroke="gray" points="988.04,-130.37 977.5,-131.4 986.38,-137.17 988.04,-130.37"/>
</g>
<!-- 20466&#45;&gt;20604 -->
<g id="edge7" class="edge">
<title>20466&#45;&gt;20604</title>
<path fill="none" stroke="gray" d="M1147.88,-318.32C1150.7,-317.69 1153.5,-317.09 1156.25,-316.5 1238.6,-298.93 1288.67,-345.45 1342.25,-280.5 1352.72,-267.82 1350.87,-257.5 1342.25,-243.5 1334.12,-230.29 1321.61,-220.23 1308.01,-212.6"/>
<polygon fill="gray" stroke="gray" points="1309.79,-209.58 1299.3,-208.15 1306.61,-215.81 1309.79,-209.58"/>
</g>
<!-- 20940 -->
<g id="node16" class="node">
<title>20940</title>
<g id="a_node16"><a xlink:href="https://www.openu.ac.il/courses/20940.htm" xlink:title="20940">
<polygon fill="#f0f0f0" stroke="black" points="536.75,-98 536.75,-134 679.75,-134 679.75,-98 536.75,-98"/>
<text text-anchor="start" x="544.75" y="-109.8" font-family="Arial" font-size="16.00">מ&#39; לאבטחת ה&#39;&#39;ה</text>
<polyline fill="none" stroke="black" points="654,-98 654,-134"/>
<text text-anchor="start" x="662" y="-110.97" font-family="Arial" font-weight="bold" font-size="17.00">4</text>
</a>
</g>
</g>
<!-- 20594&#45;&gt;20940 -->
<g id="edge4" class="edge">
<title>20594&#45;&gt;20940</title>
<path fill="none" stroke="gray" d="M512.32,-170.63C528.92,-161.35 549.57,-149.8 567.46,-139.81"/>
<polygon fill="gray" stroke="gray" points="568.72,-143.11 575.74,-135.17 565.31,-137 568.72,-143.11"/>
</g>
<!-- 20937 -->
<g id="node28" class="node">
<title>20937</title>
<g id="a_node28"><a xlink:href="https://www.openu.ac.il/courses/20937.htm" xlink:title="20937">
<polygon fill="#f0f0f0" stroke="black" points="377.88,-98 377.88,-134 518.62,-134 518.62,-98 377.88,-98"/>
<text text-anchor="start" x="385.88" y="-109.8" font-family="Arial" font-size="16.00">תכ&#39; מע&#39; דפנסיבי</text>
<polyline fill="none" stroke="black" points="492.88,-98 492.88,-134"/>
<text text-anchor="start" x="500.88" y="-110.97" font-family="Arial" font-weight="bold" font-size="17.00">4</text>
</a>
</g>
</g>
<!-- 20594&#45;&gt;20937 -->
<g id="edge34" class="edge">
<title>20594&#45;&gt;20937</title>
<path fill="none" stroke="gray" d="M473.26,-170.81C469.57,-162.88 465.1,-153.26 460.97,-144.36"/>
<polygon fill="gray" stroke="gray" points="464.19,-142.99 456.8,-135.4 457.84,-145.94 464.19,-142.99"/>
</g>
<!-- 20574 -->
<g id="node34" class="node">
<title>20574</title>
<g id="a_node34"><a xlink:href="https://www.openu.ac.il/courses/20574.htm" xlink:title="20574">
<polygon fill="#f0f0f0" stroke="black" points="188.75,-98 188.75,-134 295.75,-134 295.75,-98 188.75,-98"/>
<text text-anchor="start" x="196.75" y="-109.8" font-family="Arial" font-size="16.00">מע&#39; נתונים</text>
<polyline fill="none" stroke="black" points="270,-98 270,-134"/>
<text text-anchor="start" x="278" y="-110.97" font-family="Arial" font-weight="bold" font-size="17.00">4</text>
</a>
</g>
</g>
<!-- 20594&#45;&gt;20574 -->
<g id="edge29" class="edge">
<title>20594&#45;&gt;20574</title>
<path fill="none" stroke="gray" d="M425.52,-171.44C389.99,-160.89 343.82,-147.17 306.72,-136.15"/>
<polygon fill="gray" stroke="gray" points="308.05,-132.9 297.46,-133.4 306.05,-139.61 308.05,-132.9"/>
</g>
<!-- 20436 -->
<g id="node31" class="node">
<title>20436</title>
<g id="a_node31"><a xlink:href="https://www.openu.ac.il/courses/20436.htm" xlink:title="20436">
<polygon fill="#f0f0f0" stroke="black" points="205.88,-171 205.88,-207 370.62,-207 370.62,-171 205.88,-171"/>
<text text-anchor="start" x="213.88" y="-182.8" font-family="Arial" font-size="16.00">עק&#39; פיתוח מע&#39; מידע</text>
<polyline fill="none" stroke="black" points="344.88,-171 344.88,-207"/>
<text text-anchor="start" x="352.88" y="-183.97" font-family="Arial" font-weight="bold" font-size="17.00">4</text>
</a>
</g>
</g>
<!-- 20277&#45;&gt;20436 -->
<g id="edge28" class="edge">
<title>20277&#45;&gt;20436</title>
<path fill="none" stroke="gray" d="M204.4,-243.63C218.65,-234.52 236.3,-223.23 251.72,-213.36"/>
<polygon fill="gray" stroke="gray" points="253.18,-216.59 259.72,-208.25 249.41,-210.69 253.18,-216.59"/>
</g>
<!-- 20277&#45;&gt;20574 -->
<g id="edge43" class="edge">
<title>20277&#45;&gt;20574</title>
<path fill="none" stroke="gray" d="M178.62,-243.51C180.65,-224.65 185.57,-194.16 197.25,-170.5 202.14,-160.59 209.25,-150.96 216.37,-142.67"/>
<polygon fill="gray" stroke="gray" points="218.87,-145.12 222.99,-135.36 213.68,-140.42 218.87,-145.12"/>
</g>
<!-- 20582&#45;&gt;20940 -->
<g id="edge19" class="edge">
<title>20582&#45;&gt;20940</title>
<path fill="none" stroke="gray" d="M621.89,-170.81C619.92,-163.05 617.55,-153.68 615.34,-144.95"/>
<polygon fill="gray" stroke="gray" points="618.79,-144.33 612.94,-135.5 612,-146.05 618.79,-144.33"/>
</g>
<!-- 20582&#45;&gt;20937 -->
<g id="edge35" class="edge">
<title>20582&#45;&gt;20937</title>
<path fill="none" stroke="gray" d="M582.71,-170.63C558.46,-160.96 528.07,-148.84 502.31,-138.56"/>
<polygon fill="gray" stroke="gray" points="503.95,-135.45 493.37,-135 501.36,-141.95 503.95,-135.45"/>
</g>
<!-- 20554&#45;&gt;20937 -->
<g id="edge40" class="edge">
<title>20554&#45;&gt;20937</title>
<path fill="none" stroke="gray" d="M357.67,-243.63C375.46,-218.76 408.33,-172.81 429.2,-143.63"/>
<polygon fill="gray" stroke="gray" points="431.93,-145.83 434.9,-135.66 426.24,-141.76 431.93,-145.83"/>
</g>
<!-- 20462&#45;&gt;20944 -->
<g id="edge46" class="edge">
<title>20462&#45;&gt;20944</title>
<path fill="none" stroke="gray" d="M1234.84,-245.68C1201.95,-235.48 1158.34,-221.96 1122.33,-210.8"/>
<polygon fill="gray" stroke="gray" points="1123.45,-207.48 1112.86,-207.86 1121.37,-214.17 1123.45,-207.48"/>
</g>
<!-- 20900 -->
<g id="node27" class="node">
<title>20900</title>
<g id="a_node27"><a xlink:href="https://www.openu.ac.il/courses/20900.htm" xlink:title="20900">
<polygon fill="#f0f0f0" stroke="black" points="1328.25,-171 1328.25,-207 1426.25,-207 1426.25,-171 1328.25,-171"/>
<text text-anchor="start" x="1336.25" y="-182.8" font-family="Arial" font-size="16.00">נומרית 2</text>
<polyline fill="none" stroke="black" points="1400.5,-171 1400.5,-207"/>
<text text-anchor="start" x="1408.5" y="-183.97" font-family="Arial" font-weight="bold" font-size="17.00">4</text>
</a>
</g>
</g>
<!-- 20462&#45;&gt;20900 -->
<g id="edge45" class="edge">
<title>20462&#45;&gt;20900</title>
<path fill="none" stroke="gray" d="M1306.76,-243.81C1318.44,-234.9 1332.9,-223.86 1345.68,-214.1"/>
<polygon fill="gray" stroke="gray" points="1347.59,-217.04 1353.42,-208.19 1343.35,-211.48 1347.59,-217.04"/>
</g>
<!-- 20906&#45;&gt;20905 -->
<g id="edge47" class="edge">
<title>20906&#45;&gt;20905</title>
<path fill="none" stroke="gray" d="M89.57,-170.68C108.11,-149.57 142.55,-114.59 180.25,-97.5 233.91,-73.17 394.82,-56.92 489.16,-49.2"/>
<polygon fill="gray" stroke="gray" points="489.41,-52.69 499.1,-48.4 488.85,-45.72 489.41,-52.69"/>
</g>
<!-- 20364&#45;&gt;20905 -->
<g id="edge48" class="edge">
<title>20364&#45;&gt;20905</title>
<path fill="none" stroke="gray" d="M868.56,-99.5C865.76,-98.8 862.98,-98.13 860.25,-97.5 782.46,-79.63 692.17,-64.24 631.13,-54.62"/>
<polygon fill="gray" stroke="gray" points="632,-51.21 621.58,-53.12 630.92,-58.13 632,-51.21"/>
</g>
</g>
</svg>
