<?xml version="1.0" encoding="UTF-8" standalone="no"?>
<!DOCTYPE svg PUBLIC "-//W3C//DTD SVG 1.1//EN"
 "http://www.w3.org/Graphics/SVG/1.1/DTD/svg11.dtd">
<!-- Generated by graphviz version 12.0.0 (20240704.0754)
 -->
<!-- Title: CoursesDiagram Pages: 1 -->
<svg width="1130pt" height="491pt"
 viewBox="0.00 0.00 1129.88 491.00" xmlns="http://www.w3.org/2000/svg" xmlns:xlink="http://www.w3.org/1999/xlink">
<g id="graph0" class="graph" transform="scale(1 1) rotate(0) translate(4 487)">
<title>CoursesDiagram</title>
<polygon fill="white" stroke="none" points="-4,4 -4,-487 1125.88,-487 1125.88,4 -4,4"/>
<!-- 20476 -->
<g id="node1" class="node">
<title>20476</title>
<g id="a_node1"><a xlink:href="https://www.openu.ac.il/courses/20476.htm" xlink:title="בדידה">
<polygon fill="#fff2cc" stroke="#916f0c" points="814.5,-411 760.5,-411 760.5,-375 814.5,-375 814.5,-411"/>
<text text-anchor="middle" x="787.5" y="-387.95" font-family="Arial" font-size="14.00">בדידה</text>
</a>
</g>
</g>
<!-- 20407 -->
<g id="node7" class="node">
<title>20407</title>
<g id="a_node7"><a xlink:href="https://www.openu.ac.il/courses/20407.htm" xlink:title="מנמא">
<polygon fill="#d6ddff" stroke="#0d32b2" points="427.5,-336.5 373.5,-336.5 373.5,-300.5 427.5,-300.5 427.5,-336.5"/>
<text text-anchor="middle" x="400.5" y="-313.45" font-family="Arial" font-size="14.00">מנמא</text>
</a>
</g>
</g>
<!-- 20476&#45;&gt;20407 -->
<g id="edge22" class="edge">
<title>20476&#45;&gt;20407</title>
<path fill="none" stroke="gray" d="M760.1,-387.41C707.79,-378.59 590.11,-358.39 491.5,-339 474.28,-335.61 455.29,-331.59 439.13,-328.08"/>
<polygon fill="gray" stroke="gray" points="439.92,-324.67 429.41,-325.95 438.43,-331.51 439.92,-324.67"/>
</g>
<!-- 20466 -->
<g id="node14" class="node">
<title>20466</title>
<g id="a_node14"><a xlink:href="https://www.openu.ac.il/courses/20466.htm" xlink:title="לוגיקה למדמח">
<polygon fill="#d6ddff" stroke="#0d32b2" points="914.12,-336.5 820.88,-336.5 820.88,-300.5 914.12,-300.5 914.12,-336.5"/>
<text text-anchor="middle" x="867.5" y="-313.45" font-family="Arial" font-size="14.00">לוגיקה למדמח</text>
</a>
</g>
</g>
<!-- 20476&#45;&gt;20466 -->
<g id="edge3" class="edge">
<title>20476&#45;&gt;20466</title>
<path fill="none" stroke="gray" d="M806.46,-374.82C816.45,-365.77 828.89,-354.49 839.92,-344.49"/>
<polygon fill="gray" stroke="gray" points="842.22,-347.13 847.28,-337.83 837.52,-341.95 842.22,-347.13"/>
</g>
<!-- 20474 -->
<g id="node2" class="node">
<title>20474</title>
<g id="a_node2"><a xlink:href="https://www.openu.ac.il/courses/20474.htm" xlink:title="אינפי 1">
<polygon fill="#fff2cc" stroke="#916f0c" points="1033,-483 978,-483 978,-447 1033,-447 1033,-483"/>
<text text-anchor="middle" x="1005.5" y="-459.95" font-family="Arial" font-size="14.00">אינפי 1</text>
</a>
</g>
</g>
<!-- 20475 -->
<g id="node3" class="node">
<title>20475</title>
<g id="a_node3"><a xlink:href="https://www.openu.ac.il/courses/20475.htm" xlink:title="אינפי 2">
<polygon fill="#fff2cc" stroke="#916f0c" points="1033,-411 978,-411 978,-375 1033,-375 1033,-411"/>
<text text-anchor="middle" x="1005.5" y="-387.95" font-family="Arial" font-size="14.00">אינפי 2</text>
</a>
</g>
</g>
<!-- 20474&#45;&gt;20475 -->
<g id="edge6" class="edge">
<title>20474&#45;&gt;20475</title>
<path fill="none" stroke="gray" d="M1005.5,-446.7C1005.5,-439.41 1005.5,-430.73 1005.5,-422.54"/>
<polygon fill="gray" stroke="gray" points="1009,-422.62 1005.5,-412.62 1002,-422.62 1009,-422.62"/>
</g>
<!-- 20425 -->
<g id="node6" class="node">
<title>20425</title>
<g id="a_node6"><a xlink:href="https://www.openu.ac.il/courses/20425.htm" xlink:title="הסתברות\nסטטיסטיקה">
<polygon fill="#fff2cc" stroke="#916f0c" points="1011,-339 932,-339 932,-298 1011,-298 1011,-339"/>
<text text-anchor="middle" x="971.5" y="-321.7" font-family="Arial" font-size="14.00">הסתברות</text>
<text text-anchor="middle" x="971.5" y="-305.2" font-family="Arial" font-size="14.00">סטטיסטיקה</text>
</a>
</g>
</g>
<!-- 20475&#45;&gt;20425 -->
<g id="edge7" class="edge">
<title>20475&#45;&gt;20425</title>
<path fill="none" stroke="gray" d="M997.44,-374.82C993.9,-367.26 989.62,-358.15 985.58,-349.52"/>
<polygon fill="gray" stroke="gray" points="988.88,-348.32 981.47,-340.75 982.54,-351.29 988.88,-348.32"/>
</g>
<!-- 20462 -->
<g id="node26" class="node">
<title>20462</title>
<g id="a_node26"><a xlink:href="https://www.openu.ac.il/courses/20462.htm" xlink:title="נומרית 1">
<polygon fill="#f0f0f0" stroke="black" points="997.5,-259.5 933.5,-259.5 933.5,-223.5 997.5,-223.5 997.5,-259.5"/>
<text text-anchor="middle" x="965.5" y="-236.45" font-family="Arial" font-size="14.00">נומרית 1</text>
</a>
</g>
</g>
<!-- 20475&#45;&gt;20462 -->
<g id="edge31" class="edge">
<title>20475&#45;&gt;20462</title>
<path fill="none" stroke="gray" d="M1013.63,-374.72C1021.53,-355.36 1030.94,-323.37 1020.5,-298 1015.77,-286.5 1007.37,-276.11 998.54,-267.52"/>
<polygon fill="gray" stroke="gray" points="1000.93,-264.98 991.17,-260.87 996.25,-270.17 1000.93,-264.98"/>
</g>
<!-- 20109 -->
<g id="node4" class="node">
<title>20109</title>
<g id="a_node4"><a xlink:href="https://www.openu.ac.il/courses/20109.htm" xlink:title="לינארית 1">
<polygon fill="#fff2cc" stroke="#916f0c" points="764.88,-336.5 694.12,-336.5 694.12,-300.5 764.88,-300.5 764.88,-336.5"/>
<text text-anchor="middle" x="729.5" y="-313.45" font-family="Arial" font-size="14.00">לינארית 1</text>
</a>
</g>
</g>
<!-- 20229 -->
<g id="node5" class="node">
<title>20229</title>
<g id="a_node5"><a xlink:href="https://www.openu.ac.il/courses/20229.htm" xlink:title="לינארית 2">
<polygon fill="#fff2cc" stroke="#916f0c" points="811.88,-259.5 741.12,-259.5 741.12,-223.5 811.88,-223.5 811.88,-259.5"/>
<text text-anchor="middle" x="776.5" y="-236.45" font-family="Arial" font-size="14.00">לינארית 2</text>
</a>
</g>
</g>
<!-- 20109&#45;&gt;20229 -->
<g id="edge13" class="edge">
<title>20109&#45;&gt;20229</title>
<path fill="none" stroke="gray" d="M740.4,-300.1C746.1,-291.02 753.19,-279.69 759.58,-269.5"/>
<polygon fill="gray" stroke="gray" points="762.51,-271.42 764.85,-261.08 756.58,-267.7 762.51,-271.42"/>
</g>
<!-- 20417 -->
<g id="node12" class="node">
<title>20417</title>
<g id="a_node12"><a xlink:href="https://www.openu.ac.il/courses/20417.htm" xlink:title="אלגוריתמים">
<polygon fill="#d6ddff" stroke="#0d32b2" points="723,-259.5 644,-259.5 644,-223.5 723,-223.5 723,-259.5"/>
<text text-anchor="middle" x="683.5" y="-236.45" font-family="Arial" font-size="14.00">אלגוריתמים</text>
</a>
</g>
</g>
<!-- 20109&#45;&gt;20417 -->
<g id="edge15" class="edge">
<title>20109&#45;&gt;20417</title>
<path fill="none" stroke="gray" d="M718.83,-300.1C713.26,-291.02 706.31,-279.69 700.06,-269.5"/>
<polygon fill="gray" stroke="gray" points="703.11,-267.79 694.9,-261.09 697.15,-271.45 703.11,-267.79"/>
</g>
<!-- 20296 -->
<g id="node19" class="node">
<title>20296</title>
<g id="a_node19"><a xlink:href="https://www.openu.ac.il/courses/20296.htm" xlink:title="תורת הקודים">
<polygon fill="#f0f0f0" stroke="black" points="915.38,-259.5 829.62,-259.5 829.62,-223.5 915.38,-223.5 915.38,-259.5"/>
<text text-anchor="middle" x="872.5" y="-236.45" font-family="Arial" font-size="14.00">תורת הקודים</text>
</a>
</g>
</g>
<!-- 20109&#45;&gt;20296 -->
<g id="edge9" class="edge">
<title>20109&#45;&gt;20296</title>
<path fill="none" stroke="gray" d="M762.67,-300.1C782.52,-289.69 807.97,-276.34 829.37,-265.12"/>
<polygon fill="gray" stroke="gray" points="830.94,-268.25 838.17,-260.5 827.69,-262.05 830.94,-268.25"/>
</g>
<!-- 20109&#45;&gt;20462 -->
<g id="edge32" class="edge">
<title>20109&#45;&gt;20462</title>
<path fill="none" stroke="gray" d="M765.15,-302.66C769.61,-300.99 774.14,-299.4 778.5,-298 838.91,-278.63 859.47,-283.84 922.57,-262.34"/>
<polygon fill="gray" stroke="gray" points="923.37,-265.76 931.65,-259.15 921.06,-259.16 923.37,-265.76"/>
</g>
<!-- 20562 -->
<g id="node29" class="node">
<title>20562</title>
<g id="a_node29"><a xlink:href="https://www.openu.ac.il/courses/20562.htm" xlink:title="גרפיקה ממוחשבת">
<polygon fill="#f0f0f0" stroke="black" points="549.25,-259.5 435.75,-259.5 435.75,-223.5 549.25,-223.5 549.25,-259.5"/>
<text text-anchor="middle" x="492.5" y="-236.45" font-family="Arial" font-size="14.00">גרפיקה ממוחשבת</text>
</a>
</g>
</g>
<!-- 20109&#45;&gt;20562 -->
<g id="edge36" class="edge">
<title>20109&#45;&gt;20562</title>
<path fill="none" stroke="gray" d="M693.76,-306.19C658,-294.87 602.15,-277.2 558.35,-263.34"/>
<polygon fill="gray" stroke="gray" points="559.52,-260.04 548.93,-260.36 557.41,-266.71 559.52,-260.04"/>
</g>
<!-- 20944 -->
<g id="node24" class="node">
<title>20944</title>
<g id="a_node24"><a xlink:href="https://www.openu.ac.il/courses/20944.htm" xlink:title="רובוטיקה\nאלגוריתמית">
<polygon fill="#f0f0f0" stroke="black" points="817.38,-185 737.62,-185 737.62,-144 817.38,-144 817.38,-185"/>
<text text-anchor="middle" x="777.5" y="-167.7" font-family="Arial" font-size="14.00">רובוטיקה</text>
<text text-anchor="middle" x="777.5" y="-151.2" font-family="Arial" font-size="14.00">אלגוריתמית</text>
</a>
</g>
</g>
<!-- 20229&#45;&gt;20944 -->
<g id="edge49" class="edge">
<title>20229&#45;&gt;20944</title>
<path fill="none" stroke="gray" d="M776.73,-223.1C776.84,-215.28 776.96,-205.8 777.08,-196.81"/>
<polygon fill="gray" stroke="gray" points="780.58,-197.01 777.21,-186.96 773.58,-196.92 780.58,-197.01"/>
</g>
<!-- 20425&#45;&gt;20417 -->
<g id="edge14" class="edge">
<title>20425&#45;&gt;20417</title>
<path fill="none" stroke="gray" d="M931.64,-300.61C928.91,-299.67 926.18,-298.79 923.5,-298 844.03,-274.62 817.62,-285.12 734.39,-262.23"/>
<polygon fill="gray" stroke="gray" points="735.42,-258.88 724.85,-259.52 733.51,-265.62 735.42,-258.88"/>
</g>
<!-- 20942 -->
<g id="node21" class="node">
<title>20942</title>
<g id="a_node21"><a xlink:href="https://www.openu.ac.il/courses/20942.htm" xlink:title="מ&#39; ללמידה חישובית">
<polygon fill="#f0f0f0" stroke="black" points="1121.88,-108 1003.12,-108 1003.12,-72 1121.88,-72 1121.88,-108"/>
<text text-anchor="middle" x="1062.5" y="-84.95" font-family="Arial" font-size="14.00">מ&#39; ללמידה חישובית</text>
</a>
</g>
</g>
<!-- 20425&#45;&gt;20942 -->
<g id="edge44" class="edge">
<title>20425&#45;&gt;20942</title>
<path fill="none" stroke="gray" d="M994.96,-297.74C1005.16,-287.97 1016.37,-275.41 1023.5,-262 1047.98,-215.94 1057.16,-154.96 1060.56,-119.64"/>
<polygon fill="gray" stroke="gray" points="1064.03,-120.06 1061.4,-109.8 1057.06,-119.46 1064.03,-120.06"/>
</g>
<!-- 20471 -->
<g id="node9" class="node">
<title>20471</title>
<g id="a_node9"><a xlink:href="https://www.openu.ac.il/courses/20471.htm" xlink:title="ארגון המחשב">
<polygon fill="#d6ddff" stroke="#0d32b2" points="417.25,-259.5 327.75,-259.5 327.75,-223.5 417.25,-223.5 417.25,-259.5"/>
<text text-anchor="middle" x="372.5" y="-236.45" font-family="Arial" font-size="14.00">ארגון המחשב</text>
</a>
</g>
</g>
<!-- 20407&#45;&gt;20471 -->
<g id="edge25" class="edge">
<title>20407&#45;&gt;20471</title>
<path fill="none" stroke="gray" d="M394.01,-300.1C390.72,-291.3 386.65,-280.4 382.94,-270.46"/>
<polygon fill="gray" stroke="gray" points="386.26,-269.36 379.49,-261.22 379.71,-271.81 386.26,-269.36"/>
</g>
<!-- 20407&#45;&gt;20417 -->
<g id="edge16" class="edge">
<title>20407&#45;&gt;20417</title>
<path fill="none" stroke="gray" d="M427.89,-310.24C475.2,-297.7 572.88,-271.82 632.85,-255.92"/>
<polygon fill="gray" stroke="gray" points="633.72,-259.31 642.49,-253.37 631.92,-252.55 633.72,-259.31"/>
</g>
<!-- 20277 -->
<g id="node22" class="node">
<title>20277</title>
<g id="a_node22"><a xlink:href="https://www.openu.ac.il/courses/20277.htm" xlink:title="מע&#39; בסיסי נתונים">
<polygon fill="#f0f0f0" stroke="black" points="209.5,-259.5 103.5,-259.5 103.5,-223.5 209.5,-223.5 209.5,-259.5"/>
<text text-anchor="middle" x="156.5" y="-236.45" font-family="Arial" font-size="14.00">מע&#39; בסיסי נתונים</text>
</a>
</g>
</g>
<!-- 20407&#45;&gt;20277 -->
<g id="edge10" class="edge">
<title>20407&#45;&gt;20277</title>
<path fill="none" stroke="gray" d="M373.04,-309.21C339.4,-299.03 280.42,-281.13 220.69,-262.67"/>
<polygon fill="gray" stroke="gray" points="221.96,-259.4 211.37,-259.78 219.89,-266.08 221.96,-259.4"/>
</g>
<!-- 20554 -->
<g id="node25" class="node">
<title>20554</title>
<g id="a_node25"><a xlink:href="https://www.openu.ac.il/courses/20554.htm" xlink:title="תכ&#39; מתקדם \n Java">
<polygon fill="#f0f0f0" stroke="black" points="309.88,-262 227.12,-262 227.12,-221 309.88,-221 309.88,-262"/>
<text text-anchor="middle" x="268.5" y="-244.7" font-family="Arial" font-size="14.00">תכ&#39; מתקדם </text>
<text text-anchor="middle" x="268.5" y="-228.2" font-family="Arial" font-size="14.00"> Java</text>
</a>
</g>
</g>
<!-- 20407&#45;&gt;20554 -->
<g id="edge33" class="edge">
<title>20407&#45;&gt;20554</title>
<path fill="none" stroke="gray" d="M373.15,-301.96C355.84,-292.12 333.05,-279.17 313.15,-267.87"/>
<polygon fill="gray" stroke="gray" points="315.1,-264.95 304.68,-263.05 311.64,-271.04 315.1,-264.95"/>
</g>
<!-- 20407&#45;&gt;20562 -->
<g id="edge38" class="edge">
<title>20407&#45;&gt;20562</title>
<path fill="none" stroke="gray" d="M421.84,-300.1C433.91,-290.26 449.21,-277.79 462.48,-266.97"/>
<polygon fill="gray" stroke="gray" points="464.57,-269.79 470.1,-260.76 460.14,-264.36 464.57,-269.79"/>
</g>
<!-- 20906 -->
<g id="node31" class="node">
<title>20906</title>
<g id="a_node31"><a xlink:href="https://www.openu.ac.il/courses/20906.htm" xlink:title="תכ&#39; מונחה עצמים">
<polygon fill="#f0f0f0" stroke="black" points="109,-182.5 0,-182.5 0,-146.5 109,-146.5 109,-182.5"/>
<text text-anchor="middle" x="54.5" y="-159.45" font-family="Arial" font-size="14.00">תכ&#39; מונחה עצמים</text>
</a>
</g>
</g>
<!-- 20407&#45;&gt;20906 -->
<g id="edge41" class="edge">
<title>20407&#45;&gt;20906</title>
<path fill="none" stroke="gray" d="M373.06,-315.84C306.23,-311.29 137.37,-296.57 94.5,-262 73.68,-245.21 63.57,-215.73 58.74,-193.76"/>
<polygon fill="gray" stroke="gray" points="62.24,-193.4 56.91,-184.25 55.37,-194.73 62.24,-193.4"/>
</g>
<!-- 20905 -->
<g id="node8" class="node">
<title>20905</title>
<g id="a_node8"><a xlink:href="https://www.openu.ac.il/courses/20905.htm" xlink:title="שפות תכנות">
<polygon fill="#d6ddff" stroke="#0d32b2" points="450.5,-36 368.5,-36 368.5,0 450.5,0 450.5,-36"/>
<text text-anchor="middle" x="409.5" y="-12.95" font-family="Arial" font-size="14.00">שפות תכנות</text>
</a>
</g>
</g>
<!-- 20594 -->
<g id="node15" class="node">
<title>20594</title>
<g id="a_node15"><a xlink:href="https://www.openu.ac.il/courses/20594.htm" xlink:title="מע&#39; הפעלה">
<polygon fill="#d6ddff" stroke="#0d32b2" points="419.88,-182.5 343.12,-182.5 343.12,-146.5 419.88,-146.5 419.88,-182.5"/>
<text text-anchor="middle" x="381.5" y="-159.45" font-family="Arial" font-size="14.00">מע&#39; הפעלה</text>
</a>
</g>
</g>
<!-- 20471&#45;&gt;20594 -->
<g id="edge12" class="edge">
<title>20471&#45;&gt;20594</title>
<path fill="none" stroke="gray" d="M374.59,-223.1C375.62,-214.49 376.9,-203.87 378.07,-194.1"/>
<polygon fill="gray" stroke="gray" points="381.53,-194.65 379.24,-184.3 374.58,-193.82 381.53,-194.65"/>
</g>
<!-- 20441 -->
<g id="node10" class="node">
<title>20441</title>
<g id="a_node10"><a xlink:href="https://www.openu.ac.il/courses/20441.htm" xlink:title="מבוא Java">
<polygon fill="#d6ddff" stroke="#0d32b2" points="588.5,-411 512.5,-411 512.5,-375 588.5,-375 588.5,-411"/>
<text text-anchor="middle" x="550.5" y="-387.95" font-family="Arial" font-size="14.00">מבוא Java</text>
</a>
</g>
</g>
<!-- 20441&#45;&gt;20407 -->
<g id="edge2" class="edge">
<title>20441&#45;&gt;20407</title>
<path fill="none" stroke="gray" d="M514.57,-374.63C491.42,-363.45 461.38,-348.93 437.94,-337.6"/>
<polygon fill="gray" stroke="gray" points="439.57,-334.5 429.05,-333.3 436.53,-340.8 439.57,-334.5"/>
</g>
<!-- 20465 -->
<g id="node11" class="node">
<title>20465</title>
<g id="a_node11"><a xlink:href="https://www.openu.ac.il/courses/20465.htm" xlink:title="מעבדה בתכנות">
<polygon fill="#d6ddff" stroke="#0d32b2" points="600.12,-336.5 500.88,-336.5 500.88,-300.5 600.12,-300.5 600.12,-336.5"/>
<text text-anchor="middle" x="550.5" y="-313.45" font-family="Arial" font-size="14.00">מעבדה בתכנות</text>
</a>
</g>
</g>
<!-- 20441&#45;&gt;20465 -->
<g id="edge4" class="edge">
<title>20441&#45;&gt;20465</title>
<path fill="none" stroke="gray" d="M550.5,-374.82C550.5,-366.78 550.5,-357 550.5,-347.91"/>
<polygon fill="gray" stroke="gray" points="554,-348.07 550.5,-338.07 547,-348.07 554,-348.07"/>
</g>
<!-- 20441&#45;&gt;20462 -->
<g id="edge30" class="edge">
<title>20441&#45;&gt;20462</title>
<path fill="none" stroke="gray" d="M588.9,-389.66C635.44,-385.36 714.9,-373.2 773.5,-339 794.96,-326.48 790.53,-311.32 811.5,-298 853.12,-271.56 872.86,-280.03 922.34,-262.47"/>
<polygon fill="gray" stroke="gray" points="923.46,-265.78 931.59,-258.98 920.99,-259.23 923.46,-265.78"/>
</g>
<!-- 20465&#45;&gt;20471 -->
<g id="edge1" class="edge">
<title>20465&#45;&gt;20471</title>
<path fill="none" stroke="gray" d="M509.22,-300.1C483.92,-289.45 451.32,-275.71 424.3,-264.33"/>
<polygon fill="gray" stroke="gray" points="425.84,-261.18 415.26,-260.52 423.12,-267.63 425.84,-261.18"/>
</g>
<!-- 20946 -->
<g id="node18" class="node">
<title>20946</title>
<g id="a_node18"><a xlink:href="https://www.openu.ac.il/courses/20946.htm" xlink:title="מ&#39; לבדיקות תוכנה">
<polygon fill="#f0f0f0" stroke="black" points="633.12,-108 521.88,-108 521.88,-72 633.12,-72 633.12,-108"/>
<text text-anchor="middle" x="577.5" y="-84.95" font-family="Arial" font-size="14.00">מ&#39; לבדיקות תוכנה</text>
</a>
</g>
</g>
<!-- 20465&#45;&gt;20946 -->
<g id="edge23" class="edge">
<title>20465&#45;&gt;20946</title>
<path fill="none" stroke="gray" d="M553.17,-300.02C554.8,-289.1 556.87,-274.75 558.5,-262 564.9,-211.86 571.14,-153.29 574.64,-119.34"/>
<polygon fill="gray" stroke="gray" points="578.1,-119.82 575.64,-109.52 571.14,-119.11 578.1,-119.82"/>
</g>
<!-- 20465&#45;&gt;20562 -->
<g id="edge37" class="edge">
<title>20465&#45;&gt;20562</title>
<path fill="none" stroke="gray" d="M537.05,-300.1C529.87,-290.83 520.9,-279.22 512.89,-268.86"/>
<polygon fill="gray" stroke="gray" points="515.69,-266.77 506.81,-261 510.15,-271.05 515.69,-266.77"/>
</g>
<!-- 20364 -->
<g id="node32" class="node">
<title>20364</title>
<g id="a_node32"><a xlink:href="https://www.openu.ac.il/courses/20364.htm" xlink:title="קומפילציה">
<polygon fill="#f0f0f0" stroke="black" points="721.5,-108 651.5,-108 651.5,-72 721.5,-72 721.5,-108"/>
<text text-anchor="middle" x="686.5" y="-84.95" font-family="Arial" font-size="14.00">קומפילציה</text>
</a>
</g>
</g>
<!-- 20465&#45;&gt;20364 -->
<g id="edge24" class="edge">
<title>20465&#45;&gt;20364</title>
<path fill="none" stroke="gray" d="M558.03,-300.15C574.8,-261.87 615.24,-171.37 634.5,-144 641.4,-134.2 650.15,-124.52 658.49,-116.18"/>
<polygon fill="gray" stroke="gray" points="660.78,-118.84 665.53,-109.37 655.91,-113.81 660.78,-118.84"/>
</g>
<!-- 20604 -->
<g id="node13" class="node">
<title>20604</title>
<g id="a_node13"><a xlink:href="https://www.openu.ac.il/courses/20604.htm" xlink:title="מודלים חישוביים">
<polygon fill="#d6ddff" stroke="#0d32b2" points="937.62,-182.5 835.38,-182.5 835.38,-146.5 937.62,-146.5 937.62,-182.5"/>
<text text-anchor="middle" x="886.5" y="-159.45" font-family="Arial" font-size="14.00">מודלים חישוביים</text>
</a>
</g>
</g>
<!-- 20417&#45;&gt;20604 -->
<g id="edge17" class="edge">
<title>20417&#45;&gt;20604</title>
<path fill="none" stroke="gray" d="M723.3,-224.53C726.41,-223.33 729.5,-222.14 732.5,-221 763.25,-209.34 797.67,-196.89 826.15,-186.73"/>
<polygon fill="gray" stroke="gray" points="827.08,-190.12 835.33,-183.47 824.74,-183.52 827.08,-190.12"/>
</g>
<!-- 20595 -->
<g id="node17" class="node">
<title>20595</title>
<g id="a_node17"><a xlink:href="https://www.openu.ac.il/courses/20595.htm" xlink:title="כריית מידע">
<polygon fill="#f0f0f0" stroke="black" points="719.12,-182.5 643.88,-182.5 643.88,-146.5 719.12,-146.5 719.12,-182.5"/>
<text text-anchor="middle" x="681.5" y="-159.45" font-family="Arial" font-size="14.00">כריית מידע</text>
</a>
</g>
</g>
<!-- 20417&#45;&gt;20595 -->
<g id="edge18" class="edge">
<title>20417&#45;&gt;20595</title>
<path fill="none" stroke="gray" d="M683.04,-223.1C682.81,-214.49 682.52,-203.87 682.26,-194.1"/>
<polygon fill="gray" stroke="gray" points="685.77,-194.22 682,-184.31 678.77,-194.4 685.77,-194.22"/>
</g>
<!-- 20582 -->
<g id="node23" class="node">
<title>20582</title>
<g id="a_node23"><a xlink:href="https://www.openu.ac.il/courses/20582.htm" xlink:title="מ&#39; לרשתות ת&#39;&#39;מ">
<polygon fill="#f0f0f0" stroke="black" points="541,-182.5 438,-182.5 438,-146.5 541,-146.5 541,-182.5"/>
<text text-anchor="middle" x="489.5" y="-159.45" font-family="Arial" font-size="14.00">מ&#39; לרשתות ת&#39;&#39;מ</text>
</a>
</g>
</g>
<!-- 20417&#45;&gt;20582 -->
<g id="edge21" class="edge">
<title>20417&#45;&gt;20582</title>
<path fill="none" stroke="gray" d="M643.77,-225.14C615.29,-214.13 576.54,-199.15 545,-186.96"/>
<polygon fill="gray" stroke="gray" points="546.61,-183.83 536.02,-183.48 544.08,-190.35 546.61,-183.83"/>
</g>
<!-- 20417&#45;&gt;20944 -->
<g id="edge27" class="edge">
<title>20417&#45;&gt;20944</title>
<path fill="none" stroke="gray" d="M705.3,-223.1C716.65,-214.05 730.78,-202.78 743.52,-192.61"/>
<polygon fill="gray" stroke="gray" points="745.68,-195.37 751.31,-186.39 741.31,-189.9 745.68,-195.37"/>
</g>
<!-- 20604&#45;&gt;20946 -->
<g id="edge26" class="edge">
<title>20604&#45;&gt;20946</title>
<path fill="none" stroke="gray" d="M834.91,-146.29C832.07,-145.49 829.26,-144.71 826.5,-144 749.15,-123.94 725.65,-126.31 644.24,-108.3"/>
<polygon fill="gray" stroke="gray" points="645.47,-104.99 634.94,-106.21 643.93,-111.82 645.47,-104.99"/>
</g>
<!-- 20551 -->
<g id="node20" class="node">
<title>20551</title>
<g id="a_node20"><a xlink:href="https://www.openu.ac.il/courses/20551.htm" xlink:title="מ&#39; לבינה מלאכותית">
<polygon fill="#f0f0f0" stroke="black" points="984.25,-108 864.75,-108 864.75,-72 984.25,-72 984.25,-108"/>
<text text-anchor="middle" x="924.5" y="-84.95" font-family="Arial" font-size="14.00">מ&#39; לבינה מלאכותית</text>
</a>
</g>
</g>
<!-- 20604&#45;&gt;20551 -->
<g id="edge20" class="edge">
<title>20604&#45;&gt;20551</title>
<path fill="none" stroke="gray" d="M895.51,-146.32C899.91,-137.92 905.31,-127.62 910.25,-118.19"/>
<polygon fill="gray" stroke="gray" points="913.31,-119.88 914.86,-109.4 907.11,-116.63 913.31,-119.88"/>
</g>
<!-- 20604&#45;&gt;20942 -->
<g id="edge11" class="edge">
<title>20604&#45;&gt;20942</title>
<path fill="none" stroke="gray" d="M928.66,-146.13C952.97,-136.12 983.76,-123.44 1009.67,-112.76"/>
<polygon fill="gray" stroke="gray" points="1010.77,-116.1 1018.68,-109.05 1008.1,-109.62 1010.77,-116.1"/>
</g>
<!-- 20580 -->
<g id="node30" class="node">
<title>20580</title>
<g id="a_node30"><a xlink:href="https://www.openu.ac.il/courses/20580.htm" xlink:title="מ&#39; לקריפטוגרפיה">
<polygon fill="#f0f0f0" stroke="black" points="846.88,-108 740.12,-108 740.12,-72 846.88,-72 846.88,-108"/>
<text text-anchor="middle" x="793.5" y="-84.95" font-family="Arial" font-size="14.00">מ&#39; לקריפטוגרפיה</text>
</a>
</g>
</g>
<!-- 20604&#45;&gt;20580 -->
<g id="edge39" class="edge">
<title>20604&#45;&gt;20580</title>
<path fill="none" stroke="gray" d="M864.46,-146.32C852.5,-137 837.53,-125.32 824.42,-115.1"/>
<polygon fill="gray" stroke="gray" points="826.94,-112.63 816.9,-109.24 822.63,-118.15 826.94,-112.63"/>
</g>
<!-- 20604&#45;&gt;20364 -->
<g id="edge42" class="edge">
<title>20604&#45;&gt;20364</title>
<path fill="none" stroke="gray" d="M837.21,-146.1C809.15,-136.13 773.11,-123.24 732.55,-108.35"/>
<polygon fill="gray" stroke="gray" points="733.87,-105.11 723.27,-104.94 731.45,-111.68 733.87,-105.11"/>
</g>
<!-- 20466&#45;&gt;20604 -->
<g id="edge8" class="edge">
<title>20466&#45;&gt;20604</title>
<path fill="none" stroke="gray" d="M914.4,-300.2C953.64,-285.51 1003.69,-266.15 1006.5,-262 1016.72,-246.91 1016.31,-236.35 1006.5,-221 999.33,-209.78 974.01,-197.33 948.47,-187.07"/>
<polygon fill="gray" stroke="gray" points="949.94,-183.89 939.36,-183.52 947.4,-190.41 949.94,-183.89"/>
</g>
<!-- 20940 -->
<g id="node16" class="node">
<title>20940</title>
<g id="a_node16"><a xlink:href="https://www.openu.ac.il/courses/20940.htm" xlink:title="מ&#39; לאבטחת ה&#39;&#39;ה">
<polygon fill="#f0f0f0" stroke="black" points="504.12,-108 398.88,-108 398.88,-72 504.12,-72 504.12,-108"/>
<text text-anchor="middle" x="451.5" y="-84.95" font-family="Arial" font-size="14.00">מ&#39; לאבטחת ה&#39;&#39;ה</text>
</a>
</g>
</g>
<!-- 20594&#45;&gt;20940 -->
<g id="edge5" class="edge">
<title>20594&#45;&gt;20940</title>
<path fill="none" stroke="gray" d="M398.09,-146.32C406.81,-137.29 417.65,-126.05 427.29,-116.07"/>
<polygon fill="gray" stroke="gray" points="429.55,-118.77 433.98,-109.15 424.51,-113.91 429.55,-118.77"/>
</g>
<!-- 20937 -->
<g id="node28" class="node">
<title>20937</title>
<g id="a_node28"><a xlink:href="https://www.openu.ac.il/courses/20937.htm" xlink:title="תכ&#39; מע&#39; דפנסיבי">
<polygon fill="#f0f0f0" stroke="black" points="381,-108 278,-108 278,-72 381,-72 381,-108"/>
<text text-anchor="middle" x="329.5" y="-84.95" font-family="Arial" font-size="14.00">תכ&#39; מע&#39; דפנסיבי</text>
</a>
</g>
</g>
<!-- 20594&#45;&gt;20937 -->
<g id="edge34" class="edge">
<title>20594&#45;&gt;20937</title>
<path fill="none" stroke="gray" d="M369.18,-146.32C362.96,-137.65 355.28,-126.95 348.35,-117.28"/>
<polygon fill="gray" stroke="gray" points="351.29,-115.37 342.62,-109.29 345.6,-119.45 351.29,-115.37"/>
</g>
<!-- 20574 -->
<g id="node33" class="node">
<title>20574</title>
<g id="a_node33"><a xlink:href="https://www.openu.ac.il/courses/20574.htm" xlink:title="מע&#39; נתונים">
<polygon fill="#f0f0f0" stroke="black" points="216.62,-108 144.38,-108 144.38,-72 216.62,-72 216.62,-108"/>
<text text-anchor="middle" x="180.5" y="-84.95" font-family="Arial" font-size="14.00">מע&#39; נתונים</text>
</a>
</g>
</g>
<!-- 20594&#45;&gt;20574 -->
<g id="edge29" class="edge">
<title>20594&#45;&gt;20574</title>
<path fill="none" stroke="gray" d="M342.75,-149.52C309.87,-137.66 262.6,-120.61 227.56,-107.97"/>
<polygon fill="gray" stroke="gray" points="229.12,-104.82 218.53,-104.72 226.75,-111.4 229.12,-104.82"/>
</g>
<!-- 20277&#45;&gt;20574 -->
<g id="edge43" class="edge">
<title>20277&#45;&gt;20574</title>
<path fill="none" stroke="gray" d="M154.64,-223.19C153,-203.7 151.7,-171.2 157.5,-144 159.34,-135.37 162.63,-126.41 166.16,-118.36"/>
<polygon fill="gray" stroke="gray" points="169.26,-119.99 170.36,-109.45 162.93,-117.01 169.26,-119.99"/>
</g>
<!-- 20436 -->
<g id="node34" class="node">
<title>20436</title>
<g id="a_node34"><a xlink:href="https://www.openu.ac.il/courses/20436.htm" xlink:title="עק&#39; פיתוח מע&#39; מידע">
<polygon fill="#f0f0f0" stroke="black" points="287,-182.5 166,-182.5 166,-146.5 287,-146.5 287,-182.5"/>
<text text-anchor="middle" x="226.5" y="-159.45" font-family="Arial" font-size="14.00">עק&#39; פיתוח מע&#39; מידע</text>
</a>
</g>
</g>
<!-- 20277&#45;&gt;20436 -->
<g id="edge28" class="edge">
<title>20277&#45;&gt;20436</title>
<path fill="none" stroke="gray" d="M172.74,-223.1C181.66,-213.54 192.89,-201.51 202.78,-190.91"/>
<polygon fill="gray" stroke="gray" points="205.06,-193.61 209.32,-183.91 199.94,-188.83 205.06,-193.61"/>
</g>
<!-- 20582&#45;&gt;20940 -->
<g id="edge19" class="edge">
<title>20582&#45;&gt;20940</title>
<path fill="none" stroke="gray" d="M480.49,-146.32C476.09,-137.92 470.69,-127.62 465.75,-118.19"/>
<polygon fill="gray" stroke="gray" points="468.89,-116.63 461.14,-109.4 462.69,-119.88 468.89,-116.63"/>
</g>
<!-- 20582&#45;&gt;20937 -->
<g id="edge35" class="edge">
<title>20582&#45;&gt;20937</title>
<path fill="none" stroke="gray" d="M451.18,-146.13C429.37,-136.25 401.83,-123.77 378.47,-113.19"/>
<polygon fill="gray" stroke="gray" points="380,-110.04 369.44,-109.1 377.11,-116.42 380,-110.04"/>
</g>
<!-- 20554&#45;&gt;20937 -->
<g id="edge40" class="edge">
<title>20554&#45;&gt;20937</title>
<path fill="none" stroke="gray" d="M279.24,-220.76C284.74,-210.29 291.34,-197.11 296.5,-185 305.76,-163.25 314.53,-137.94 320.7,-119.07"/>
<polygon fill="gray" stroke="gray" points="324,-120.27 323.73,-109.68 317.33,-118.12 324,-120.27"/>
</g>
<!-- 20462&#45;&gt;20944 -->
<g id="edge46" class="edge">
<title>20462&#45;&gt;20944</title>
<path fill="none" stroke="gray" d="M933.4,-224.89C930.41,-223.54 927.41,-222.22 924.5,-221 884.82,-204.32 871.72,-201.87 828.51,-185.7"/>
<polygon fill="gray" stroke="gray" points="829.85,-182.46 819.26,-182.19 827.37,-189.01 829.85,-182.46"/>
</g>
<!-- 20900 -->
<g id="node27" class="node">
<title>20900</title>
<g id="a_node27"><a xlink:href="https://www.openu.ac.il/courses/20900.htm" xlink:title="נומרית 2">
<polygon fill="#f0f0f0" stroke="black" points="1019.5,-182.5 955.5,-182.5 955.5,-146.5 1019.5,-146.5 1019.5,-182.5"/>
<text text-anchor="middle" x="987.5" y="-159.45" font-family="Arial" font-size="14.00">נומרית 2</text>
</a>
</g>
</g>
<!-- 20462&#45;&gt;20900 -->
<g id="edge45" class="edge">
<title>20462&#45;&gt;20900</title>
<path fill="none" stroke="gray" d="M970.6,-223.1C973.16,-214.4 976.31,-203.63 979.21,-193.78"/>
<polygon fill="gray" stroke="gray" points="982.54,-194.83 982,-184.25 975.83,-192.86 982.54,-194.83"/>
</g>
<!-- 20906&#45;&gt;20905 -->
<g id="edge47" class="edge">
<title>20906&#45;&gt;20905</title>
<path fill="none" stroke="gray" d="M64.7,-146.25C78.14,-125.17 103.81,-90.09 135.5,-72 204.98,-32.34 298.83,-21.79 356.7,-19.3"/>
<polygon fill="gray" stroke="gray" points="356.75,-22.8 366.61,-18.95 356.5,-15.81 356.75,-22.8"/>
</g>
<!-- 20364&#45;&gt;20905 -->
<g id="edge48" class="edge">
<title>20364&#45;&gt;20905</title>
<path fill="none" stroke="gray" d="M651.11,-74.82C648.22,-73.82 645.32,-72.86 642.5,-72 581.47,-53.38 509.66,-38 462.06,-28.69"/>
<polygon fill="gray" stroke="gray" points="462.77,-25.26 452.29,-26.8 461.44,-32.13 462.77,-25.26"/>
</g>
</g>
</svg>
