<?xml version="1.0" encoding="UTF-8" standalone="no"?>
<!DOCTYPE svg PUBLIC "-//W3C//DTD SVG 1.1//EN"
 "http://www.w3.org/Graphics/SVG/1.1/DTD/svg11.dtd">
<!-- Generated by graphviz version 12.2.1 (20241206.2353)
 -->
<!-- Title: CS_Course_Dependencies Pages: 1 -->
<svg width="1943pt" height="483pt"
 viewBox="0.00 0.00 1942.50 483.00" xmlns="http://www.w3.org/2000/svg" xmlns:xlink="http://www.w3.org/1999/xlink">
<g id="graph0" class="graph" transform="scale(1 1) rotate(0) translate(4 479)">
<title>CS_Course_Dependencies</title>
<!-- 20476 -->
<g id="node1" class="node">
<title>20476</title>
<g id="a_node1"><a xlink:href="https://www.openu.ac.il/courses/20476.htm" xlink:title="20476">
<polygon fill="#fff2cc" stroke="#916f0c" points="772.5,-365.5 772.5,-401.5 853.25,-401.5 853.25,-365.5 772.5,-365.5"/>
<text text-anchor="start" x="780.5" y="-377.68" font-family="Arial" font-size="16.00">בדידה</text>
<polyline fill="none" stroke="#916f0c" points="827.5,-365.5 827.5,-401.5"/>
<text text-anchor="start" x="835.5" y="-378.1" font-family="Arial" font-weight="bold" font-size="17.00">4</text>
</a>
</g>
</g>
<!-- 20407 -->
<g id="node7" class="node">
<title>20407</title>
<g id="a_node7"><a xlink:href="https://www.openu.ac.il/courses/20407.htm" xlink:title="20407">
<polygon fill="#d6ddff" stroke="#0d32b2" points="605.75,-292.5 605.75,-328.5 826,-328.5 826,-292.5 605.75,-292.5"/>
<text text-anchor="start" x="613.75" y="-304.68" font-family="Arial" font-size="16.00">מבני נתונים ומ&#39; לאלגוריתמים</text>
<polyline fill="none" stroke="#0d32b2" points="800.25,-292.5 800.25,-328.5"/>
<text text-anchor="start" x="808.25" y="-305.1" font-family="Arial" font-weight="bold" font-size="17.00">5</text>
</a>
</g>
</g>
<!-- 20476&#45;&gt;20407 -->
<g id="edge23" class="edge">
<title>20476&#45;&gt;20407</title>
<path fill="none" stroke="black" d="M789.39,-365.31C777.09,-356.31 761.84,-345.14 748.42,-335.32"/>
<polygon fill="black" stroke="black" points="750.83,-332.75 740.7,-329.67 746.7,-338.4 750.83,-332.75"/>
</g>
<!-- 20466 -->
<g id="node14" class="node">
<title>20466</title>
<g id="a_node14"><a xlink:href="https://www.openu.ac.il/courses/20466.htm" xlink:title="20466">
<polygon fill="#d6ddff" stroke="#0d32b2" points="844,-292.5 844,-328.5 975.75,-328.5 975.75,-292.5 844,-292.5"/>
<text text-anchor="start" x="852" y="-304.68" font-family="Arial" font-size="16.00">לוגיקה למדמח</text>
<polyline fill="none" stroke="#0d32b2" points="950,-292.5 950,-328.5"/>
<text text-anchor="start" x="958" y="-305.1" font-family="Arial" font-weight="bold" font-size="17.00">4</text>
</a>
</g>
</g>
<!-- 20476&#45;&gt;20466 -->
<g id="edge8" class="edge">
<title>20476&#45;&gt;20466</title>
<path fill="none" stroke="black" d="M836.36,-365.31C848.66,-356.31 863.91,-345.14 877.33,-335.32"/>
<polygon fill="black" stroke="black" points="879.05,-338.4 885.05,-329.67 874.92,-332.75 879.05,-338.4"/>
</g>
<!-- 20474 -->
<g id="node2" class="node">
<title>20474</title>
<g id="a_node2"><a xlink:href="https://www.openu.ac.il/courses/20474.htm" xlink:title="20474">
<polygon fill="#fff2cc" stroke="#916f0c" points="1609.5,-438.5 1609.5,-474.5 1696.25,-474.5 1696.25,-438.5 1609.5,-438.5"/>
<text text-anchor="start" x="1617.5" y="-450.68" font-family="Arial" font-size="16.00">אינפי 1</text>
<polyline fill="none" stroke="#916f0c" points="1670.5,-438.5 1670.5,-474.5"/>
<text text-anchor="start" x="1678.5" y="-451.1" font-family="Arial" font-weight="bold" font-size="17.00">7</text>
</a>
</g>
</g>
<!-- 20475 -->
<g id="node3" class="node">
<title>20475</title>
<g id="a_node3"><a xlink:href="https://www.openu.ac.il/courses/20475.htm" xlink:title="20475">
<polygon fill="#fff2cc" stroke="#916f0c" points="1609.5,-365.5 1609.5,-401.5 1696.25,-401.5 1696.25,-365.5 1609.5,-365.5"/>
<text text-anchor="start" x="1617.5" y="-377.68" font-family="Arial" font-size="16.00">אינפי 2</text>
<polyline fill="none" stroke="#916f0c" points="1670.5,-365.5 1670.5,-401.5"/>
<text text-anchor="start" x="1678.5" y="-378.1" font-family="Arial" font-weight="bold" font-size="17.00">7</text>
</a>
</g>
</g>
<!-- 20474&#45;&gt;20475 -->
<g id="edge5" class="edge">
<title>20474&#45;&gt;20475</title>
<path fill="none" stroke="black" d="M1652.88,-438.31C1652.88,-430.73 1652.88,-421.6 1652.88,-413.04"/>
<polygon fill="black" stroke="black" points="1656.38,-413.04 1652.88,-403.04 1649.38,-413.04 1656.38,-413.04"/>
</g>
<!-- 20425 -->
<g id="node6" class="node">
<title>20425</title>
<g id="a_node6"><a xlink:href="https://www.openu.ac.il/courses/20425.htm" xlink:title="20425">
<polygon fill="#fff2cc" stroke="#916f0c" points="1357.62,-292.5 1357.62,-328.5 1556.12,-328.5 1556.12,-292.5 1357.62,-292.5"/>
<text text-anchor="start" x="1365.62" y="-304.68" font-family="Arial" font-size="16.00">מ&#39; הסתברות&#45;סטטיסטיקה</text>
<polyline fill="none" stroke="#916f0c" points="1530.38,-292.5 1530.38,-328.5"/>
<text text-anchor="start" x="1538.38" y="-305.1" font-family="Arial" font-weight="bold" font-size="17.00">5</text>
</a>
</g>
</g>
<!-- 20475&#45;&gt;20425 -->
<g id="edge6" class="edge">
<title>20475&#45;&gt;20425</title>
<path fill="none" stroke="black" d="M1609.38,-366.74C1581.85,-356.77 1545.92,-343.76 1515.85,-332.86"/>
<polygon fill="black" stroke="black" points="1517.08,-329.59 1506.49,-329.47 1514.7,-336.17 1517.08,-329.59"/>
</g>
<!-- 20462 -->
<g id="node26" class="node">
<title>20462</title>
<g id="a_node26"><a xlink:href="https://www.openu.ac.il/courses/20462.htm" xlink:title="20462">
<polygon fill="#f0f0f0" stroke="black" points="1837.25,-219.5 1837.25,-255.5 1934.5,-255.5 1934.5,-219.5 1837.25,-219.5"/>
<text text-anchor="start" x="1845.25" y="-231.68" font-family="Arial" font-size="16.00">נומרית 1</text>
<polyline fill="none" stroke="black" points="1908.75,-219.5 1908.75,-255.5"/>
<text text-anchor="start" x="1916.75" y="-232.1" font-family="Arial" font-weight="bold" font-size="17.00">4</text>
</a>
</g>
</g>
<!-- 20475&#45;&gt;20462 -->
<g id="edge32" class="edge">
<title>20475&#45;&gt;20462</title>
<path fill="none" stroke="black" d="M1696.59,-370.4C1724.81,-361.45 1761.59,-347.59 1790.88,-329 1818.89,-311.22 1845.79,-284.37 1863.77,-264.52"/>
<polygon fill="black" stroke="black" points="1866.34,-266.89 1870.37,-257.09 1861.11,-262.25 1866.34,-266.89"/>
</g>
<!-- 20109 -->
<g id="node4" class="node">
<title>20109</title>
<g id="a_node4"><a xlink:href="https://www.openu.ac.il/courses/20109.htm" xlink:title="20109">
<polygon fill="#fff2cc" stroke="#916f0c" points="1573.88,-292.5 1573.88,-328.5 1677.88,-328.5 1677.88,-292.5 1573.88,-292.5"/>
<text text-anchor="start" x="1581.88" y="-304.68" font-family="Arial" font-size="16.00">לינארית 1</text>
<polyline fill="none" stroke="#916f0c" points="1652.12,-292.5 1652.12,-328.5"/>
<text text-anchor="start" x="1660.12" y="-305.1" font-family="Arial" font-weight="bold" font-size="17.00">7</text>
</a>
</g>
</g>
<!-- 20229 -->
<g id="node5" class="node">
<title>20229</title>
<g id="a_node5"><a xlink:href="https://www.openu.ac.il/courses/20229.htm" xlink:title="20229">
<polygon fill="#fff2cc" stroke="#916f0c" points="1573.88,-219.5 1573.88,-255.5 1677.88,-255.5 1677.88,-219.5 1573.88,-219.5"/>
<text text-anchor="start" x="1581.88" y="-231.68" font-family="Arial" font-size="16.00">לינארית 2</text>
<polyline fill="none" stroke="#916f0c" points="1652.12,-219.5 1652.12,-255.5"/>
<text text-anchor="start" x="1660.12" y="-232.1" font-family="Arial" font-weight="bold" font-size="17.00">5</text>
</a>
</g>
</g>
<!-- 20109&#45;&gt;20229 -->
<g id="edge14" class="edge">
<title>20109&#45;&gt;20229</title>
<path fill="none" stroke="black" d="M1625.88,-292.31C1625.88,-284.73 1625.88,-275.6 1625.88,-267.04"/>
<polygon fill="black" stroke="black" points="1629.38,-267.04 1625.88,-257.04 1622.38,-267.04 1629.38,-267.04"/>
</g>
<!-- 20417 -->
<g id="node12" class="node">
<title>20417</title>
<g id="a_node12"><a xlink:href="https://www.openu.ac.il/courses/20417.htm" xlink:title="20417">
<polygon fill="#d6ddff" stroke="#0d32b2" points="1261.62,-219.5 1261.62,-255.5 1376.12,-255.5 1376.12,-219.5 1261.62,-219.5"/>
<text text-anchor="start" x="1269.62" y="-231.68" font-family="Arial" font-size="16.00">אלגוריתמים</text>
<polyline fill="none" stroke="#0d32b2" points="1350.38,-219.5 1350.38,-255.5"/>
<text text-anchor="start" x="1358.38" y="-232.1" font-family="Arial" font-weight="bold" font-size="17.00">5</text>
</a>
</g>
</g>
<!-- 20109&#45;&gt;20417 -->
<g id="edge16" class="edge">
<title>20109&#45;&gt;20417</title>
<path fill="none" stroke="black" d="M1573.38,-294.14C1570.51,-293.4 1567.66,-292.68 1564.88,-292 1489,-273.56 1466.28,-274.35 1387.39,-256.5"/>
<polygon fill="black" stroke="black" points="1388.42,-253.15 1377.89,-254.32 1386.85,-259.97 1388.42,-253.15"/>
</g>
<!-- 20296 -->
<g id="node19" class="node">
<title>20296</title>
<g id="a_node19"><a xlink:href="https://www.openu.ac.il/courses/20296.htm" xlink:title="20296">
<polygon fill="#f0f0f0" stroke="black" points="1696.12,-219.5 1696.12,-255.5 1819.62,-255.5 1819.62,-219.5 1696.12,-219.5"/>
<text text-anchor="start" x="1704.12" y="-231.68" font-family="Arial" font-size="16.00">תורת הקודים</text>
<polyline fill="none" stroke="black" points="1793.88,-219.5 1793.88,-255.5"/>
<text text-anchor="start" x="1801.88" y="-232.1" font-family="Arial" font-weight="bold" font-size="17.00">4</text>
</a>
</g>
</g>
<!-- 20109&#45;&gt;20296 -->
<g id="edge13" class="edge">
<title>20109&#45;&gt;20296</title>
<path fill="none" stroke="black" d="M1658.17,-292.13C1675.42,-282.85 1696.89,-271.3 1715.47,-261.31"/>
<polygon fill="black" stroke="black" points="1716.98,-264.47 1724.13,-256.65 1713.66,-258.31 1716.98,-264.47"/>
</g>
<!-- 20942 -->
<g id="node21" class="node">
<title>20942</title>
<g id="a_node21"><a xlink:href="https://www.openu.ac.il/courses/20942.htm" xlink:title="20942">
<polygon fill="#f0f0f0" stroke="black" points="1394,-219.5 1394,-255.5 1555.75,-255.5 1555.75,-219.5 1394,-219.5"/>
<text text-anchor="start" x="1402" y="-231.68" font-family="Arial" font-size="16.00">מ&#39; ללמידה חישובית</text>
<polyline fill="none" stroke="black" points="1530,-219.5 1530,-255.5"/>
<text text-anchor="start" x="1538" y="-232.1" font-family="Arial" font-weight="bold" font-size="17.00">4</text>
</a>
</g>
</g>
<!-- 20109&#45;&gt;20942 -->
<g id="edge10" class="edge">
<title>20109&#45;&gt;20942</title>
<path fill="none" stroke="black" d="M1588.94,-292.13C1568.83,-282.68 1543.73,-270.88 1522.2,-260.75"/>
<polygon fill="black" stroke="black" points="1523.86,-257.67 1513.33,-256.58 1520.89,-264 1523.86,-257.67"/>
</g>
<!-- 20109&#45;&gt;20462 -->
<g id="edge33" class="edge">
<title>20109&#45;&gt;20462</title>
<path fill="none" stroke="black" d="M1678.19,-296.33C1716.71,-286.49 1770.62,-272.44 1825.75,-256.85"/>
<polygon fill="black" stroke="black" points="1826.67,-260.22 1835.33,-254.12 1824.76,-253.49 1826.67,-260.22"/>
</g>
<!-- 20562 -->
<g id="node29" class="node">
<title>20562</title>
<g id="a_node29"><a xlink:href="https://www.openu.ac.il/courses/20562.htm" xlink:title="20562">
<polygon fill="#f0f0f0" stroke="black" points="1086.62,-219.5 1086.62,-255.5 1243.12,-255.5 1243.12,-219.5 1086.62,-219.5"/>
<text text-anchor="start" x="1094.62" y="-231.68" font-family="Arial" font-size="16.00">גרפיקה ממוחשבת</text>
<polyline fill="none" stroke="black" points="1217.38,-219.5 1217.38,-255.5"/>
<text text-anchor="start" x="1225.38" y="-232.1" font-family="Arial" font-weight="bold" font-size="17.00">4</text>
</a>
</g>
</g>
<!-- 20109&#45;&gt;20562 -->
<g id="edge37" class="edge">
<title>20109&#45;&gt;20562</title>
<path fill="none" stroke="black" d="M1573.44,-293.86C1570.55,-293.19 1567.68,-292.56 1564.88,-292 1431.47,-265.36 1392.73,-277 1254.51,-256.16"/>
<polygon fill="black" stroke="black" points="1255.41,-252.76 1245,-254.7 1254.35,-259.68 1255.41,-252.76"/>
</g>
<!-- 20944 -->
<g id="node24" class="node">
<title>20944</title>
<g id="a_node24"><a xlink:href="https://www.openu.ac.il/courses/20944.htm" xlink:title="20944">
<polygon fill="#f0f0f0" stroke="black" points="1537.5,-146.5 1537.5,-182.5 1714.25,-182.5 1714.25,-146.5 1537.5,-146.5"/>
<text text-anchor="start" x="1545.5" y="-158.68" font-family="Arial" font-size="16.00">רובוטיקה אלגוריתמית</text>
<polyline fill="none" stroke="black" points="1688.5,-146.5 1688.5,-182.5"/>
<text text-anchor="start" x="1696.5" y="-159.1" font-family="Arial" font-weight="bold" font-size="17.00">4</text>
</a>
</g>
</g>
<!-- 20229&#45;&gt;20944 -->
<g id="edge50" class="edge">
<title>20229&#45;&gt;20944</title>
<path fill="none" stroke="black" d="M1625.88,-219.31C1625.88,-211.73 1625.88,-202.6 1625.88,-194.04"/>
<polygon fill="black" stroke="black" points="1629.38,-194.04 1625.88,-184.04 1622.38,-194.04 1629.38,-194.04"/>
</g>
<!-- 20425&#45;&gt;20417 -->
<g id="edge15" class="edge">
<title>20425&#45;&gt;20417</title>
<path fill="none" stroke="black" d="M1423.12,-292.13C1404.99,-282.81 1382.43,-271.2 1362.93,-261.17"/>
<polygon fill="black" stroke="black" points="1364.6,-258.09 1354.11,-256.63 1361.4,-264.31 1364.6,-258.09"/>
</g>
<!-- 20425&#45;&gt;20942 -->
<g id="edge45" class="edge">
<title>20425&#45;&gt;20942</title>
<path fill="none" stroke="black" d="M1461.23,-292.31C1463.2,-284.55 1465.58,-275.18 1467.79,-266.45"/>
<polygon fill="black" stroke="black" points="1471.12,-267.55 1470.19,-257 1464.34,-265.83 1471.12,-267.55"/>
</g>
<!-- 20471 -->
<g id="node9" class="node">
<title>20471</title>
<g id="a_node9"><a xlink:href="https://www.openu.ac.il/courses/20471.htm" xlink:title="20471">
<polygon fill="#d6ddff" stroke="#0d32b2" points="652.25,-219.5 652.25,-255.5 779.5,-255.5 779.5,-219.5 652.25,-219.5"/>
<text text-anchor="start" x="660.25" y="-231.68" font-family="Arial" font-size="16.00">ארגון המחשב</text>
<polyline fill="none" stroke="#0d32b2" points="753.75,-219.5 753.75,-255.5"/>
<text text-anchor="start" x="761.75" y="-232.1" font-family="Arial" font-weight="bold" font-size="17.00">4</text>
</a>
</g>
</g>
<!-- 20407&#45;&gt;20471 -->
<g id="edge26" class="edge">
<title>20407&#45;&gt;20471</title>
<path fill="none" stroke="black" d="M715.88,-292.31C715.88,-284.73 715.88,-275.6 715.88,-267.04"/>
<polygon fill="black" stroke="black" points="719.38,-267.04 715.88,-257.04 712.38,-267.04 719.38,-267.04"/>
</g>
<!-- 20407&#45;&gt;20417 -->
<g id="edge17" class="edge">
<title>20407&#45;&gt;20417</title>
<path fill="none" stroke="black" d="M826.38,-293.02C829.24,-292.67 832.07,-292.33 834.88,-292 1016.04,-270.88 1066.6,-286.96 1250.14,-256.11"/>
<polygon fill="black" stroke="black" points="1250.51,-259.6 1259.78,-254.46 1249.33,-252.7 1250.51,-259.6"/>
</g>
<!-- 20277 -->
<g id="node22" class="node">
<title>20277</title>
<g id="a_node22"><a xlink:href="https://www.openu.ac.il/courses/20277.htm" xlink:title="20277">
<polygon fill="#f0f0f0" stroke="black" points="214.88,-219.5 214.88,-255.5 360.88,-255.5 360.88,-219.5 214.88,-219.5"/>
<text text-anchor="start" x="222.88" y="-231.68" font-family="Arial" font-size="16.00">מע&#39; בסיסי נתונים</text>
<polyline fill="none" stroke="black" points="335.12,-219.5 335.12,-255.5"/>
<text text-anchor="start" x="343.12" y="-232.1" font-family="Arial" font-weight="bold" font-size="17.00">4</text>
</a>
</g>
</g>
<!-- 20407&#45;&gt;20277 -->
<g id="edge9" class="edge">
<title>20407&#45;&gt;20277</title>
<path fill="none" stroke="black" d="M610.63,-292.04C537.24,-279.87 440.62,-263.84 372.28,-252.5"/>
<polygon fill="black" stroke="black" points="373.07,-249.08 362.63,-250.9 371.92,-255.99 373.07,-249.08"/>
</g>
<!-- 20554 -->
<g id="node25" class="node">
<title>20554</title>
<g id="a_node25"><a xlink:href="https://www.openu.ac.il/courses/20554.htm" xlink:title="20554">
<polygon fill="#f0f0f0" stroke="black" points="387.12,-146.5 387.12,-182.5 540.62,-182.5 540.62,-146.5 387.12,-146.5"/>
<text text-anchor="start" x="395.12" y="-158.68" font-family="Arial" font-size="16.00">תכ&#39; מתקדם Java</text>
<polyline fill="none" stroke="black" points="514.88,-146.5 514.88,-182.5"/>
<text text-anchor="start" x="522.88" y="-159.1" font-family="Arial" font-weight="bold" font-size="17.00">4</text>
</a>
</g>
</g>
<!-- 20407&#45;&gt;20554 -->
<g id="edge34" class="edge">
<title>20407&#45;&gt;20554</title>
<path fill="none" stroke="black" d="M685.48,-292.13C640.16,-266.24 554.83,-217.47 504.3,-188.6"/>
<polygon fill="black" stroke="black" points="506.11,-185.6 495.69,-183.68 502.64,-191.68 506.11,-185.6"/>
</g>
<!-- 20407&#45;&gt;20562 -->
<g id="edge39" class="edge">
<title>20407&#45;&gt;20562</title>
<path fill="none" stroke="black" d="M826.29,-292.04C902.82,-279.94 1003.44,-264.03 1075.05,-252.7"/>
<polygon fill="black" stroke="black" points="1075.46,-256.18 1084.79,-251.16 1074.37,-249.27 1075.46,-256.18"/>
</g>
<!-- 20906 -->
<g id="node32" class="node">
<title>20906</title>
<g id="a_node32"><a xlink:href="https://www.openu.ac.il/courses/20906.htm" xlink:title="20906">
<polygon fill="#f0f0f0" stroke="black" points="0,-146.5 0,-182.5 149.75,-182.5 149.75,-146.5 0,-146.5"/>
<text text-anchor="start" x="8" y="-158.68" font-family="Arial" font-size="16.00">תכ&#39; מונחה עצמים</text>
<polyline fill="none" stroke="black" points="124,-146.5 124,-182.5"/>
<text text-anchor="start" x="132" y="-159.1" font-family="Arial" font-weight="bold" font-size="17.00">4</text>
</a>
</g>
</g>
<!-- 20407&#45;&gt;20906 -->
<g id="edge42" class="edge">
<title>20407&#45;&gt;20906</title>
<path fill="none" stroke="black" d="M605.34,-304.31C477.86,-297.2 276.74,-282.23 205.88,-256 165.93,-241.21 126.62,-211.44 101.64,-190.08"/>
<polygon fill="black" stroke="black" points="104.09,-187.57 94.25,-183.63 99.48,-192.84 104.09,-187.57"/>
</g>
<!-- 20905 -->
<g id="node8" class="node">
<title>20905</title>
<g id="a_node8"><a xlink:href="https://www.openu.ac.il/courses/20905.htm" xlink:title="20905">
<polygon fill="#d6ddff" stroke="#0d32b2" points="658.38,-0.5 658.38,-36.5 777.38,-36.5 777.38,-0.5 658.38,-0.5"/>
<text text-anchor="start" x="666.38" y="-12.68" font-family="Arial" font-size="16.00">שפות תכנות</text>
<polyline fill="none" stroke="#0d32b2" points="751.62,-0.5 751.62,-36.5"/>
<text text-anchor="start" x="759.62" y="-13.1" font-family="Arial" font-weight="bold" font-size="17.00">5</text>
</a>
</g>
</g>
<!-- 20594 -->
<g id="node15" class="node">
<title>20594</title>
<g id="a_node15"><a xlink:href="https://www.openu.ac.il/courses/20594.htm" xlink:title="20594">
<polygon fill="#d6ddff" stroke="#0d32b2" points="559.12,-146.5 559.12,-182.5 670.62,-182.5 670.62,-146.5 559.12,-146.5"/>
<text text-anchor="start" x="567.12" y="-158.68" font-family="Arial" font-size="16.00">מע&#39; הפעלה</text>
<polyline fill="none" stroke="#0d32b2" points="644.88,-146.5 644.88,-182.5"/>
<text text-anchor="start" x="652.88" y="-159.1" font-family="Arial" font-weight="bold" font-size="17.00">4</text>
</a>
</g>
</g>
<!-- 20471&#45;&gt;20594 -->
<g id="edge12" class="edge">
<title>20471&#45;&gt;20594</title>
<path fill="none" stroke="black" d="M691.17,-219.13C678.45,-210.19 662.75,-199.16 648.91,-189.42"/>
<polygon fill="black" stroke="black" points="651.11,-186.69 640.92,-183.81 647.08,-192.42 651.11,-186.69"/>
</g>
<!-- 20441 -->
<g id="node10" class="node">
<title>20441</title>
<g id="a_node10"><a xlink:href="https://www.openu.ac.il/courses/20441.htm" xlink:title="20441">
<polygon fill="#d6ddff" stroke="#0d32b2" points="1100.75,-365.5 1100.75,-401.5 1213,-401.5 1213,-365.5 1100.75,-365.5"/>
<text text-anchor="start" x="1108.75" y="-377.68" font-family="Arial" font-size="16.00">מבוא Java</text>
<polyline fill="none" stroke="#0d32b2" points="1187.25,-365.5 1187.25,-401.5"/>
<text text-anchor="start" x="1195.25" y="-378.1" font-family="Arial" font-weight="bold" font-size="17.00">6</text>
</a>
</g>
</g>
<!-- 20441&#45;&gt;20407 -->
<g id="edge1" class="edge">
<title>20441&#45;&gt;20407</title>
<path fill="none" stroke="black" d="M1100.57,-373.44C1034.06,-362.73 921.56,-344.61 835.35,-330.73"/>
<polygon fill="black" stroke="black" points="836.09,-327.31 825.66,-329.18 834.98,-334.22 836.09,-327.31"/>
</g>
<!-- 20465 -->
<g id="node11" class="node">
<title>20465</title>
<g id="a_node11"><a xlink:href="https://www.openu.ac.il/courses/20465.htm" xlink:title="20465">
<polygon fill="#d6ddff" stroke="#0d32b2" points="993.62,-292.5 993.62,-328.5 1132.12,-328.5 1132.12,-292.5 993.62,-292.5"/>
<text text-anchor="start" x="1001.62" y="-304.68" font-family="Arial" font-size="16.00">מעבדה בתכנות</text>
<polyline fill="none" stroke="#0d32b2" points="1106.38,-292.5 1106.38,-328.5"/>
<text text-anchor="start" x="1114.38" y="-305.1" font-family="Arial" font-weight="bold" font-size="17.00">4</text>
</a>
</g>
</g>
<!-- 20441&#45;&gt;20465 -->
<g id="edge3" class="edge">
<title>20441&#45;&gt;20465</title>
<path fill="none" stroke="black" d="M1134.12,-365.31C1122.32,-356.4 1107.7,-345.36 1094.78,-335.6"/>
<polygon fill="black" stroke="black" points="1097.04,-332.92 1086.95,-329.69 1092.82,-338.51 1097.04,-332.92"/>
</g>
<!-- 20441&#45;&gt;20942 -->
<g id="edge11" class="edge">
<title>20441&#45;&gt;20942</title>
<path fill="none" stroke="black" d="M1192.78,-365.07C1231.2,-346.53 1294.05,-316.55 1348.88,-292 1372.84,-281.27 1399.59,-269.83 1422.26,-260.3"/>
<polygon fill="black" stroke="black" points="1423.43,-263.61 1431.3,-256.51 1420.73,-257.15 1423.43,-263.61"/>
</g>
<!-- 20441&#45;&gt;20462 -->
<g id="edge31" class="edge">
<title>20441&#45;&gt;20462</title>
<path fill="none" stroke="black" d="M1213.27,-382.78C1311.32,-381.95 1518.8,-374.38 1686.88,-329 1744.73,-313.38 1806.92,-282.6 1846.09,-261.31"/>
<polygon fill="black" stroke="black" points="1847.62,-264.46 1854.69,-256.57 1844.24,-258.33 1847.62,-264.46"/>
</g>
<!-- 20465&#45;&gt;20471 -->
<g id="edge2" class="edge">
<title>20465&#45;&gt;20471</title>
<path fill="none" stroke="black" d="M993.15,-293.77C990.36,-293.17 987.59,-292.57 984.88,-292 919.53,-278.17 845.03,-263.44 791.03,-252.94"/>
<polygon fill="black" stroke="black" points="791.8,-249.52 781.31,-251.05 790.46,-256.39 791.8,-249.52"/>
</g>
<!-- 20946 -->
<g id="node18" class="node">
<title>20946</title>
<g id="a_node18"><a xlink:href="https://www.openu.ac.il/courses/20946.htm" xlink:title="20946">
<polygon fill="#f0f0f0" stroke="black" points="1034.5,-73.5 1034.5,-109.5 1187.25,-109.5 1187.25,-73.5 1034.5,-73.5"/>
<text text-anchor="start" x="1042.5" y="-85.67" font-family="Arial" font-size="16.00">מ&#39; לבדיקות תוכנה</text>
<polyline fill="none" stroke="black" points="1161.5,-73.5 1161.5,-109.5"/>
<text text-anchor="start" x="1169.5" y="-86.1" font-family="Arial" font-weight="bold" font-size="17.00">4</text>
</a>
</g>
</g>
<!-- 20465&#45;&gt;20946 -->
<g id="edge24" class="edge">
<title>20465&#45;&gt;20946</title>
<path fill="none" stroke="black" d="M1055.25,-292.27C1042.75,-261.32 1021.53,-194.98 1044.88,-146 1050.37,-134.48 1059.68,-124.64 1069.61,-116.65"/>
<polygon fill="black" stroke="black" points="1071.64,-119.51 1077.6,-110.75 1067.48,-113.88 1071.64,-119.51"/>
</g>
<!-- 20465&#45;&gt;20562 -->
<g id="edge38" class="edge">
<title>20465&#45;&gt;20562</title>
<path fill="none" stroke="black" d="M1087.83,-292.13C1100.67,-283.19 1116.52,-272.16 1130.51,-262.42"/>
<polygon fill="black" stroke="black" points="1132.38,-265.39 1138.58,-256.8 1128.38,-259.64 1132.38,-265.39"/>
</g>
<!-- 20364 -->
<g id="node33" class="node">
<title>20364</title>
<g id="a_node33"><a xlink:href="https://www.openu.ac.il/courses/20364.htm" xlink:title="20364">
<polygon fill="#f0f0f0" stroke="black" points="1205.12,-73.5 1205.12,-109.5 1310.62,-109.5 1310.62,-73.5 1205.12,-73.5"/>
<text text-anchor="start" x="1213.12" y="-85.67" font-family="Arial" font-size="16.00">קומפילציה</text>
<polyline fill="none" stroke="black" points="1284.88,-73.5 1284.88,-109.5"/>
<text text-anchor="start" x="1292.88" y="-86.1" font-family="Arial" font-weight="bold" font-size="17.00">4</text>
</a>
</g>
</g>
<!-- 20465&#45;&gt;20364 -->
<g id="edge25" class="edge">
<title>20465&#45;&gt;20364</title>
<path fill="none" stroke="black" d="M1061.92,-292.11C1061.67,-272.79 1063.8,-241.38 1077.88,-219 1108.23,-170.71 1164.43,-135.71 1205.99,-114.93"/>
<polygon fill="black" stroke="black" points="1207.39,-118.14 1214.85,-110.62 1204.33,-111.84 1207.39,-118.14"/>
</g>
<!-- 20604 -->
<g id="node13" class="node">
<title>20604</title>
<g id="a_node13"><a xlink:href="https://www.openu.ac.il/courses/20604.htm" xlink:title="20604">
<polygon fill="#d6ddff" stroke="#0d32b2" points="849,-146.5 849,-182.5 992.75,-182.5 992.75,-146.5 849,-146.5"/>
<text text-anchor="start" x="857" y="-158.68" font-family="Arial" font-size="16.00">מודלים חישוביים</text>
<polyline fill="none" stroke="#0d32b2" points="967,-146.5 967,-182.5"/>
<text text-anchor="start" x="975" y="-159.1" font-family="Arial" font-weight="bold" font-size="17.00">5</text>
</a>
</g>
</g>
<!-- 20417&#45;&gt;20604 -->
<g id="edge18" class="edge">
<title>20417&#45;&gt;20604</title>
<path fill="none" stroke="black" d="M1261.21,-221.07C1258.06,-220.34 1254.93,-219.65 1251.88,-219 1168.28,-201.37 1071.75,-186.37 1004.59,-176.78"/>
<polygon fill="black" stroke="black" points="1005.13,-173.32 994.73,-175.38 1004.14,-180.25 1005.13,-173.32"/>
</g>
<!-- 20595 -->
<g id="node17" class="node">
<title>20595</title>
<g id="a_node17"><a xlink:href="https://www.openu.ac.il/courses/20595.htm" xlink:title="20595">
<polygon fill="#f0f0f0" stroke="black" points="1263.88,-146.5 1263.88,-182.5 1373.88,-182.5 1373.88,-146.5 1263.88,-146.5"/>
<text text-anchor="start" x="1271.88" y="-158.68" font-family="Arial" font-size="16.00">כריית מידע</text>
<polyline fill="none" stroke="black" points="1348.12,-146.5 1348.12,-182.5"/>
<text text-anchor="start" x="1356.12" y="-159.1" font-family="Arial" font-weight="bold" font-size="17.00">4</text>
</a>
</g>
</g>
<!-- 20417&#45;&gt;20595 -->
<g id="edge19" class="edge">
<title>20417&#45;&gt;20595</title>
<path fill="none" stroke="black" d="M1318.88,-219.31C1318.88,-211.73 1318.88,-202.6 1318.88,-194.04"/>
<polygon fill="black" stroke="black" points="1322.38,-194.04 1318.88,-184.04 1315.38,-194.04 1322.38,-194.04"/>
</g>
<!-- 20582 -->
<g id="node23" class="node">
<title>20582</title>
<g id="a_node23"><a xlink:href="https://www.openu.ac.il/courses/20582.htm" xlink:title="20582">
<polygon fill="#f0f0f0" stroke="black" points="689.12,-146.5 689.12,-182.5 830.62,-182.5 830.62,-146.5 689.12,-146.5"/>
<text text-anchor="start" x="697.12" y="-158.68" font-family="Arial" font-size="16.00">מ&#39; לרשתות ת&#39;&#39;מ</text>
<polyline fill="none" stroke="black" points="804.88,-146.5 804.88,-182.5"/>
<text text-anchor="start" x="812.88" y="-159.1" font-family="Arial" font-weight="bold" font-size="17.00">4</text>
</a>
</g>
</g>
<!-- 20417&#45;&gt;20582 -->
<g id="edge22" class="edge">
<title>20417&#45;&gt;20582</title>
<path fill="none" stroke="black" d="M1261.27,-220.8C1258.1,-220.14 1254.96,-219.53 1251.88,-219 1074.38,-188.29 1023.61,-209.8 842.17,-183.22"/>
<polygon fill="black" stroke="black" points="842.79,-179.77 832.38,-181.75 841.76,-186.7 842.79,-179.77"/>
</g>
<!-- 20417&#45;&gt;20944 -->
<g id="edge28" class="edge">
<title>20417&#45;&gt;20944</title>
<path fill="none" stroke="black" d="M1376.43,-221.09C1379.28,-220.37 1382.11,-219.67 1384.88,-219 1433.25,-207.22 1487.34,-195.12 1532,-185.41"/>
<polygon fill="black" stroke="black" points="1532.63,-188.85 1541.66,-183.31 1531.15,-182.01 1532.63,-188.85"/>
</g>
<!-- 20604&#45;&gt;20946 -->
<g id="edge27" class="edge">
<title>20604&#45;&gt;20946</title>
<path fill="none" stroke="black" d="M967.35,-146.13C993.35,-136.42 1025.96,-124.23 1053.53,-113.93"/>
<polygon fill="black" stroke="black" points="1054.66,-117.24 1062.8,-110.47 1052.21,-110.69 1054.66,-117.24"/>
</g>
<!-- 20551 -->
<g id="node20" class="node">
<title>20551</title>
<g id="a_node20"><a xlink:href="https://www.openu.ac.il/courses/20551.htm" xlink:title="20551">
<polygon fill="#f0f0f0" stroke="black" points="855,-73.5 855,-109.5 1016.75,-109.5 1016.75,-73.5 855,-73.5"/>
<text text-anchor="start" x="863" y="-85.67" font-family="Arial" font-size="16.00">מ&#39; לבינה מלאכותית</text>
<polyline fill="none" stroke="black" points="991,-73.5 991,-109.5"/>
<text text-anchor="start" x="999" y="-86.1" font-family="Arial" font-weight="bold" font-size="17.00">4</text>
</a>
</g>
</g>
<!-- 20604&#45;&gt;20551 -->
<g id="edge21" class="edge">
<title>20604&#45;&gt;20551</title>
<path fill="none" stroke="black" d="M924.51,-146.31C926.13,-138.64 928.08,-129.39 929.91,-120.74"/>
<polygon fill="black" stroke="black" points="933.32,-121.52 931.96,-111.01 926.47,-120.07 933.32,-121.52"/>
</g>
<!-- 20580 -->
<g id="node30" class="node">
<title>20580</title>
<g id="a_node30"><a xlink:href="https://www.openu.ac.il/courses/20580.htm" xlink:title="20580">
<polygon fill="#f0f0f0" stroke="black" points="689.12,-73.5 689.12,-109.5 836.62,-109.5 836.62,-73.5 689.12,-73.5"/>
<text text-anchor="start" x="697.12" y="-85.67" font-family="Arial" font-size="16.00">מ&#39; לקריפטוגרפיה</text>
<polyline fill="none" stroke="black" points="810.88,-73.5 810.88,-109.5"/>
<text text-anchor="start" x="818.88" y="-86.1" font-family="Arial" font-weight="bold" font-size="17.00">4</text>
</a>
</g>
</g>
<!-- 20604&#45;&gt;20580 -->
<g id="edge40" class="edge">
<title>20604&#45;&gt;20580</title>
<path fill="none" stroke="black" d="M882.22,-146.13C861.09,-136.63 834.68,-124.77 812.09,-114.61"/>
<polygon fill="black" stroke="black" points="813.61,-111.46 803.06,-110.56 810.74,-117.85 813.61,-111.46"/>
</g>
<!-- 20604&#45;&gt;20364 -->
<g id="edge43" class="edge">
<title>20604&#45;&gt;20364</title>
<path fill="none" stroke="black" d="M993.02,-151.15C1046.09,-141.68 1120.17,-127.66 1193.97,-110.36"/>
<polygon fill="black" stroke="black" points="1194.45,-113.84 1203.38,-108.13 1192.84,-107.03 1194.45,-113.84"/>
</g>
<!-- 20466&#45;&gt;20604 -->
<g id="edge7" class="edge">
<title>20466&#45;&gt;20604</title>
<path fill="none" stroke="black" d="M911.2,-292.13C913.06,-267.8 916.46,-223.3 918.69,-194.06"/>
<polygon fill="black" stroke="black" points="922.16,-194.68 919.43,-184.44 915.18,-194.14 922.16,-194.68"/>
</g>
<!-- 20940 -->
<g id="node16" class="node">
<title>20940</title>
<g id="a_node16"><a xlink:href="https://www.openu.ac.il/courses/20940.htm" xlink:title="20940">
<polygon fill="#f0f0f0" stroke="black" points="526.62,-73.5 526.62,-109.5 671.12,-109.5 671.12,-73.5 526.62,-73.5"/>
<text text-anchor="start" x="534.62" y="-85.67" font-family="Arial" font-size="16.00">מ&#39; לאבטחת ה&#39;&#39;ה</text>
<polyline fill="none" stroke="black" points="645.38,-73.5 645.38,-109.5"/>
<text text-anchor="start" x="653.38" y="-86.1" font-family="Arial" font-weight="bold" font-size="17.00">4</text>
</a>
</g>
</g>
<!-- 20594&#45;&gt;20940 -->
<g id="edge4" class="edge">
<title>20594&#45;&gt;20940</title>
<path fill="none" stroke="black" d="M611,-146.31C609.27,-138.64 607.19,-129.39 605.24,-120.74"/>
<polygon fill="black" stroke="black" points="608.66,-119.99 603.05,-111.01 601.83,-121.53 608.66,-119.99"/>
</g>
<!-- 20937 -->
<g id="node28" class="node">
<title>20937</title>
<g id="a_node28"><a xlink:href="https://www.openu.ac.il/courses/20937.htm" xlink:title="20937">
<polygon fill="#f0f0f0" stroke="black" points="367.12,-73.5 367.12,-109.5 508.62,-109.5 508.62,-73.5 367.12,-73.5"/>
<text text-anchor="start" x="375.12" y="-85.67" font-family="Arial" font-size="16.00">תכ&#39; מע&#39; דפנסיבי</text>
<polyline fill="none" stroke="black" points="482.88,-73.5 482.88,-109.5"/>
<text text-anchor="start" x="490.88" y="-86.1" font-family="Arial" font-weight="bold" font-size="17.00">4</text>
</a>
</g>
</g>
<!-- 20594&#45;&gt;20937 -->
<g id="edge35" class="edge">
<title>20594&#45;&gt;20937</title>
<path fill="none" stroke="black" d="M571.58,-146.13C547.58,-136.5 517.51,-124.45 491.98,-114.2"/>
<polygon fill="black" stroke="black" points="493.33,-110.97 482.75,-110.5 490.72,-117.47 493.33,-110.97"/>
</g>
<!-- 20574 -->
<g id="node34" class="node">
<title>20574</title>
<g id="a_node34"><a xlink:href="https://www.openu.ac.il/courses/20574.htm" xlink:title="20574">
<polygon fill="#f0f0f0" stroke="black" points="183.38,-73.5 183.38,-109.5 290.38,-109.5 290.38,-73.5 183.38,-73.5"/>
<text text-anchor="start" x="191.38" y="-85.67" font-family="Arial" font-size="16.00">מע&#39; נתונים</text>
<polyline fill="none" stroke="black" points="264.62,-73.5 264.62,-109.5"/>
<text text-anchor="start" x="272.62" y="-86.1" font-family="Arial" font-weight="bold" font-size="17.00">4</text>
</a>
</g>
</g>
<!-- 20594&#45;&gt;20574 -->
<g id="edge30" class="edge">
<title>20594&#45;&gt;20574</title>
<path fill="none" stroke="black" d="M558.94,-148.08C555.88,-147.35 552.84,-146.65 549.88,-146 464.67,-127.29 365.2,-111.27 301.66,-101.76"/>
<polygon fill="black" stroke="black" points="302.52,-98.35 292.11,-100.34 301.49,-105.27 302.52,-98.35"/>
</g>
<!-- 20436 -->
<g id="node31" class="node">
<title>20436</title>
<g id="a_node31"><a xlink:href="https://www.openu.ac.il/courses/20436.htm" xlink:title="20436">
<polygon fill="#f0f0f0" stroke="black" points="206.25,-146.5 206.25,-182.5 369.5,-182.5 369.5,-146.5 206.25,-146.5"/>
<text text-anchor="start" x="214.25" y="-158.68" font-family="Arial" font-size="16.00">עק&#39; פיתוח מע&#39; מידע</text>
<polyline fill="none" stroke="black" points="343.75,-146.5 343.75,-182.5"/>
<text text-anchor="start" x="351.75" y="-159.1" font-family="Arial" font-weight="bold" font-size="17.00">4</text>
</a>
</g>
</g>
<!-- 20277&#45;&gt;20436 -->
<g id="edge29" class="edge">
<title>20277&#45;&gt;20436</title>
<path fill="none" stroke="black" d="M287.88,-219.31C287.88,-211.73 287.88,-202.6 287.88,-194.04"/>
<polygon fill="black" stroke="black" points="291.38,-194.04 287.88,-184.04 284.38,-194.04 291.38,-194.04"/>
</g>
<!-- 20277&#45;&gt;20574 -->
<g id="edge44" class="edge">
<title>20277&#45;&gt;20574</title>
<path fill="none" stroke="black" d="M238.3,-219.08C222.17,-210.78 206.07,-199.07 196.88,-183 184.91,-162.08 198.07,-136.91 212.41,-118.43"/>
<polygon fill="black" stroke="black" points="215.01,-120.78 218.7,-110.85 209.62,-116.31 215.01,-120.78"/>
</g>
<!-- 20582&#45;&gt;20940 -->
<g id="edge20" class="edge">
<title>20582&#45;&gt;20940</title>
<path fill="none" stroke="black" d="M720.49,-146.13C698.85,-136.59 671.8,-124.66 648.71,-114.48"/>
<polygon fill="black" stroke="black" points="650.36,-111.38 639.8,-110.55 647.53,-117.78 650.36,-111.38"/>
</g>
<!-- 20582&#45;&gt;20937 -->
<g id="edge36" class="edge">
<title>20582&#45;&gt;20937</title>
<path fill="none" stroke="black" d="M688.81,-147.83C639.03,-136.85 572.36,-122.15 520.26,-110.66"/>
<polygon fill="black" stroke="black" points="521.03,-107.25 510.51,-108.52 519.52,-114.09 521.03,-107.25"/>
</g>
<!-- 20554&#45;&gt;20937 -->
<g id="edge41" class="edge">
<title>20554&#45;&gt;20937</title>
<path fill="none" stroke="black" d="M457.58,-146.31C454.71,-138.46 451.23,-128.97 448,-120.16"/>
<polygon fill="black" stroke="black" points="451.36,-119.14 444.63,-110.95 444.78,-121.54 451.36,-119.14"/>
</g>
<!-- 20462&#45;&gt;20944 -->
<g id="edge47" class="edge">
<title>20462&#45;&gt;20944</title>
<path fill="none" stroke="black" d="M1836.79,-221.29C1834.11,-220.51 1831.46,-219.74 1828.88,-219 1788.36,-207.45 1743.05,-195.42 1705.53,-185.7"/>
<polygon fill="black" stroke="black" points="1706.68,-182.38 1696.12,-183.27 1704.93,-189.16 1706.68,-182.38"/>
</g>
<!-- 20900 -->
<g id="node27" class="node">
<title>20900</title>
<g id="a_node27"><a xlink:href="https://www.openu.ac.il/courses/20900.htm" xlink:title="20900">
<polygon fill="#f0f0f0" stroke="black" points="1837.25,-146.5 1837.25,-182.5 1934.5,-182.5 1934.5,-146.5 1837.25,-146.5"/>
<text text-anchor="start" x="1845.25" y="-158.68" font-family="Arial" font-size="16.00">נומרית 2</text>
<polyline fill="none" stroke="black" points="1908.75,-146.5 1908.75,-182.5"/>
<text text-anchor="start" x="1916.75" y="-159.1" font-family="Arial" font-weight="bold" font-size="17.00">4</text>
</a>
</g>
</g>
<!-- 20462&#45;&gt;20900 -->
<g id="edge46" class="edge">
<title>20462&#45;&gt;20900</title>
<path fill="none" stroke="black" d="M1885.88,-219.31C1885.88,-211.73 1885.88,-202.6 1885.88,-194.04"/>
<polygon fill="black" stroke="black" points="1889.38,-194.04 1885.88,-184.04 1882.38,-194.04 1889.38,-194.04"/>
</g>
<!-- 20906&#45;&gt;20905 -->
<g id="edge48" class="edge">
<title>20906&#45;&gt;20905</title>
<path fill="none" stroke="black" d="M87.91,-146.3C105.19,-124.97 137.84,-89.4 174.88,-73 257.69,-36.33 519.77,-24.59 647.09,-21"/>
<polygon fill="black" stroke="black" points="646.82,-24.51 656.73,-20.74 646.63,-17.51 646.82,-24.51"/>
</g>
<!-- 20364&#45;&gt;20905 -->
<g id="edge49" class="edge">
<title>20364&#45;&gt;20905</title>
<path fill="none" stroke="black" d="M1204.91,-74.94C1201.87,-74.23 1198.84,-73.58 1195.88,-73 1052.9,-45.02 882.78,-30.33 788.93,-23.81"/>
<polygon fill="black" stroke="black" points="789.32,-20.33 779.1,-23.14 788.84,-27.31 789.32,-20.33"/>
</g>
</g>
</svg>
